<svg width="1000" height="1000" viewBox="0 0 1000 1000" fill="none" xmlns="http://www.w3.org/2000/svg">
<path d="M885.13 494.8C885.057 502.789 883.951 510.735 881.84 518.44C879.709 526.204 877.09 533.826 874 541.26C871 548.77 867.69 556.2 864.67 563.61C861.619 570.85 859.027 578.274 856.91 585.84C854.914 593.644 853.391 601.562 852.35 609.55C851.21 617.6 850.3 625.74 849.16 633.76C848.123 641.677 846.596 649.522 844.59 657.25C842.637 664.783 839.712 672.031 835.89 678.81C831.876 685.577 827.002 691.795 821.39 697.31C815.671 702.926 809.609 708.183 803.24 713.05C796.85 718.05 790.24 722.86 783.89 727.83C771.077 737.35 759.73 748.697 750.21 761.51C745.21 767.88 740.42 774.51 735.43 780.85C730.569 787.224 725.312 793.286 719.69 799C714.18 804.614 707.961 809.485 701.19 813.49C694.413 817.316 687.165 820.241 679.63 822.19C671.902 824.197 664.057 825.724 656.14 826.76C648.14 827.9 639.99 828.81 631.93 829.95C623.946 830.996 616.032 832.518 608.23 834.51C600.666 836.635 593.241 839.23 586 842.28C578.59 845.28 571.16 848.58 563.65 851.61C556.217 854.705 548.595 857.323 540.83 859.45C525.377 863.85 509.003 863.85 493.55 859.45C485.785 857.323 478.163 854.705 470.73 851.61C463.22 848.61 455.79 845.3 448.38 842.28C441.139 839.234 433.714 836.642 426.15 834.52C418.348 832.528 410.434 831.006 402.45 829.96C394.39 828.82 386.25 827.91 378.24 826.77C370.323 825.734 362.478 824.207 354.75 822.2C347.215 820.251 339.967 817.326 333.19 813.5C326.419 809.492 320.2 804.617 314.69 799C309.086 793.284 303.845 787.222 299 780.85C294 774.47 289.18 767.85 284.22 761.51C279.393 755.169 274.179 749.131 268.61 743.43C262.913 737.863 256.878 732.654 250.54 727.83C244.16 722.83 237.54 718.04 231.19 713.05C224.805 708.187 218.73 702.93 213 697.31C207.388 691.795 202.514 685.577 198.5 678.81C194.68 672.03 191.756 664.783 189.8 657.25C187.794 649.522 186.267 641.677 185.23 633.76C184.09 625.76 183.18 617.6 182.04 609.55C181 601.562 179.477 593.644 177.48 585.84C175.363 578.274 172.771 570.85 169.72 563.61C166.72 556.2 163.42 548.77 160.39 541.26C157.3 533.826 154.681 526.204 152.55 518.44C148.163 502.989 148.163 486.621 152.55 471.17C154.681 463.406 157.3 455.784 160.39 448.35C163.39 440.84 166.7 433.41 169.72 426C172.771 418.76 175.363 411.336 177.48 403.77C179.462 395.965 180.972 388.047 182 380.06C183.14 372.01 184.05 363.87 185.19 355.85C186.227 347.933 187.754 340.088 189.76 332.36C191.713 324.827 194.638 317.579 198.46 310.8C202.487 304.031 207.374 297.812 213 292.3C218.717 286.681 224.779 281.424 231.15 276.56C237.54 271.56 244.15 266.75 250.5 261.78C256.836 256.953 262.871 251.744 268.57 246.18C274.137 240.477 279.35 234.439 284.18 228.1C289.18 221.73 293.97 215.1 298.96 208.75C303.824 202.378 309.081 196.316 314.7 190.6C320.213 184.986 326.432 180.112 333.2 176.1C339.978 172.277 347.226 169.355 354.76 167.41C362.488 165.403 370.333 163.876 378.25 162.84C386.25 161.7 394.4 160.79 402.46 159.65C410.447 158.603 418.365 157.081 426.17 155.09C433.73 152.966 441.151 150.375 448.39 147.33C455.8 144.33 463.23 141.03 470.74 138C478.173 134.902 485.795 132.28 493.56 130.15C509.015 125.763 525.385 125.763 540.84 130.15C548.602 132.281 556.221 134.902 563.65 138C571.16 141 578.59 144.31 586 147.33C593.241 150.376 600.666 152.968 608.23 155.09C616.032 157.082 623.946 158.604 631.93 159.65C639.99 160.79 648.13 161.65 656.14 162.84C664.06 163.877 671.908 165.404 679.64 167.41C687.169 169.362 694.413 172.283 701.19 176.1C707.959 180.112 714.177 184.986 719.69 190.6C725.312 196.318 730.569 202.383 735.43 208.76C740.43 215.14 745.25 221.76 750.21 228.1C755.037 234.441 760.251 240.479 765.82 246.18C771.517 251.746 777.552 256.956 783.89 261.78C790.27 266.78 796.89 271.57 803.24 276.56C809.611 281.425 815.673 286.681 821.39 292.3C827.002 297.815 831.876 304.033 835.89 310.8C839.712 317.579 842.637 324.827 844.59 332.36C846.596 340.088 848.123 347.933 849.16 355.85C850.3 363.85 851.21 372.01 852.35 380.06C853.392 388.048 854.914 395.966 856.91 403.77C859.027 411.336 861.619 418.76 864.67 426C867.67 433.41 870.97 440.84 874 448.35C877.09 455.784 879.709 463.406 881.84 471.17C883.95 478.872 885.056 486.814 885.13 494.8Z" fill="#040400"/>
<path d="M885.13 494.8C885.057 502.789 883.951 510.735 881.84 518.44C879.709 526.204 877.09 533.826 874 541.26C871 548.77 867.69 556.2 864.67 563.61C861.619 570.85 859.027 578.274 856.91 585.84C854.914 593.644 853.391 601.562 852.35 609.55C851.21 617.6 850.3 625.74 849.16 633.76C848.123 641.677 846.596 649.522 844.59 657.25C842.637 664.783 839.712 672.031 835.89 678.81C831.876 685.577 827.002 691.795 821.39 697.31C815.671 702.926 809.609 708.183 803.24 713.05C796.85 718.05 790.24 722.86 783.89 727.83C771.077 737.35 759.73 748.697 750.21 761.51C745.21 767.88 740.42 774.51 735.43 780.85C730.569 787.224 725.312 793.286 719.69 799C714.18 804.614 707.961 809.485 701.19 813.49C694.413 817.316 687.165 820.241 679.63 822.19C671.902 824.197 664.057 825.724 656.14 826.76C648.14 827.9 639.99 828.81 631.93 829.95C623.946 830.996 616.032 832.518 608.23 834.51C600.666 836.635 593.241 839.23 586 842.28C578.59 845.28 571.16 848.58 563.65 851.61C556.217 854.705 548.595 857.323 540.83 859.45C525.377 863.85 509.003 863.85 493.55 859.45C485.785 857.323 478.163 854.705 470.73 851.61C463.22 848.61 455.79 845.3 448.38 842.28C441.139 839.234 433.714 836.642 426.15 834.52C418.348 832.528 410.434 831.006 402.45 829.96C394.39 828.82 386.25 827.91 378.24 826.77C370.323 825.734 362.478 824.207 354.75 822.2C347.215 820.251 339.967 817.326 333.19 813.5C326.419 809.492 320.2 804.617 314.69 799C309.086 793.284 303.845 787.222 299 780.85C294 774.47 289.18 767.85 284.22 761.51C279.393 755.169 274.179 749.131 268.61 743.43C262.913 737.863 256.878 732.654 250.54 727.83C244.16 722.83 237.54 718.04 231.19 713.05C224.805 708.187 218.73 702.93 213 697.31C207.388 691.795 202.514 685.577 198.5 678.81C194.68 672.03 191.756 664.783 189.8 657.25C187.794 649.522 186.267 641.677 185.23 633.76C184.09 625.76 183.18 617.6 182.04 609.55C181 601.562 179.477 593.644 177.48 585.84C175.363 578.274 172.771 570.85 169.72 563.61C166.72 556.2 163.42 548.77 160.39 541.26C157.3 533.826 154.681 526.204 152.55 518.44C148.163 502.989 148.163 486.621 152.55 471.17C154.681 463.406 157.3 455.784 160.39 448.35C163.39 440.84 166.7 433.41 169.72 426C172.771 418.76 175.363 411.336 177.48 403.77C179.462 395.965 180.972 388.047 182 380.06C183.14 372.01 184.05 363.87 185.19 355.85C186.227 347.933 187.754 340.088 189.76 332.36C191.713 324.827 194.638 317.579 198.46 310.8C202.487 304.031 207.374 297.812 213 292.3C218.717 286.681 224.779 281.424 231.15 276.56C237.54 271.56 244.15 266.75 250.5 261.78C256.836 256.953 262.871 251.744 268.57 246.18C274.137 240.477 279.35 234.439 284.18 228.1C289.18 221.73 293.97 215.1 298.96 208.75C303.824 202.378 309.081 196.316 314.7 190.6C320.213 184.986 326.432 180.112 333.2 176.1C339.978 172.277 347.226 169.355 354.76 167.41C362.488 165.403 370.333 163.876 378.25 162.84C386.25 161.7 394.4 160.79 402.46 159.65C410.447 158.603 418.365 157.081 426.17 155.09C433.73 152.966 441.151 150.375 448.39 147.33C455.8 144.33 463.23 141.03 470.74 138C478.173 134.902 485.795 132.28 493.56 130.15C509.015 125.763 525.385 125.763 540.84 130.15C548.602 132.281 556.221 134.902 563.65 138C571.16 141 578.59 144.31 586 147.33C593.241 150.376 600.666 152.968 608.23 155.09C616.032 157.082 623.946 158.604 631.93 159.65C639.99 160.79 648.13 161.65 656.14 162.84C664.06 163.877 671.908 165.404 679.64 167.41C687.169 169.362 694.413 172.283 701.19 176.1C707.959 180.112 714.177 184.986 719.69 190.6C725.312 196.318 730.569 202.383 735.43 208.76C740.43 215.14 745.25 221.76 750.21 228.1C755.037 234.441 760.251 240.479 765.82 246.18C771.517 251.746 777.552 256.956 783.89 261.78C790.27 266.78 796.89 271.57 803.24 276.56C809.611 281.425 815.673 286.681 821.39 292.3C827.002 297.815 831.876 304.033 835.89 310.8C839.712 317.579 842.637 324.827 844.59 332.36C846.596 340.088 848.123 347.933 849.16 355.85C850.3 363.85 851.21 372.01 852.35 380.06C853.392 388.048 854.914 395.966 856.91 403.77C859.027 411.336 861.619 418.76 864.67 426C867.67 433.41 870.97 440.84 874 448.35C877.09 455.784 879.709 463.406 881.84 471.17C883.95 478.872 885.056 486.814 885.13 494.8Z" stroke="#040400" stroke-width="3" stroke-miterlimit="10"/>
<path d="M749.06 302.55C745.88 302.017 742.703 301.453 739.53 300.86C736.35 300.27 733.19 299.63 730.03 298.96C726.87 298.29 723.73 297.59 720.59 296.85C717.45 296.11 714.33 295.33 711.22 294.52C709.66 294.12 708.09 293.687 706.51 293.22C704.94 292.74 703.37 292.22 701.82 291.6C700.269 290.992 698.756 290.291 697.29 289.5C695.797 288.69 694.373 287.76 693.03 286.72C691.679 285.651 690.422 284.471 689.27 283.19C688.098 281.878 687.035 280.473 686.09 278.99C685.115 277.448 684.259 275.833 683.53 274.16C682.771 272.413 682.137 270.616 681.63 268.78C680.532 264.744 680.017 260.572 680.1 256.39C680.188 252.07 680.827 247.779 682 243.62C683.213 239.287 684.932 235.112 687.12 231.18C689.397 227.066 692.134 223.224 695.28 219.73C698.37 216.31 701.764 213.177 705.42 210.37C708.919 207.68 712.594 205.228 716.42 203.03C720.12 200.88 723.8 199.03 727.31 197.43C730.82 195.83 734.15 194.43 737.14 193.29C740.973 191.79 744.847 190.397 748.76 189.11C752.673 187.823 756.623 186.627 760.61 185.52C764.61 184.427 768.61 183.427 772.61 182.52C776.61 181.613 780.673 180.827 784.8 180.16L783.22 179.73L781.65 179.3L780.07 178.85L778.51 178.4C776.64 177.85 774.72 177.26 772.8 176.57C770.85 175.882 768.947 175.07 767.1 174.14C765.215 173.199 763.423 172.081 761.75 170.8C760.015 169.474 758.453 167.935 757.1 166.22C755.17 163.76 753.721 160.957 752.83 157.96C751.99 155.081 751.616 152.087 751.72 149.09C751.818 146.143 752.302 143.221 753.16 140.4C753.966 137.699 755.097 135.107 756.53 132.68C757.95 130.317 759.591 128.094 761.43 126.04C763.22 124.043 765.155 122.181 767.22 120.47C769.227 118.812 771.316 117.257 773.48 115.81C775.6 114.39 777.73 113.08 779.8 111.81C789.446 106.149 799.576 101.357 810.07 97.49C831.198 89.7267 853.493 85.6114 876 85.32C887.188 85.1617 898.369 85.995 909.41 87.81L909.84 87.88L910.28 87.95L910.71 88.03L911.14 88.1C912.621 88.3549 913.962 89.1318 914.92 90.29C915.395 90.843 915.762 91.4809 916 92.17C916.237 92.8777 916.329 93.6259 916.27 94.37C916.204 95.2031 915.965 96.0135 915.57 96.75C915.176 97.4547 914.642 98.0708 914 98.56C913.373 99.0346 912.655 99.375 911.89 99.56C911.09 99.7672 910.255 99.8047 909.44 99.67H909.38C898.859 97.8239 888.192 96.9303 877.51 97C856.059 97.1251 834.792 100.962 814.65 108.34C804.633 112.018 794.968 116.59 785.77 122C784.02 123 782.23 124.13 780.45 125.31C778.67 126.49 776.91 127.76 775.23 129.13C773.544 130.486 771.963 131.967 770.5 133.56C769.045 135.14 767.752 136.862 766.64 138.7C765.764 140.197 765.056 141.787 764.53 143.44C763.982 145.169 763.646 146.959 763.53 148.77C763.399 150.574 763.558 152.387 764 154.14C764.446 155.903 765.253 157.555 766.37 158.99C767.251 160.085 768.281 161.051 769.43 161.86C770.634 162.711 771.912 163.451 773.25 164.07C774.637 164.718 776.06 165.289 777.51 165.78C778.96 166.29 780.42 166.73 781.85 167.15C785.617 168.257 789.417 169.28 793.25 170.22C797.083 171.16 800.93 172.017 804.79 172.79C808.65 173.57 812.54 174.26 816.43 174.86C820.32 175.46 824.23 175.99 828.15 176.42C828.932 176.505 829.69 176.743 830.38 177.12C831.048 177.486 831.642 177.975 832.13 178.56C833.138 179.757 833.647 181.297 833.55 182.86C833.501 183.644 833.301 184.412 832.96 185.12C832.625 185.804 832.167 186.42 831.61 186.94C831.054 187.464 830.402 187.875 829.69 188.15C828.958 188.438 828.177 188.581 827.39 188.57C820.09 188.49 812.76 188.77 805.46 189.39C798.16 190.01 790.86 190.99 783.64 192.31C776.42 193.63 769.25 195.31 762.2 197.26C755.15 199.21 748.2 201.58 741.41 204.26C737.1 205.95 733.13 207.67 729.46 209.46C725.988 211.126 722.606 212.976 719.33 215C716.393 216.811 713.58 218.815 710.91 221C708.443 223.015 706.133 225.215 704 227.58C701.518 230.337 699.342 233.355 697.51 236.58C695.772 239.648 694.393 242.906 693.4 246.29C692.453 249.495 691.925 252.809 691.83 256.15C691.73 259.348 692.108 262.543 692.95 265.63C693.281 266.856 693.702 268.056 694.21 269.22C694.686 270.333 695.244 271.41 695.88 272.44C696.472 273.415 697.141 274.341 697.88 275.21C698.596 276.028 699.386 276.777 700.24 277.45C701.178 278.179 702.182 278.819 703.24 279.36C704.335 279.93 705.463 280.431 706.62 280.86C707.8 281.31 709.03 281.71 710.3 282.08C711.57 282.45 712.86 282.8 714.17 283.14C718.903 284.367 723.667 285.517 728.46 286.59C733.253 287.663 738.067 288.643 742.9 289.53C747.733 290.43 752.577 291.243 757.43 291.97C762.28 292.69 767.15 293.33 772.01 293.87C772.841 293.962 773.642 294.232 774.36 294.66C775.048 295.071 775.646 295.615 776.12 296.26C776.594 296.914 776.934 297.655 777.12 298.44C777.295 299.267 777.295 300.122 777.12 300.95C776.962 301.668 776.663 302.348 776.24 302.95C775.826 303.542 775.308 304.054 774.71 304.46C774.101 304.87 773.424 305.168 772.71 305.34C771.985 305.525 771.233 305.576 770.49 305.49C768.703 305.29 766.913 305.077 765.12 304.85C763.34 304.63 761.55 304.39 759.77 304.14C757.99 303.89 756.2 303.63 754.41 303.36C752.62 303.09 750.84 302.85 749.06 302.55Z" fill="#FC762B" stroke="#070707" stroke-width="3" stroke-miterlimit="10" stroke-linecap="round"/>
<path d="M295.58 914.7C295.268 914.698 294.957 914.672 294.65 914.62C294.345 914.56 294.044 914.48 293.75 914.38C293.449 914.268 293.158 914.131 292.88 913.97C291.969 913.449 291.245 912.655 290.81 911.7C290.518 911.072 290.351 910.392 290.32 909.7C290.243 908.248 290.714 906.821 291.64 905.7C297.882 898.232 303.437 890.216 308.24 881.75C317.906 864.727 324.567 846.165 327.93 826.88C329.602 817.305 330.409 807.6 330.34 797.88C330.34 796.03 330.28 794.1 330.16 792.15C330.04 790.2 329.84 788.23 329.52 786.28C329.211 784.324 328.763 782.393 328.18 780.5C327.59 778.627 326.812 776.818 325.86 775.1C325.087 773.715 324.154 772.426 323.08 771.26C321.968 770.023 320.705 768.932 319.32 768.01C317.951 767.082 316.442 766.379 314.85 765.93C313.251 765.477 311.576 765.362 309.93 765.59C308.661 765.783 307.426 766.153 306.26 766.69C305.036 767.25 303.864 767.92 302.76 768.69C301.616 769.496 300.514 770.36 299.46 771.28C298.4 772.2 297.37 773.15 296.39 774.09C293.79 776.57 291.24 779.09 288.75 781.71C286.26 784.33 283.81 786.97 281.43 789.71C279.05 792.45 276.73 795.17 274.43 797.98C272.13 800.79 269.97 803.65 267.84 806.55C267.412 807.131 266.876 807.624 266.26 808C265.663 808.36 265.006 808.607 264.32 808.73C262.911 808.974 261.462 808.67 260.27 807.88C259.67 807.48 259.151 806.972 258.74 806.38C258.351 805.803 258.073 805.159 257.92 804.48C257.6 803.085 257.829 801.621 258.56 800.39C261.96 794.65 265.09 788.72 267.94 782.65C270.79 776.58 273.35 770.36 275.61 764.04C277.87 757.72 279.84 751.29 281.49 744.79C283.14 738.29 284.49 731.74 285.49 725.15C286.13 720.96 286.58 717.02 286.84 713.3C287.102 709.793 287.179 706.275 287.07 702.76C286.967 699.604 286.663 696.458 286.16 693.34C285.687 690.466 284.998 687.631 284.1 684.86C282.834 681.173 281.05 677.684 278.8 674.5C276.373 670.998 273.487 667.836 270.22 665.1C267.05 662.4 263.409 660.308 259.48 658.93C255.704 657.604 251.63 657.375 247.73 658.27C245.42 658.855 243.241 659.873 241.31 661.27C239.253 662.748 237.344 664.423 235.61 666.27C233.81 668.14 232.12 670.15 230.49 672.1C228.86 674.05 227.32 675.94 225.82 677.57C223.587 680.01 221.387 682.477 219.22 684.97C217.053 687.463 214.92 689.987 212.82 692.54C210.71 695.09 208.65 697.67 206.61 700.27C204.57 702.87 202.61 705.51 200.61 708.17C199.793 709.265 198.618 710.04 197.29 710.36C196.635 710.516 195.957 710.55 195.29 710.46C194.614 710.366 193.964 710.135 193.38 709.78C192.717 709.387 192.147 708.855 191.71 708.22C191.29 707.62 191 706.939 190.86 706.22C190.71 705.501 190.71 704.759 190.86 704.04C191.017 703.297 191.334 702.597 191.79 701.99C194.523 698.29 197.327 694.623 200.2 690.99C203.073 687.357 206.01 683.79 209.01 680.29C212.01 676.783 215.073 673.327 218.2 669.92C221.327 666.513 224.503 663.18 227.73 659.92C228.73 658.92 229.82 657.82 230.92 656.79C232.02 655.76 233.15 654.79 234.34 653.79C235.528 652.833 236.777 651.954 238.08 651.16C239.403 650.347 240.791 649.645 242.23 649.06C243.69 648.475 245.2 648.02 246.74 647.7C248.314 647.368 249.913 647.167 251.52 647.1C253.189 647.031 254.86 647.091 256.52 647.28C258.252 647.491 259.966 647.825 261.65 648.28C265.348 649.253 268.887 650.752 272.16 652.73C275.57 654.747 278.708 657.19 281.5 660C284.375 662.946 286.896 666.218 289.01 669.75C291.226 673.435 293.014 677.36 294.34 681.45C295.634 685.462 296.565 689.582 297.12 693.76C297.652 697.758 297.913 701.787 297.9 705.82C297.9 709.74 297.69 713.5 297.36 717.01C297.03 720.52 296.58 723.79 296.14 726.69C295.567 730.397 294.9 734.1 294.14 737.8C293.38 741.5 292.517 745.167 291.55 748.8C290.597 752.46 289.55 756.093 288.41 759.7C287.27 763.307 286.037 766.883 284.71 770.43L285.77 769.38L286.83 768.38L287.9 767.38L288.98 766.38C290.26 765.16 291.61 763.91 293.04 762.7C294.48 761.473 295.993 760.335 297.57 759.29C299.179 758.231 300.883 757.323 302.66 756.58C304.503 755.816 306.435 755.285 308.41 755C311.24 754.597 314.12 754.733 316.9 755.4C319.565 756.052 322.11 757.122 324.44 758.57C326.726 759.997 328.817 761.714 330.66 763.68C332.428 765.558 333.963 767.643 335.23 769.89C336.455 772.093 337.46 774.41 338.23 776.81C338.994 779.136 339.582 781.516 339.99 783.93C340.386 786.278 340.663 788.644 340.82 791.02C340.98 793.36 341.04 795.64 341.06 797.84C341.131 808.23 340.267 818.605 338.48 828.84C334.886 849.421 327.761 869.226 317.42 887.38C312.285 896.407 306.344 904.952 299.67 912.91C299.416 913.222 299.123 913.501 298.8 913.74C298.489 913.975 298.154 914.176 297.8 914.34C297.451 914.502 297.085 914.626 296.71 914.71C296.334 914.745 295.955 914.742 295.58 914.7Z" fill="url(#paint0_linear_630_154)" stroke="black" stroke-width="3" stroke-miterlimit="10" stroke-linecap="round"/>
<path d="M443.42 806.68L432.81 826.02L422.21 845.36L411.6 864.7L400.99 884.04L416.33 880.84L431.67 877.64L447.01 874.44L462.35 871.24L457.62 855.1L452.88 838.96L448.15 822.82L443.42 806.68Z" fill="#F6C34C" stroke="#070707" stroke-width="3" stroke-miterlimit="10" stroke-linecap="round"/>
<path d="M451.71 327C451.694 334.555 448.873 341.835 443.794 347.427C438.714 353.02 431.739 356.527 424.221 357.268C416.702 358.01 409.177 355.932 403.103 351.439C397.029 346.946 392.841 340.358 391.35 332.952C389.859 325.545 391.171 317.849 395.033 311.356C398.894 304.862 405.03 300.035 412.249 297.809C419.469 295.582 427.257 296.117 434.105 299.308C440.953 302.499 446.372 308.12 449.31 315.08C450.9 318.853 451.716 322.906 451.71 327Z" fill="#DBCAF4" stroke="black" stroke-width="3" stroke-miterlimit="10" stroke-linecap="round"/>
<path d="M897.06 297.41L874.64 310.12L852.22 322.83L829.8 335.54L807.38 348.24C809.8 352.96 812.223 357.673 814.65 362.38C817.077 367.087 819.5 371.797 821.92 376.51L829.19 390.65L836.47 404.79C841.517 395.837 846.563 386.887 851.61 377.94L866.76 351.1L881.91 324.25L897.06 297.41Z" fill="url(#paint1_linear_630_154)" stroke="black" stroke-width="3" stroke-miterlimit="10" stroke-linecap="round"/>
<path d="M468.08 257.57L486.41 239.17L504.73 220.76L523.06 202.36L541.38 184C546.34 191.309 549.793 199.532 551.54 208.19C553.128 216.076 553.179 224.195 551.69 232.1C550.336 239.448 547.521 246.45 543.41 252.69C539.572 258.559 534.388 263.427 528.29 266.89C523.898 269.284 519.118 270.885 514.17 271.62C509.017 272.386 503.776 272.363 498.63 271.55C493.183 270.704 487.877 269.116 482.86 266.83C477.546 264.409 472.576 261.296 468.08 257.57Z" fill="url(#paint2_linear_630_154)" stroke="black" stroke-width="3" stroke-miterlimit="10" stroke-linecap="round"/>
<path d="M349.45 222.48L337.79 205.29L326.14 188.09L314.48 170.9L302.82 153.71C300.275 149.963 298.493 145.75 297.577 141.314C296.662 136.877 296.63 132.304 297.483 127.855C298.337 123.406 300.059 119.169 302.552 115.386C305.045 111.603 308.259 108.349 312.01 105.81C315.757 103.265 319.97 101.483 324.406 100.567C328.843 99.6516 333.417 99.6196 337.866 100.473C342.315 101.327 346.552 103.049 350.334 105.542C354.117 108.035 357.371 111.249 359.91 115L371.57 132.19L383.23 149.38L394.89 166.57L406.54 183.76C409.086 187.508 410.867 191.721 411.782 196.159C412.696 200.597 412.726 205.171 411.87 209.62C411.018 214.062 409.298 218.291 406.808 222.067C404.318 225.842 401.107 229.088 397.36 231.62C393.612 234.166 389.399 235.947 384.961 236.863C380.524 237.779 375.95 237.811 371.5 236.958C367.05 236.104 362.812 234.382 359.029 231.889C355.245 229.396 351.99 226.182 349.45 222.43V222.48Z" fill="url(#paint3_linear_630_154)" stroke="black" stroke-width="3" stroke-miterlimit="10" stroke-linecap="round"/>
<path d="M397.15 753.61L390.55 754.31L383.94 755.01L377.33 755.71L370.73 756.41L373.72 751.45L376.71 746.49L379.71 741.52L382.7 736.56L373.96 734.19L365.23 731.82L356.5 729.45L347.77 727.09L355.73 724.06L363.7 721.03L371.66 718L379.63 714.97L372.22 708.54L364.82 702.1L357.41 695.67L350.01 689.24L360 690.43L369.99 691.63L379.99 692.83L389.98 694.02L389.13 688.47L388.28 682.92L387.42 677.36L386.57 671.81L392.27 675.39L397.97 678.96L403.66 682.54L409.36 686.12L413.64 676.55L417.93 666.99L422.21 657.43L426.49 647.87L427.58 658.36L428.67 668.85L429.76 679.34L430.85 689.84L438.85 684.76L446.85 679.69L454.85 674.62L462.85 669.55L459 678.36L455.14 687.17L451.29 695.98L447.44 704.8L454.4 706.78L461.36 708.76L468.31 710.74L475.27 712.72L469.12 716.38L462.96 720.03L456.81 723.69L450.65 727.34L456.32 735.53L461.99 743.72L467.66 751.9L473.33 760.09L464.14 756.71L454.94 753.33L445.75 749.96L436.55 746.58L436.98 755.97L437.41 765.37L437.84 774.76L438.27 784.15L432.75 776.53L427.23 768.91L421.71 761.29L416.2 753.66L411.2 763.82L406.2 773.98L401.21 784.14L396.21 794.29L396.45 784.12L396.68 773.95L396.92 763.78L397.15 753.61Z" fill="url(#paint4_linear_630_154)" stroke="black" stroke-width="3" stroke-miterlimit="10" stroke-linecap="round"/>
<path d="M876.8 232.04L872.75 231.28L868.71 230.51L864.66 229.75L860.62 228.99L863.28 226.58L865.94 224.17L868.6 221.76L871.26 219.35L866.51 216.38L861.75 213.42L856.99 210.46L852.24 207.5L857.5 207.12L862.76 206.75L868.03 206.37L873.29 206L870.05 200.86L866.81 195.72L863.56 190.58L860.32 185.45L866.03 187.94L871.75 190.43L877.46 192.93L883.17 195.42L883.66 191.97L884.14 188.53L884.63 185.08L885.11 181.63L887.86 184.77L890.6 187.91L893.34 191.05L896.08 194.19L900.33 189.28L904.57 184.37L908.82 179.46L913.06 174.56L911.84 180.97L910.61 187.39L909.38 193.81L908.16 200.23L913.81 198.65L919.46 197.06L925.11 195.49L930.76 193.9L926.9 198.44L923.05 202.98L919.19 207.52L915.33 212.06L919.11 214.48L922.88 216.89L926.65 219.31L930.43 221.73L926.12 222.8L921.82 223.87L917.52 224.94L913.21 226.01L915.12 231.87L917.02 237.74L918.92 243.61L920.82 249.47L915.97 245.83L911.12 242.19L906.27 238.54L901.42 234.9L900 240.55L898.58 246.19L897.15 251.84L895.73 257.49L893.82 251.99L891.91 246.48L889.99 240.98L888.08 235.47L883.3 240.6L878.53 245.74L873.75 250.87L868.98 256L870.93 250.01L872.89 244.02L874.84 238.03L876.8 232.04Z" fill="url(#paint5_linear_630_154)" stroke="black" stroke-width="3" stroke-miterlimit="10" stroke-linecap="round"/>
<path d="M858.64 433.7L857.89 433.96L857.01 434.27L856.01 434.65L854.9 435.09L851.79 436.36C850.84 436.77 849.95 437.17 849.11 437.58C848.27 437.99 847.47 438.43 846.69 438.91C845.899 439.397 845.137 439.931 844.41 440.51C843.59 441.15 842.98 441.64 842.49 442.01C842 442.38 841.66 442.65 841.38 442.84C841.172 442.992 840.951 443.126 840.72 443.24C840.524 443.328 840.324 443.404 840.12 443.47C839.004 443.849 837.821 443.991 836.647 443.888C835.473 443.785 834.333 443.438 833.3 442.87C831.001 441.598 828.965 439.902 827.3 437.87C825.489 435.73 823.841 433.457 822.37 431.07C820.94 428.79 819.73 426.66 818.8 425.07C816.349 420.922 813.612 416.949 810.61 413.18C807.771 409.636 804.607 406.366 801.16 403.41C797.725 400.488 793.983 397.946 790 395.83C785.726 393.57 781.228 391.76 776.58 390.43C771.838 389.043 766.993 388.04 762.09 387.43C757.141 386.823 752.15 386.636 747.17 386.87C742.193 387.108 737.251 387.821 732.41 389C727.604 390.179 722.943 391.882 718.51 394.08C711.524 397.614 705.268 402.435 700.07 408.29C694.985 414.021 690.761 420.462 687.53 427.41C684.358 434.185 681.963 441.296 680.39 448.61C678.91 455.317 678.139 462.161 678.09 469.03C678.09 485.03 682.55 500.58 690.17 514.94C698.087 529.526 708.525 542.594 721 553.54C733.234 564.462 747.145 573.346 762.2 579.85C776.72 586.03 791.56 589.34 805.31 588.96C812.3 588.642 819.262 587.864 826.15 586.63C833.72 585.36 841.55 583.73 848.64 582.13C855.73 580.53 862.06 578.94 866.64 577.76C871.22 576.58 874 575.76 874 575.76C874 575.76 873.87 574.43 873.64 572.2C873.41 569.97 873.08 566.83 872.71 563.2C872.34 559.57 871.91 555.51 871.48 551.39C871.05 547.27 870.62 543.1 870.22 539.32C869.79 535.32 869.41 531.69 869.04 528.32C868.67 524.95 868.32 521.71 867.96 518.43C867.6 515.15 867.23 511.82 866.82 508.15C866.41 504.48 865.97 500.48 865.46 495.9C865.047 492.207 864.593 488.12 864.1 483.64C863.6 479.17 863.1 474.31 862.5 469.1C861.9 463.89 861.31 458.31 860.67 452.4C860.03 446.49 859.35 440.27 858.64 433.7Z" fill="#D87D61" stroke="black" stroke-width="3" stroke-miterlimit="10" stroke-linecap="round"/>
<path d="M699.23 460.25C698.1 454.9 697.23 449.45 696.51 443.58C695.79 437.71 695.28 431.41 694.87 424.35C694.46 417.29 694.14 409.46 693.87 400.54C693.6 391.62 693.36 381.6 693.09 370.16C692.957 364.587 692.863 359.273 692.81 354.22C692.74 349.22 692.71 344.41 692.71 339.95C692.71 335.49 692.71 331.34 692.71 327.53C692.71 323.72 692.78 320.25 692.83 317.16C692.09 314.64 691.424 312.227 690.83 309.92C690.22 307.61 689.68 305.41 689.19 303.32C688.7 301.23 688.27 299.25 687.89 297.41C687.51 295.57 687.17 293.83 686.89 292.24C686.64 290.91 686.42 289.65 686.22 288.45C686.02 287.25 685.83 286.1 685.66 284.99C685.49 283.88 685.36 282.81 685.23 281.75C685.1 280.69 685.01 279.65 684.93 278.62C684.83 277.28 684.74 275.93 684.67 274.62C684.6 273.31 684.55 271.93 684.52 270.62C684.49 269.31 684.52 267.93 684.52 266.62C684.52 265.31 684.52 263.93 684.58 262.62C684.58 261.62 684.58 260.19 684.65 258.62C684.698 256.94 684.888 255.268 685.22 253.62C685.471 252.148 686.105 250.768 687.06 249.62C687.554 249.119 688.175 248.761 688.857 248.585C689.538 248.409 690.255 248.421 690.93 248.62C691.753 248.798 692.507 249.212 693.1 249.81C693.724 250.435 694.232 251.167 694.6 251.97C694.987 252.794 695.278 253.66 695.47 254.55C695.644 255.359 695.731 256.183 695.73 257.01C695.88 259.82 696.13 262.24 696.44 264.32C696.696 266.108 697.063 267.878 697.54 269.62C697.882 270.855 698.334 272.056 698.89 273.21C699.273 274.009 699.757 274.755 700.33 275.43L700.5 275.6L700.69 275.76L700.9 275.91L701.13 276.05C701.543 276.279 701.983 276.454 702.44 276.57C702.895 276.679 703.362 276.732 703.83 276.73C704.299 276.728 704.765 276.671 705.22 276.56C705.681 276.439 706.127 276.268 706.55 276.05L706.72 275.96L706.89 275.86L707.06 275.76L707.23 275.66C708.248 275.009 709.139 274.179 709.86 273.21C710.565 272.252 711.143 271.206 711.58 270.1C712.024 268.992 712.385 267.852 712.66 266.69C712.94 265.55 713.16 264.4 713.37 263.33C713.58 262.26 713.76 260.96 713.88 259.92C714 258.88 714.06 257.92 714.1 257.16C714.14 256.4 714.1 255.73 714.1 255.27C714.1 254.81 714.1 254.53 714.1 254.48C714.02 252.48 713.947 250.307 713.88 247.96C713.81 245.61 713.75 243.06 713.69 240.33C713.63 237.6 713.56 234.68 713.5 231.58C713.44 228.48 713.37 225.18 713.31 221.7C713.155 220.537 713.128 219.359 713.23 218.19C713.318 217.123 713.54 216.072 713.89 215.06C714.209 214.137 714.671 213.269 715.26 212.49C715.806 211.765 716.485 211.151 717.26 210.68L717.82 210.39C718.048 210.284 718.282 210.19 718.52 210.11C718.792 210.021 719.07 209.948 719.35 209.89C719.68 209.822 720.014 209.779 720.35 209.76C720.35 209.76 720.35 209.57 720.35 209.27C720.392 208.856 720.458 208.446 720.55 208.04C720.669 207.499 720.836 206.971 721.05 206.46C721.288 205.904 721.601 205.382 721.98 204.91C722.028 204.846 722.082 204.785 722.14 204.73L722.47 204.41C722.61 204.29 722.77 204.15 722.96 204.01C723.166 203.868 723.379 203.737 723.6 203.62C724.298 203.266 725.067 203.075 725.85 203.06C726.569 203.042 727.287 203.129 727.98 203.32C728.543 203.472 729.092 203.673 729.62 203.92C730.05 204.12 730.35 204.29 730.45 204.35C730.55 204.41 730.51 204.25 730.62 204.1C730.73 203.95 730.89 203.73 731.08 203.5C731.27 203.27 731.48 203.01 731.71 202.76C731.922 202.525 732.153 202.308 732.4 202.11C732.796 201.806 733.243 201.576 733.72 201.43C734.145 201.298 734.585 201.217 735.03 201.19C735.363 201.165 735.697 201.165 736.03 201.19L736.48 201.25C737.643 201.493 738.682 202.141 739.41 203.08C740.178 204.08 740.764 205.207 741.14 206.41C741.545 207.681 741.879 208.973 742.14 210.28C742.41 211.55 742.64 212.75 742.92 213.72C743.3 213.389 743.724 213.113 744.18 212.9C745.131 212.423 746.225 212.316 747.25 212.6C748.45 212.94 749.78 213.9 751.07 216.03C752.36 218.16 753.58 221.45 754.58 226.44C754.72 227.13 754.85 227.78 754.97 228.35C755.09 228.92 755.2 229.44 755.3 229.86C755.4 230.28 755.47 230.62 755.52 230.86C755.57 231.1 755.6 231.21 755.6 231.21C755.86 233.93 756.09 236.77 756.28 239.71C756.47 242.65 756.61 245.71 756.7 248.83C756.79 251.95 756.82 255.22 756.79 258.56C756.76 261.9 756.66 265.32 756.48 268.84C756.3 272.36 756.06 275.91 755.76 279.29C755.46 282.67 755.09 285.95 754.68 289.13C754.27 292.31 753.82 295.36 753.33 298.32C752.84 301.28 752.33 304.11 751.78 306.83C754.1 317.53 756.417 328.233 758.73 338.94L765.73 371.05L772.73 403.16C775.037 413.72 777.35 424.333 779.67 435L814.81 486.1L840.26 523.1L855.74 545.6L860.96 553.19C860.96 553.19 861.58 554.19 862.54 556C863.5 557.81 864.82 560.27 866.21 563.23C867.6 566.19 869.07 569.59 870.35 573.16C871.65 576.704 872.653 580.35 873.35 584.06V584.24V584.47C873.35 584.55 873.35 584.63 873.4 584.73C873.45 584.83 873.4 584.92 873.4 585.02C873.956 588.588 874.106 592.208 873.85 595.81C873.61 599.186 873.065 602.533 872.22 605.81C871.465 608.733 870.482 611.591 869.28 614.36C868.306 616.623 867.138 618.798 865.79 620.86C863.219 624.614 859.937 627.828 856.13 630.32C852.195 632.89 847.916 634.89 843.42 636.26C838.869 637.668 834.172 638.551 829.42 638.89C824.946 639.241 820.447 639.076 816.01 638.4C809.423 637.337 803.179 634.741 797.78 630.82C792.05 626.82 786.53 621.2 780.83 614.03C774.331 605.595 768.321 596.794 762.83 587.67C756.38 577.24 749.35 565.16 741.35 551.36C735.35 540.95 730.06 531.85 725.44 523.59C720.82 515.33 717 508 713.58 501C710.35 494.413 707.485 487.653 705 480.75C702.619 474.054 700.692 467.205 699.23 460.25Z" fill="#F2B3C1" stroke="black" stroke-width="3" stroke-miterlimit="10" stroke-linecap="round"/>
<path d="M602 582.1L624.49 616.77L647 651.44L669.49 686.12L691.98 720.79C691.98 720.79 699.61 717.47 711.73 711.9C723.85 706.33 740.46 698.52 758.41 689.54C776.36 680.56 795.66 670.4 813.15 660.16C830.64 649.92 846.32 639.59 857.05 630.25C858.23 629.25 859.62 627.97 861.12 626.47C862.764 624.819 864.31 623.072 865.75 621.24C867.423 619.106 868.925 616.842 870.24 614.47C871.718 611.803 872.927 608.996 873.85 606.09C874.814 603.077 875.455 599.969 875.76 596.82C876.032 593.944 876.056 591.05 875.83 588.17C875.615 585.484 875.241 582.812 874.71 580.17C874.22 577.63 873.63 575.17 873.07 572.91C871.161 565.16 868.369 557.654 864.75 550.54C861.636 544.435 857.985 538.618 853.84 533.16C850.568 528.852 847.017 524.763 843.21 520.92C840.03 517.7 837.37 515.36 835.72 513.92C832.13 510.796 828.36 507.884 824.43 505.2C820.8 502.72 817.36 500.65 814.26 498.95C811.16 497.25 808.38 495.95 806.1 494.89C803.82 493.83 802 493.15 800.82 492.7L799.27 492.14C798.27 491.79 796.86 491.3 795.14 490.76C793.42 490.22 791.41 489.62 789.22 489.03C787.03 488.44 784.69 487.89 782.3 487.43C775.002 486.133 767.57 485.764 760.18 486.33C751.344 486.954 742.578 488.339 733.98 490.47C724.292 492.843 714.787 495.911 705.54 499.65C686.226 507.427 668.059 517.795 651.54 530.47C644.327 536.016 637.442 541.976 630.92 548.32C624.77 554.32 619.33 560.25 614.53 565.95C609.73 571.65 605.51 577.11 602 582.1Z" fill="#ECE7E1" stroke="black" stroke-width="3" stroke-miterlimit="10" stroke-linecap="round"/>
<path d="M895 521.47C900.602 517.825 905.577 513.297 909.73 508.06C914.059 502.686 917.524 496.671 920 490.23C922.457 483.978 923.67 477.307 923.57 470.59C923.447 463.938 921.589 457.433 918.18 451.72C914.842 446.201 910.269 441.532 904.82 438.08C899.312 434.612 893.158 432.295 886.73 431.27C879.928 430.175 872.983 430.314 866.23 431.68C858.966 433.138 852.009 435.845 845.67 439.68C845.18 439.97 844.67 440.27 844.23 440.57L842.83 441.5C842.36 441.82 841.91 442.13 841.45 442.5L840.11 443.5L837.75 442.33L835.39 441.15L833 440L830.64 438.82V445.52C830.64 446.64 830.64 447.75 830.64 448.87V452.22C830.64 452.41 830.3 452.79 829.77 453.28C829.24 453.77 828.54 454.35 827.77 454.93C827 455.51 826.29 456.1 825.68 456.58C825.248 456.889 824.834 457.223 824.44 457.58C823.513 458.56 822.633 459.58 821.8 460.64C820.964 461.696 820.183 462.794 819.46 463.93C818.732 465.064 818.064 466.235 817.46 467.44C816.853 468.643 816.312 469.878 815.84 471.14C814.652 474.331 813.941 477.681 813.73 481.08C813.524 484.468 813.749 487.869 814.4 491.2C815.035 494.555 816.041 497.828 817.4 500.96C818.755 504.085 820.431 507.061 822.4 509.84C826.36 515.392 831.478 520.018 837.4 523.4C843.193 526.691 849.56 528.85 856.16 529.76C862.816 530.696 869.583 530.466 876.16 529.08C882.849 527.705 889.233 525.126 895 521.47Z" fill="#F2B3C1" stroke="black" stroke-width="3" stroke-miterlimit="10" stroke-linecap="round"/>
<path d="M854.87 458.92C854.537 459.108 854.17 459.227 853.79 459.27C853.422 459.318 853.047 459.291 852.69 459.19C852.327 459.093 851.987 458.925 851.69 458.695C851.393 458.464 851.144 458.177 850.96 457.85C850.772 457.523 850.65 457.162 850.602 456.788C850.554 456.414 850.581 456.034 850.68 455.67C850.773 455.308 850.936 454.969 851.16 454.67C851.396 454.367 851.688 454.113 852.02 453.92C852.353 453.73 852.72 453.608 853.1 453.56C853.468 453.521 853.841 453.548 854.2 453.64C854.562 453.736 854.902 453.903 855.2 454.13C855.504 454.364 855.759 454.656 855.949 454.989C856.14 455.322 856.262 455.689 856.31 456.07C856.353 456.438 856.326 456.812 856.23 457.17C856.135 457.533 855.968 457.872 855.74 458.17C855.506 458.478 855.209 458.734 854.87 458.92Z" fill="#040400"/>
<path d="M829.71 465.74C829.86 465.74 830.27 465.68 830.85 465.67C831.581 465.661 832.311 465.721 833.03 465.85C833.977 466.005 834.899 466.288 835.77 466.69C836.809 467.171 837.759 467.823 838.58 468.62C839.216 469.249 839.767 469.959 840.22 470.73C840.6 471.362 840.912 472.032 841.15 472.73C841.332 473.289 841.472 473.861 841.57 474.44C841.63 474.791 841.67 475.145 841.69 475.5" stroke="black" stroke-width="3" stroke-miterlimit="10" stroke-linecap="round"/>
<path d="M863.92 443.81L865.62 447.88L867.32 451.95L869.01 456.02L870.71 460.09" stroke="black" stroke-width="3" stroke-miterlimit="10" stroke-linecap="round"/>
<path d="M861.44 489.84C860.425 490.423 859.303 490.794 858.14 490.93C857.018 491.066 855.881 490.985 854.79 490.69C853.705 490.387 852.687 489.881 851.79 489.2C850.86 488.491 850.082 487.604 849.5 486.59C848.926 485.593 848.555 484.492 848.409 483.35C848.263 482.209 848.345 481.05 848.65 479.94C848.944 478.853 849.447 477.835 850.13 476.94C850.842 476.01 851.733 475.232 852.75 474.65C853.765 474.067 854.888 473.696 856.05 473.56C857.76 473.357 859.492 473.66 861.031 474.431C862.57 475.203 863.849 476.409 864.71 477.9C865.294 478.918 865.665 480.044 865.8 481.21C865.938 482.329 865.853 483.464 865.55 484.55C865.256 485.636 864.753 486.655 864.07 487.55C863.355 488.481 862.461 489.26 861.44 489.84Z" fill="#FF6406" stroke="#070707" stroke-width="3" stroke-miterlimit="10" stroke-linecap="round"/>
<path d="M883.2 527.07C883.89 526.82 884.6 526.56 885.33 526.27C886.06 525.98 886.8 525.67 887.56 525.34C888.32 525.01 889.1 524.65 889.88 524.27C890.66 523.89 891.47 523.48 892.28 523.04C893.787 522.22 895.213 521.377 896.56 520.51C897.907 519.643 899.163 518.773 900.33 517.9C901.5 517.03 902.58 516.15 903.58 515.3C904.58 514.45 905.51 513.6 906.35 512.8C906.794 513.287 907.211 513.798 907.6 514.33C908.124 515.041 908.589 515.793 908.99 516.58C909.437 517.476 909.773 518.423 909.99 519.4C910.232 520.459 910.293 521.551 910.17 522.63C909.89 524.644 909.032 526.534 907.7 528.07C906.289 529.732 904.558 531.093 902.61 532.07C900.618 533.107 898.452 533.768 896.22 534.02C894.066 534.279 891.881 534.015 889.85 533.25C888.991 532.907 888.175 532.464 887.42 531.93C886.738 531.446 886.105 530.897 885.53 530.29C885.02 529.754 884.549 529.183 884.12 528.58C883.787 528.094 883.479 527.589 883.2 527.07Z" fill="#F2B3C1" stroke="black" stroke-width="3" stroke-miterlimit="10" stroke-linecap="round"/>
<path d="M602 582.1C589.66 568.353 578.417 555.687 568.27 544.1C558.123 532.513 549.033 521.92 541 512.32C533 502.747 526 494.16 520 486.56C514 478.96 509.023 472.277 505.07 466.51C503.43 464.14 501.56 461.35 499.37 458.34C497.18 455.33 494.69 452.08 491.8 448.8C488.738 445.313 485.419 442.061 481.87 439.07C477.903 435.745 473.627 432.809 469.1 430.3C467.33 429.3 464.82 428.04 462.1 426.65C459.38 425.26 456.3 423.77 453.49 422.41C450.68 421.05 448.1 419.8 446.22 418.9L443.15 417.43L394.2 393L345.31 368.52L296.42 344L247.53 319.52L230.93 350.45L214.32 381.38L197.72 412.31L181.11 443.24L238.11 467.71L295.11 492.17L352.11 516.64L409.06 541.11C422.01 566.18 434.18 589.6 445.38 611C456.58 632.4 466.79 651.77 475.83 668.75C484.87 685.73 492.72 700.33 499.18 712.15C505.64 723.97 510.61 733 514.1 739C514.57 739.81 515.2 740.87 516.01 742.13C516.82 743.39 517.81 744.84 519.01 746.41C520.21 747.98 521.59 749.68 523.2 751.41C524.922 753.292 526.755 755.068 528.69 756.73C533.195 760.6 538.188 763.865 543.54 766.44C548.207 768.692 553.084 770.48 558.1 771.78C562.122 772.828 566.212 773.597 570.34 774.08C573.8 774.49 576.54 774.62 578.21 774.69C581.21 774.8 583.98 774.76 586.61 774.6C589.24 774.44 591.72 774.18 594.03 773.85C596.34 773.52 598.5 773.12 600.51 772.7C602.52 772.28 604.37 771.86 606.09 771.45C609.49 770.66 612.63 769.76 615.57 768.81C618.51 767.86 621.24 766.81 623.81 765.81C626.38 764.81 628.81 763.67 631.08 762.59C633.35 761.51 635.54 760.42 637.65 759.37C641.45 757.46 644.96 755.54 648.23 753.62C651.5 751.7 654.53 749.78 657.36 747.89C660.19 746 662.82 744.15 665.3 742.34C667.78 740.53 670.11 738.78 672.3 737.1C674.49 735.42 676.36 733.99 678.22 732.51C680.08 731.03 681.84 729.58 683.48 728.21C685.12 726.84 686.64 725.52 688.05 724.29C689.46 723.06 690.75 721.91 691.92 720.85L669.43 686.18C661.937 674.58 654.46 663 647 651.44C639.54 639.88 632.043 628.323 624.51 616.77C616.977 605.21 609.473 593.653 602 582.1Z" fill="#84A1E5" stroke="#070707" stroke-width="3" stroke-miterlimit="10" stroke-linecap="round"/>
<path d="M428.13 440.74C427.279 447.705 426.991 454.728 427.27 461.74C427.601 469.53 428.867 477.252 431.04 484.74C433.079 491.835 436.009 498.642 439.76 505C443.305 511.008 447.682 516.486 452.76 521.27C457.625 525.863 463.209 529.629 469.29 532.42C472.063 533.674 474.937 534.695 477.88 535.47C480.647 536.188 483.466 536.693 486.31 536.98C489.005 537.248 491.714 537.328 494.42 537.22C496.979 537.123 499.531 536.872 502.06 536.47C502.307 542.066 503.094 547.625 504.41 553.07C505.543 557.819 507.034 562.476 508.87 567C510.373 570.653 512.086 574.215 514 577.67C515.63 580.67 517.11 582.93 518.17 584.49C521.808 589.826 525.98 594.778 530.62 599.27C535.298 603.806 540.401 607.881 545.86 611.44C551.381 615.052 557.23 618.136 563.33 620.65C569.512 623.203 575.92 625.168 582.47 626.52C587.716 627.596 593.033 628.285 598.38 628.58C603.295 628.851 608.224 628.785 613.13 628.38C617.628 628.006 622.1 627.362 626.52 626.45C627.78 626.19 629 625.9 630.21 625.61L624.48 616.77L624.02 616.07C619.403 617.022 614.725 617.647 610.02 617.94C595.452 618.892 580.86 616.497 567.36 610.94C561.887 608.689 556.638 605.93 551.68 602.7C546.779 599.502 542.198 595.838 538 591.76C533.847 587.747 530.114 583.321 526.86 578.55C525.86 577.11 524.52 574.98 523.01 572.24C521.251 569.024 519.688 565.705 518.33 562.3C516.653 558.08 515.316 553.733 514.33 549.3C513.208 544.275 512.601 539.148 512.52 534L512.66 533.95H512.8H512.94L513.08 533.9C515.08 533.26 516.91 532.59 518.59 531.9C520.27 531.21 521.8 530.54 523.15 529.9C524.5 529.26 525.66 528.65 526.62 528.13C527.58 527.61 528.33 527.13 528.85 526.85C533.032 524.316 536.931 521.343 540.48 517.98C541.48 517.07 542.37 516.13 543.28 515.16L541 512.32C539.43 510.46 537.92 508.65 536.44 506.86C535.44 508.01 534.35 509.13 533.23 510.19C530.233 513.044 526.934 515.562 523.39 517.7C523.02 517.92 522.52 518.22 521.89 518.57C521.26 518.92 520.52 519.32 519.66 519.75C518.8 520.18 517.84 520.65 516.77 521.12C515.7 521.59 514.54 522.12 513.28 522.56C513.41 521.69 513.56 520.8 513.73 519.92C513.9 519.04 514.08 518.14 514.28 517.24C514.48 516.34 514.71 515.44 514.95 514.54C515.19 513.64 515.46 512.72 515.75 511.81C516.35 509.88 517.03 507.99 517.75 506.12C518.47 504.25 519.34 502.43 520.25 500.64C521.16 498.85 522.15 497.1 523.25 495.38C523.8 494.5 524.36 493.64 524.94 492.78C523.23 490.64 521.58 488.56 520 486.56L518.12 484.14C516.76 485.99 515.47 487.88 514.27 489.82C513.07 491.76 511.92 493.82 510.87 495.82C509.82 497.82 508.87 499.97 508 502.11C507.13 504.25 506.35 506.42 505.66 508.63C505.2 510.09 504.79 511.55 504.43 512.99C504.07 514.43 503.74 515.87 503.43 517.29C503.12 518.71 502.92 520.13 502.72 521.53C502.52 522.93 502.37 524.31 502.24 525.68C500.044 526.106 497.822 526.393 495.59 526.54C493.23 526.715 490.86 526.715 488.5 526.54C486.008 526.357 483.535 525.962 481.11 525.36C478.531 524.725 476.017 523.852 473.6 522.75C468.406 520.368 463.649 517.13 459.53 513.17C455.196 509.011 451.475 504.257 448.48 499.05C445.274 493.503 442.775 487.577 441.04 481.41C439.184 474.852 438.1 468.1 437.81 461.29C437.546 454.756 437.813 448.211 438.61 441.72C439.408 435.221 440.58 428.774 442.12 422.41C442.507 420.783 442.91 419.163 443.33 417.55L443.07 417.42L433.71 412.74C433.06 415.18 432.42 417.64 431.84 420.12C430.215 426.918 428.976 433.802 428.13 440.74Z" fill="#C6FCDB" stroke="black" stroke-width="3" stroke-miterlimit="10" stroke-linecap="round"/>
<path d="M362 503.14C363.779 499.192 365.312 495.138 366.59 491C367.9 486.752 368.86 482.404 369.46 478C370.088 473.327 370.215 468.6 369.84 463.9C369.489 459.434 368.633 455.023 367.29 450.75C366.02 446.629 364.243 442.683 362 439C359.819 435.456 357.164 432.226 354.11 429.4C351.359 426.876 348.318 424.687 345.05 422.88C341.58 420.969 337.916 419.433 334.12 418.3C329.908 417.04 325.595 416.144 321.23 415.62C316.28 415.024 311.295 414.76 306.31 414.83C301.917 414.87 297.633 415.097 293.46 415.51C289.29 415.92 285.23 416.51 281.31 417.3C277.471 418.057 273.676 419.018 269.94 420.18C266.367 421.293 262.861 422.612 259.44 424.13C259.7 423.39 259.95 422.64 260.19 421.88C260.42 421.13 260.65 420.36 260.85 419.59C261.05 418.82 261.24 418.05 261.4 417.26C261.56 416.47 261.71 415.69 261.84 414.89C262.254 412.245 262.385 409.563 262.23 406.89C262.087 404.379 261.658 401.893 260.95 399.48C260.274 397.178 259.309 394.97 258.08 392.91C256.893 390.913 255.429 389.095 253.73 387.51C251.526 385.455 248.968 383.815 246.18 382.67C243.226 381.466 240.101 380.737 236.92 380.51C233.301 380.252 229.665 380.433 226.09 381.05C221.912 381.762 217.805 382.846 213.82 384.29L212.46 384.8L204.54 399.55L205.73 398.99C209.53 397.243 213.41 395.663 217.37 394.25C219.558 393.461 221.788 392.794 224.05 392.25C226.628 391.612 229.259 391.207 231.91 391.04C234.557 390.847 237.219 391.063 239.8 391.68C242.308 392.275 244.623 393.496 246.53 395.23C247.751 396.363 248.766 397.7 249.53 399.18C250.275 400.65 250.829 402.21 251.18 403.82C251.521 405.411 251.705 407.033 251.73 408.66C251.76 410.186 251.66 411.711 251.43 413.22C251.132 415.058 250.704 416.872 250.15 418.65C249.574 420.463 248.906 422.245 248.15 423.99C247.4 425.75 246.58 427.49 245.72 429.22C244.86 430.95 243.97 432.67 243.09 434.37L240.52 439.31L237.96 444.25L235.39 449.25L232.82 454.19L237.34 450.93L241.85 447.66L246.36 444.4L250.87 441.13C254.463 438.548 258.289 436.308 262.3 434.44C266.556 432.453 270.967 430.818 275.49 429.55C280.336 428.201 285.272 427.198 290.26 426.55C295.615 425.844 301.009 425.47 306.41 425.43C310.719 425.372 315.028 425.586 319.31 426.07C323.031 426.48 326.71 427.203 330.31 428.23C333.5 429.135 336.584 430.379 339.51 431.94C342.202 433.386 344.704 435.159 346.96 437.22C349.371 439.461 351.452 442.034 353.14 444.86C354.91 447.839 356.31 451.022 357.31 454.34C358.372 457.838 359.043 461.444 359.31 465.09C359.601 468.914 359.494 472.758 358.99 476.56C358.449 480.516 357.576 484.42 356.38 488.23C355.202 491.976 353.803 495.65 352.19 499.23C350.6 502.77 348.86 506.17 347.09 509.37C346.31 510.783 345.523 512.157 344.73 513.49L351.99 516.6L354.51 517.69C355.18 516.54 355.84 515.38 356.51 514.19C358.42 510.73 360.3 507 362 503.14Z" fill="#C6FCDB" stroke="black" stroke-width="3" stroke-miterlimit="10" stroke-linecap="round"/>
<path d="M628 726C621.719 717.168 614.151 709.324 605.55 702.73C597.326 696.387 587.877 691.814 577.8 689.3C572.661 688.072 567.379 687.551 562.1 687.75C556.964 687.961 551.883 688.883 547 690.49C542.026 692.138 537.297 694.449 532.94 697.36C528.344 700.443 524.149 704.084 520.45 708.2C516.093 713.046 512.394 718.446 509.45 724.26C508.85 725.43 508.29 726.63 507.76 727.84C510.25 732.29 512.38 736.01 514.12 738.96C514.24 739.18 514.39 739.42 514.54 739.68C515.656 736 517.095 732.427 518.84 729C521.368 724.027 524.542 719.41 528.28 715.27C531.33 711.858 534.789 708.835 538.58 706.27C542.163 703.864 546.05 701.948 550.14 700.57C554.149 699.231 558.327 698.46 562.55 698.28C566.863 698.095 571.182 698.513 575.38 699.52C584.318 701.782 592.67 705.924 599.88 711.67C607.547 717.748 614.285 724.914 619.88 732.94C625.674 741.134 630.484 749.982 634.21 759.3C634.4 759.76 634.56 760.22 634.74 760.68L637.6 759.26C639.91 758.1 642.11 756.93 644.22 755.76C644.11 755.47 644.01 755.18 643.89 754.89C639.779 744.654 634.444 734.953 628 726Z" fill="#C6FCDB" stroke="black" stroke-width="3" stroke-miterlimit="10" stroke-linecap="round"/>
<path d="M515.17 636.51C513.985 635.134 512.42 634.138 510.671 633.647C508.923 633.156 507.068 633.192 505.34 633.75C504.165 634.122 503.08 634.731 502.15 635.54C500.776 636.725 499.781 638.288 499.29 640.035C498.798 641.781 498.832 643.634 499.386 645.362C499.941 647.089 500.992 648.616 502.408 649.75C503.824 650.884 505.543 651.576 507.35 651.74C508.579 651.846 509.816 651.706 510.99 651.33C512.166 650.954 513.254 650.345 514.19 649.54C516.039 647.944 517.183 645.682 517.37 643.246C517.557 640.811 516.774 638.4 515.19 636.54L515.17 636.51Z" fill="#C6FCDB" stroke="black" stroke-width="3" stroke-miterlimit="10" stroke-linecap="round"/>
<path d="M602 582.1L580.48 557.42L558.95 532.73L537.4 508.05L515.88 483.36C513.789 480.974 511.572 478.701 509.24 476.55C503.646 471.312 497.561 466.623 491.07 462.55C482.714 457.221 473.543 453.292 463.92 450.92C452.886 448.248 441.357 448.385 430.39 451.32L369.15 470.85L307.91 490.38L246.68 509.9L185.44 529.43L196.72 564.54L208 599.61L219.28 634.72L230.56 669.82L279.75 650.24L328.94 630.65L378.13 611.06L427.32 591.47L450.09 630.21L472.85 668.94L495.62 707.68L518.38 746.42C521.51 750.384 525.109 753.954 529.1 757.05C538.569 764.605 549.62 769.927 561.43 772.62C575.83 775.92 593.88 775.97 615.62 768.69C637.36 761.41 662.77 746.8 691.93 720.79L669.44 686.12L647 651.44L624.51 616.77L602 582.1Z" fill="#84A1E5" stroke="#070707" stroke-width="3" stroke-miterlimit="10" stroke-linecap="round"/>
<path d="M630.19 625.61C633.04 624.92 635.77 624.15 638.35 623.32C641.17 622.42 643.81 621.45 646.28 620.46C648.75 619.47 651.02 618.46 653.11 617.46C655.2 616.46 657.11 615.46 658.74 614.57C660.37 613.68 661.87 612.78 663.1 612.02C663.706 611.654 664.23 611.167 664.64 610.59C665.431 609.466 665.757 608.079 665.55 606.72C665.441 606.012 665.193 605.332 664.82 604.72C664.448 604.118 663.958 603.598 663.38 603.19C662.825 602.793 662.196 602.511 661.53 602.36C660.875 602.206 660.196 602.179 659.53 602.28C658.82 602.383 658.139 602.631 657.53 603.01C654.394 604.925 651.148 606.655 647.81 608.19C642.554 610.618 637.114 612.625 631.54 614.19C629.14 614.86 626.62 615.48 623.98 616.02L624.44 616.72L630.19 625.61Z" fill="#C6FCDB" stroke="black" stroke-width="3" stroke-miterlimit="10" stroke-linecap="round"/>
<path d="M427.27 461.76C427.601 469.55 428.867 477.272 431.04 484.76C433.08 491.848 436.01 498.649 439.76 505C443.306 511.009 447.682 516.486 452.76 521.27C457.626 525.863 463.209 529.629 469.29 532.42C472.063 533.674 474.937 534.695 477.88 535.47C480.647 536.188 483.466 536.693 486.31 536.98C489.005 537.248 491.714 537.328 494.42 537.22C496.979 537.123 499.531 536.872 502.06 536.47C502.307 542.066 503.094 547.625 504.41 553.07C505.543 557.819 507.034 562.476 508.87 567C510.373 570.653 512.086 574.215 514 577.67C515.63 580.67 517.11 582.93 518.17 584.49C521.808 589.826 525.98 594.778 530.62 599.27C535.298 603.806 540.401 607.882 545.86 611.44C551.381 615.052 557.23 618.136 563.33 620.65C569.512 623.203 575.92 625.168 582.47 626.52C587.716 627.596 593.033 628.285 598.38 628.58C603.295 628.851 608.224 628.785 613.13 628.38C617.628 628.006 622.1 627.362 626.52 626.45C627.78 626.19 629 625.9 630.21 625.61L624.48 616.77L624.02 616.07C619.403 617.022 614.725 617.647 610.02 617.94C595.452 618.892 580.86 616.497 567.36 610.94C561.887 608.689 556.638 605.93 551.68 602.7C546.779 599.502 542.198 595.838 538 591.76C533.847 587.747 530.115 583.321 526.86 578.55C525.86 577.11 524.52 574.98 523.01 572.24C521.251 569.024 519.688 565.705 518.33 562.3C516.653 558.08 515.316 553.733 514.33 549.3C513.208 544.275 512.601 539.148 512.52 534L512.66 533.95H512.8H512.94L513.08 533.9C515.08 533.26 516.91 532.59 518.59 531.9C520.27 531.21 521.8 530.54 523.15 529.9C524.5 529.26 525.66 528.65 526.62 528.13C527.58 527.61 528.33 527.13 528.85 526.85C533.032 524.316 536.931 521.343 540.48 517.98C541.48 516.98 542.48 516.04 543.39 514.98L537.39 508.11L536.39 506.96C535.39 508.1 534.31 509.2 533.21 510.25C530.213 513.104 526.914 515.623 523.37 517.76C523 517.98 522.5 518.28 521.87 518.63C521.24 518.98 520.5 519.38 519.64 519.81C518.78 520.24 517.82 520.71 516.75 521.18C515.68 521.65 514.52 522.18 513.26 522.62C513.39 521.75 513.54 520.86 513.71 519.98C513.88 519.1 514.06 518.2 514.26 517.3C514.46 516.4 514.69 515.5 514.93 514.6C515.17 513.7 515.44 512.78 515.73 511.87C516.33 509.94 517.01 508.05 517.73 506.18C518.45 504.31 519.32 502.49 520.23 500.7C521.14 498.91 522.13 497.16 523.23 495.44C523.66 494.75 524.11 494.07 524.56 493.39L517.4 485.19C516.3 486.72 515.24 488.28 514.25 489.88C513.03 491.88 511.897 493.88 510.85 495.88C509.85 497.94 508.85 500.03 507.98 502.17C507.11 504.31 506.33 506.48 505.64 508.69C505.18 510.15 504.77 511.61 504.41 513.05C504.05 514.49 503.72 515.93 503.41 517.35C503.1 518.77 502.9 520.19 502.7 521.59C502.5 522.99 502.35 524.37 502.22 525.74C500.024 526.166 497.803 526.453 495.57 526.6C493.21 526.775 490.84 526.775 488.48 526.6C485.988 526.417 483.515 526.022 481.09 525.42C478.511 524.785 475.997 523.912 473.58 522.81C468.386 520.428 463.63 517.19 459.51 513.23C455.176 509.071 451.455 504.317 448.46 499.11C445.254 493.563 442.755 487.637 441.02 481.47C439.164 474.912 438.08 468.16 437.79 461.35C437.625 457.491 437.655 453.626 437.88 449.77C435.343 450.147 432.828 450.668 430.35 451.33L427.2 452.33C427.13 455.43 427.13 458.6 427.27 461.76Z" fill="#C6FCDB" stroke="black" stroke-width="3" stroke-miterlimit="10" stroke-linecap="round"/>
<path d="M643.93 754.94C639.81 744.684 634.461 734.967 628 726C621.719 717.168 614.152 709.324 605.55 702.73C597.326 696.387 587.878 691.814 577.8 689.3C572.661 688.072 567.38 687.551 562.1 687.75C556.964 687.961 551.883 688.883 547 690.49C542.026 692.138 537.297 694.449 532.94 697.36C528.344 700.443 524.149 704.084 520.45 708.2C516.093 713.046 512.394 718.446 509.45 724.26C508.81 725.52 508.21 726.8 507.64 728.1L514.51 739.78C515.63 736.065 517.079 732.457 518.84 729C521.368 724.027 524.542 719.41 528.28 715.27C531.33 711.858 534.79 708.835 538.58 706.27C542.163 703.864 546.051 701.948 550.14 700.57C554.15 699.231 558.327 698.46 562.55 698.28C566.864 698.095 571.182 698.513 575.38 699.52C584.318 701.782 592.67 705.924 599.88 711.67C607.547 717.748 614.285 724.914 619.88 732.94C625.674 741.134 630.484 749.982 634.21 759.3C634.4 759.76 634.57 760.23 634.75 760.69C637.83 759.17 640.99 757.51 644.2 755.69C644.13 755.48 644 755.21 643.93 754.94Z" fill="#C6FCDB" stroke="black" stroke-width="3" stroke-miterlimit="10" stroke-linecap="round"/>
<path d="M302.8 625.14C301.017 622.807 299.04 620.629 296.89 618.63C294.733 616.627 292.415 614.804 289.96 613.18C287.497 611.543 284.901 610.115 282.2 608.91C285.807 607.103 289.312 605.1 292.7 602.91C296.154 600.682 299.492 598.279 302.7 595.71C305.887 593.151 308.934 590.424 311.83 587.54C314.665 584.722 317.336 581.744 319.83 578.62C323.339 574.255 326.426 569.568 329.05 564.62C331.483 560.024 333.414 555.179 334.81 550.17C336.126 545.413 336.861 540.514 337 535.58C337.341 525.521 334.82 515.572 329.73 506.89C326.912 502.009 323.558 497.457 319.73 493.32C318.11 491.55 316.37 489.85 314.58 488.2L307.88 490.34L301.34 492.42C304.707 494.969 307.848 497.803 310.73 500.89C313.96 504.334 316.8 508.124 319.2 512.19C323.009 518.52 325.079 525.743 325.2 533.13C325.282 536.866 324.923 540.598 324.13 544.25C323.153 548.688 321.645 552.992 319.64 557.07C317.138 562.123 314.086 566.885 310.54 571.27C307.748 574.765 304.71 578.056 301.45 581.12C298.159 584.253 294.668 587.169 291 589.85C287.332 592.512 283.494 594.93 279.51 597.09C275.667 599.176 271.676 600.977 267.57 602.48C266.793 602.761 266.067 603.166 265.42 603.68C264.796 604.175 264.259 604.769 263.83 605.44C263.397 606.107 263.076 606.84 262.88 607.61C262.569 608.798 262.556 610.044 262.84 611.238C263.124 612.433 263.698 613.539 264.51 614.46C265.042 615.059 265.667 615.568 266.36 615.97C267.075 616.379 267.852 616.669 268.66 616.83C271.678 617.438 274.617 618.387 277.42 619.66C280.221 620.923 282.876 622.485 285.34 624.32C287.789 626.137 290.032 628.216 292.03 630.52C294.012 632.792 295.714 635.293 297.1 637.97C297.865 639.448 298.533 640.975 299.1 642.54L310 638.2C309.296 636.278 308.474 634.401 307.54 632.58C306.179 629.967 304.593 627.478 302.8 625.14Z" fill="#C6FCDB" stroke="black" stroke-width="3" stroke-miterlimit="10" stroke-linecap="round"/>
<path d="M514.19 649.54C516.04 647.944 517.183 645.682 517.37 643.246C517.557 640.811 516.774 638.4 515.19 636.54C514.005 635.164 512.44 634.168 510.691 633.677C508.943 633.186 507.088 633.222 505.36 633.78C504.185 634.152 503.1 634.761 502.17 635.57C500.796 636.755 499.801 638.318 499.31 640.065C498.818 641.811 498.852 643.664 499.406 645.392C499.961 647.119 501.012 648.646 502.428 649.78C503.844 650.914 505.563 651.606 507.37 651.77C508.599 651.876 509.836 651.736 511.01 651.36C512.181 650.973 513.263 650.354 514.19 649.54Z" fill="#C6FCDB" stroke="black" stroke-width="3" stroke-miterlimit="10" stroke-linecap="round"/>
<path d="M185.49 529.38L195 558.86L204.47 588.34L213.95 617.83L223.42 647.31L198 655.46L172.64 663.61L147.28 671.75L121.91 679.9C120.526 680.344 119.042 680.371 117.643 679.978C116.243 679.585 114.99 678.79 114.04 677.69C113.397 676.937 112.91 676.063 112.61 675.12L99.31 633.73L86 592.33L72.7 550.94L59.4 509.54C58.9427 508.124 58.8524 506.615 59.1374 505.155C59.4225 503.694 60.0737 502.33 61.03 501.19C61.6764 500.421 62.4554 499.774 63.33 499.28C66.5183 497.429 69.9289 495.991 73.48 495C77.7973 493.774 82.3178 493.434 86.77 494C92.1697 494.78 97.2867 496.905 101.65 500.18C106.65 503.87 111.76 509.4 116.57 517.42C117.53 519.027 118.567 520.583 119.68 522.09C120.792 523.586 121.981 525.025 123.24 526.4C124.501 527.769 125.836 529.068 127.24 530.29C128.649 531.513 130.132 532.648 131.68 533.69C133.385 534.849 135.174 535.882 137.03 536.78C138.942 537.716 140.941 538.459 143 539C145.095 539.554 147.253 539.833 149.42 539.83C151.694 539.839 153.957 539.502 156.13 538.83L163.48 536.47L170.82 534.11L178.17 531.75L185.49 529.38Z" fill="#DBCAF4" stroke="black" stroke-width="3" stroke-miterlimit="10" stroke-linecap="round"/>
<path d="M197.07 606.86C195.053 607.511 193.231 608.656 191.77 610.19C190.358 611.678 189.328 613.486 188.77 615.46C187.969 614.827 187.096 614.29 186.17 613.86C185.24 613.435 184.264 613.123 183.26 612.93C182.24 612.73 181.198 612.659 180.16 612.72C178.009 612.846 175.924 613.514 174.1 614.66C173.226 615.228 172.423 615.9 171.71 616.66C171.005 617.399 170.394 618.222 169.89 619.11C169.384 619.993 168.984 620.933 168.7 621.91C167.1 620.636 165.211 619.774 163.2 619.4C162.183 619.198 161.144 619.13 160.11 619.2C157.338 619.343 154.691 620.398 152.58 622.2C151.34 623.265 150.32 624.563 149.58 626.02C148.814 627.497 148.35 629.112 148.212 630.77C148.075 632.428 148.268 634.097 148.78 635.68L151.37 643.75L153.97 651.81L156.56 659.88L159.15 667.95L164.15 666.34L169.15 664.73L174.15 663.12L179.15 661.51L180.15 661.18L181.15 660.85L182.15 660.53L183.15 660.2L187.15 658.91L191.15 657.63L195.15 656.34L199.15 655.06L200.15 654.74L201.15 654.41L202.15 654.09L203.15 653.76L208.15 652.15L213.15 650.54L218.15 648.92L223.15 647.31L220.55 639.24L217.96 631.18L215.37 623.11L213 615.05C212.488 613.431 211.651 611.934 210.54 610.65C209.474 609.415 208.181 608.397 206.73 607.65C205.249 606.89 203.633 606.428 201.974 606.293C200.314 606.157 198.645 606.35 197.06 606.86H197.07Z" fill="#ECE7E1" stroke="black" stroke-width="3" stroke-miterlimit="10" stroke-linecap="round"/>
<path d="M188.76 615.47L191.79 624.89L194.82 634.32L197.84 643.74L200.87 653.17" stroke="black" stroke-width="3" stroke-miterlimit="10" stroke-linecap="round"/>
<path d="M168.67 621.92L171.7 631.34L174.73 640.77L177.75 650.2L180.78 659.62" stroke="black" stroke-width="3" stroke-miterlimit="10" stroke-linecap="round"/>
<path d="M106.39 537.78L109.74 533.91L113.1 530.04L116.46 526.17L119.81 522.3" stroke="black" stroke-width="3" stroke-miterlimit="10" stroke-linecap="round"/>
<path d="M123.24 552.29L126.16 548.15L129.08 544.01L132 539.87L134.92 535.73" stroke="black" stroke-width="3" stroke-miterlimit="10" stroke-linecap="round"/>
<path d="M141.91 526.05C143.7 526.05 145.5 525.94 147.31 525.8C149.12 525.66 150.92 525.48 152.71 525.21C154.5 524.94 156.29 524.62 158.04 524.21C159.791 523.794 161.517 523.28 163.21 522.67C164.697 522.098 166.133 521.399 167.5 520.58C169.232 519.577 170.868 518.419 172.39 517.12C173.843 515.92 175.066 514.466 176 512.83C176.404 512.149 176.653 511.387 176.729 510.599C176.805 509.811 176.706 509.016 176.44 508.27C175.983 507.15 175.262 506.158 174.337 505.38C173.412 504.601 172.311 504.059 171.13 503.8C168.343 503.169 165.46 503.08 162.64 503.54C159.578 503.959 156.55 504.597 153.58 505.45C150.75 506.23 148.27 507.03 146.58 507.52C144.15 508.21 141.75 509.02 139.39 509.92C137.03 510.82 134.7 511.83 132.39 512.92C130.08 514.01 127.85 515.19 125.65 516.43C123.45 517.67 121.29 519 119.18 520.43C121.581 518.844 123.824 517.033 125.88 515.02C127.922 513.026 129.82 510.891 131.56 508.63C133.33 506.38 134.97 504.02 136.56 501.63C138.15 499.24 139.65 496.79 141.15 494.36C141.85 493.25 142.52 492.1 143.15 490.93C143.78 489.76 144.4 488.57 144.95 487.35C145.499 486.136 145.987 484.894 146.41 483.63C146.823 482.369 147.157 481.083 147.41 479.78C147.638 478.486 147.759 477.174 147.77 475.86C147.799 474.342 147.659 472.826 147.35 471.34C147.084 469.944 146.51 468.626 145.67 467.48C145.267 466.932 144.757 466.472 144.171 466.129C143.585 465.785 142.935 465.564 142.26 465.48C141.174 465.387 140.086 465.616 139.13 466.14C138.01 466.73 136.972 467.463 136.04 468.32C135.075 469.205 134.163 470.146 133.31 471.14C132.49 472.08 131.78 472.99 131.22 473.7C130.41 474.7 129.66 475.82 128.95 476.93C128.24 478.04 127.59 479.18 126.95 480.35C126.31 481.52 125.77 482.71 125.25 483.91C124.73 485.11 124.25 486.35 123.8 487.58C122.94 489.98 122.19 492.43 121.57 494.92C120.95 497.41 120.44 499.92 120.05 502.47C119.66 505.02 119.4 507.58 119.24 510.14C119.08 512.7 119.05 515.26 119.12 517.81C119.112 518.96 119.326 520.101 119.75 521.17C120.083 521.978 120.642 522.672 121.36 523.17C122.144 523.684 123.01 524.063 123.92 524.29C124.92 524.58 126.08 524.81 127.38 525.07C128.68 525.33 129.77 525.49 130.97 525.64C132.17 525.79 133.38 525.9 134.59 525.97C135.8 526.04 137.01 526.09 138.23 526.11C139.45 526.13 140.7 526.08 141.91 526.05Z" stroke="black" stroke-width="3" stroke-miterlimit="10" stroke-linecap="round"/>
<path d="M247.45 319.49L232.68 346.71L217.9 373.92L203.12 401.13L188.34 428.35L164.93 415.63L141.52 402.92L118.11 390.2L94.7 377.49C93.829 377.02 93.0606 376.381 92.44 375.61C91.241 374.102 90.6745 372.187 90.86 370.27C90.9606 369.285 91.2564 368.33 91.73 367.46L112.48 329.25L133.23 291.05L154 252.84L174.75 214.63C175.23 213.745 175.859 212.95 176.61 212.28C177.338 211.624 178.169 211.094 179.07 210.71C180.909 209.927 182.964 209.811 184.88 210.38C188.41 211.413 191.796 212.884 194.96 214.76C198.818 217.045 202.178 220.082 204.84 223.69C208.002 228.125 210 233.282 210.65 238.69C211.47 244.89 210.97 252.37 208.49 261.39C207.99 263.19 207.58 265.02 207.26 266.86C206.94 268.7 206.73 270.55 206.6 272.41C206.478 274.268 206.462 276.131 206.55 277.99C206.638 279.854 206.842 281.711 207.16 283.55C207.503 285.582 207.991 287.587 208.62 289.55C209.267 291.57 210.107 293.522 211.13 295.38C212.182 297.274 213.469 299.028 214.96 300.6C216.541 302.242 218.361 303.635 220.36 304.73L227.14 308.41L233.92 312.09L240.69 315.77L247.45 319.49Z" fill="#DBCAF4" stroke="black" stroke-width="3" stroke-miterlimit="10" stroke-linecap="round"/>
<path d="M199.42 381.39C198.476 380.869 197.467 380.476 196.42 380.22C194.411 379.72 192.309 379.72 190.3 380.22C189.309 380.467 188.352 380.833 187.45 381.31C187.358 380.288 187.143 379.28 186.81 378.31C186.14 376.351 185 374.586 183.49 373.17C182.702 372.439 181.825 371.811 180.88 371.3C179.038 370.3 176.976 369.771 174.88 369.76C173.869 369.765 172.862 369.889 171.88 370.13C170.893 370.375 169.94 370.737 169.04 371.21C168.942 370.188 168.723 369.181 168.39 368.21C168.056 367.246 167.606 366.326 167.05 365.47C166.48 364.603 165.809 363.807 165.05 363.1C164.264 362.374 163.39 361.75 162.45 361.24C159.497 359.639 156.03 359.274 152.809 360.227C149.588 361.179 146.877 363.37 145.27 366.32L141.27 373.77L137.22 381.21L133.22 388.66L129.22 396.1L133.84 398.62L138.46 401.13L143.08 403.64L147.71 406.15L148.65 406.66L149.59 407.17L150.59 407.69L151.53 408.2L155.22 410.2L158.91 412.2L162.6 414.2L166.29 416.2L167.22 416.71L168.16 417.22L169.09 417.72L170.02 418.23L174.66 420.75L179.29 423.26L183.92 425.78L188.56 428.3L192.56 420.85L196.56 413.41L200.61 405.96L204.61 398.51C205.423 397.026 205.926 395.393 206.09 393.71C206.415 390.423 205.442 387.14 203.38 384.56C202.29 383.244 200.942 382.166 199.42 381.39Z" fill="#ECE7E1" stroke="black" stroke-width="3" stroke-miterlimit="10" stroke-linecap="round"/>
<path d="M187.46 381.32L182.74 390.02L178.01 398.72L173.28 407.42L168.56 416.12" stroke="black" stroke-width="3" stroke-miterlimit="10" stroke-linecap="round"/>
<path d="M168.91 371.25L164.19 379.95L159.47 388.65L154.74 397.35L150.02 406.05" stroke="black" stroke-width="3" stroke-miterlimit="10" stroke-linecap="round"/>
<path d="M186.74 268.09L191.86 267.85L196.98 267.6L202.09 267.36L207.21 267.11" stroke="black" stroke-width="3" stroke-miterlimit="10" stroke-linecap="round"/>
<path d="M187.89 290.3L192.89 289.55L197.89 288.81L202.89 288.06L207.89 287.31" stroke="black" stroke-width="3" stroke-miterlimit="10" stroke-linecap="round"/>
<path d="M219.76 285.69C221.02 286.95 222.32 288.2 223.67 289.41C225.02 290.62 226.4 291.8 227.82 292.91C229.24 294.02 230.72 295.09 232.24 296.06C233.752 297.04 235.318 297.935 236.93 298.74C238.369 299.422 239.865 299.978 241.4 300.4C243.321 300.961 245.289 301.342 247.28 301.54C249.149 301.771 251.044 301.652 252.87 301.19C253.641 301.015 254.363 300.671 254.986 300.183C255.608 299.696 256.115 299.076 256.47 298.37C256.967 297.267 257.188 296.059 257.113 294.852C257.038 293.644 256.67 292.473 256.04 291.44C254.573 288.986 252.648 286.837 250.37 285.11C247.943 283.193 245.387 281.446 242.72 279.88C240.21 278.38 237.91 277.13 236.38 276.23C234.2 274.96 231.96 273.78 229.68 272.7C227.4 271.62 225.06 270.62 222.68 269.7C220.3 268.78 217.92 267.99 215.49 267.26C213.06 266.53 210.63 265.88 208.17 265.26C210.971 265.903 213.828 266.279 216.7 266.38C219.554 266.477 222.411 266.373 225.25 266.07C228.1 265.79 230.94 265.35 233.76 264.83C236.58 264.31 239.4 263.73 242.19 263.14C243.48 262.87 244.77 262.57 246.06 262.22C247.35 261.87 248.63 261.49 249.89 261.05C251.148 260.606 252.383 260.098 253.59 259.53C254.792 258.962 255.955 258.314 257.07 257.59C258.163 256.864 259.193 256.048 260.15 255.15C261.275 254.122 262.281 252.972 263.15 251.72C263.974 250.563 264.531 249.238 264.78 247.84C264.887 247.176 264.859 246.497 264.697 245.844C264.536 245.191 264.244 244.578 263.84 244.04C263.153 243.188 262.232 242.555 261.19 242.22C259.991 241.817 258.743 241.575 257.48 241.5C256.175 241.42 254.865 241.42 253.56 241.5C252.31 241.56 251.17 241.67 250.26 241.76C248.95 241.89 247.65 242.09 246.36 242.34C245.07 242.59 243.8 242.92 242.53 243.28C241.26 243.64 240.02 244.07 238.78 244.52C237.54 244.97 236.33 245.52 235.13 246.01C232.79 247.043 230.504 248.195 228.28 249.46C226.05 250.72 223.88 252.1 221.77 253.58C219.66 255.06 217.63 256.63 215.67 258.29C213.71 259.95 211.83 261.69 210.04 263.5C209.202 264.29 208.523 265.234 208.04 266.28C207.695 267.076 207.584 267.953 207.72 268.81C207.904 269.736 208.242 270.625 208.72 271.44C209.21 272.36 209.84 273.35 210.55 274.44C211.26 275.53 211.89 276.44 212.61 277.44C213.33 278.44 214.09 279.36 214.87 280.29C215.65 281.22 216.46 282.13 217.29 283.02C218.12 283.91 218.91 284.83 219.76 285.69Z" stroke="black" stroke-width="3" stroke-miterlimit="10" stroke-linecap="round"/>
<path d="M797 542.08C797 542.08 798.75 542.18 801.73 542.48C804.71 542.78 808.93 543.29 813.88 544.12C818.83 544.95 824.52 546.12 830.43 547.68C836.553 549.28 842.547 551.339 848.36 553.84C855.76 557.029 862.145 562.186 866.82 568.75C871.216 574.963 873.968 582.187 874.82 589.75C875.711 597.267 874.657 604.887 871.76 611.88C868.655 619.263 863.542 625.628 857 630.25C851.024 634.49 844.416 637.761 837.42 639.94C830.455 642.092 823.27 643.454 816 644C808.643 644.563 801.257 644.637 793.89 644.22C786.53 643.86 779.23 643.15 772.19 642.4L750.63 640.09L729.07 637.78L707.51 635.48L686 633.17C681.94 632.74 677.69 632.48 673.36 632.25C669.03 632.02 664.62 631.81 660.23 631.48C655.84 631.15 651.49 630.68 647.23 629.93C643.076 629.229 638.998 628.138 635.05 626.67C628.059 623.943 621.886 619.466 617.12 613.67C612.262 607.719 608.401 601.018 605.69 593.83C602.845 586.457 600.683 578.838 599.23 571.07C597.854 563.873 596.853 556.61 596.23 549.31L593.23 520.46L590.29 491.61L587.29 462.76L584.35 433.91C583.66 433.03 582.97 432.1 582.29 431.15C581.61 430.2 580.91 429.2 580.23 428.15C579.55 427.1 578.88 426.06 578.23 424.97C577.58 423.88 576.9 422.74 576.23 421.58C575.05 419.46 573.977 417.357 573.01 415.27C572.01 413.19 571.17 411.12 570.39 409.09C569.61 407.06 568.92 405.09 568.3 403.09C567.68 401.09 567.15 399.2 566.69 397.32C565.98 394.49 565.26 391.67 564.5 388.86C563.74 386.05 562.97 383.24 562.16 380.44C561.35 377.64 560.51 374.85 559.64 372.07C558.77 369.29 557.87 366.52 556.93 363.76C556.51 362.54 556.15 361.4 555.85 360.35C555.55 359.3 555.3 358.35 555.11 357.49C554.944 356.748 554.821 355.996 554.74 355.24C554.675 354.712 554.675 354.178 554.74 353.65C554.828 353.087 554.972 352.534 555.17 352C555.325 351.586 555.519 351.187 555.75 350.81C555.899 350.558 556.066 350.317 556.25 350.09L556.47 349.84C556.713 349.613 556.974 349.405 557.25 349.22C557.507 349.059 557.774 348.916 558.05 348.79C558.292 348.687 558.539 348.597 558.79 348.52C559.003 348.454 559.22 348.4 559.44 348.36C559.821 348.172 560.23 348.044 560.65 347.98C561.703 347.815 562.782 347.939 563.77 348.34C565.45 349.056 566.91 350.205 568 351.67C569.966 354.254 571.502 357.137 572.55 360.21C572.55 360.21 573.05 361.56 573.92 363.44C574.946 365.678 576.164 367.822 577.56 369.85C579.07 371.98 580.83 373.85 582.73 374.58C584.63 375.31 586.67 374.97 588.73 372.71C589.217 372.174 589.649 371.591 590.02 370.97C590.388 370.353 590.699 369.703 590.95 369.03C591.206 368.351 591.403 367.652 591.54 366.94C591.672 366.227 591.749 365.505 591.77 364.78L592.05 355.2L592.32 345.63L592.6 336.06L592.87 326.48C592.87 326.31 592.87 326.11 592.87 325.89C592.87 325.67 592.87 325.44 592.87 325.19C592.87 324.94 592.87 324.67 592.87 324.38C592.87 324.09 592.87 323.79 592.87 323.48C592.92 322.36 592.97 321.32 593.05 320.36C593.106 319.477 593.216 318.599 593.38 317.73C593.51 316.979 593.731 316.247 594.04 315.55C594.319 314.902 594.712 314.31 595.2 313.8C595.4 313.585 595.617 313.388 595.85 313.21C596.217 312.932 596.612 312.694 597.03 312.5C597.604 312.224 598.208 312.016 598.83 311.88C599.652 311.703 600.49 311.612 601.33 311.61C601.097 309.893 601.067 308.154 601.24 306.43C601.394 304.915 601.754 303.428 602.31 302.01C602.775 300.788 603.452 299.657 604.31 298.67C605.077 297.788 606.044 297.102 607.13 296.67C607.388 296.573 607.652 296.493 607.92 296.43C608.248 296.345 608.582 296.289 608.92 296.26C609.359 296.225 609.801 296.225 610.24 296.26C610.776 296.309 611.308 296.399 611.83 296.53C612.055 295.855 612.393 295.222 612.83 294.66C613.273 294.12 613.795 293.651 614.38 293.27C615.564 292.498 616.972 292.146 618.38 292.27C619.099 292.339 619.8 292.535 620.45 292.85C621.749 293.45 622.806 294.472 623.45 295.75C623.776 296.399 623.989 297.099 624.08 297.82V300.06V302.3V304.53V306.77C624.474 306.661 624.881 306.6 625.29 306.59C626.243 306.545 627.195 306.72 628.07 307.1C629.333 307.699 630.381 308.674 631.07 309.89C632.213 311.927 632.895 314.19 633.07 316.52C633.25 318.07 633.43 319.62 633.6 321.16C633.77 322.7 633.95 324.26 634.13 325.81C634.31 327.36 634.5 328.91 634.7 330.45C634.9 331.99 635.11 333.54 635.33 335.08L638 350.8L640.29 366.47L642.59 382.14L644.88 397.81C645.24 400.28 645.64 402.73 646.09 405.18C646.54 407.63 647.02 410.07 647.55 412.5C648.08 414.93 648.66 417.36 649.27 419.77C649.88 422.18 650.54 424.58 651.27 426.97L659.27 454.3L667.27 481.63L675.27 508.96L683.27 536.29L711.71 537.74L740.16 539.19L768.6 540.64L797 542.08Z" fill="#F2B3C1" stroke="black" stroke-width="3" stroke-miterlimit="10" stroke-linecap="round"/>
<path d="M624.45 306.82C624.55 309.92 624.66 313.02 624.76 316.13C624.86 319.24 624.97 322.33 625.07 325.44C625.17 328.55 625.28 331.64 625.38 334.75C625.48 337.86 625.59 340.95 625.7 344.06" stroke="black" stroke-width="3" stroke-miterlimit="10" stroke-linecap="round"/>
<path d="M612.07 296.55C612.27 300.597 612.473 304.647 612.68 308.7C612.887 312.753 613.09 316.803 613.29 320.85L613.89 333C614.103 337.053 614.307 341.103 614.5 345.15" stroke="black" stroke-width="3" stroke-miterlimit="10" stroke-linecap="round"/>
<path d="M601.65 312.61C601.79 315.49 601.927 318.363 602.06 321.23C602.193 324.097 602.33 326.97 602.47 329.85C602.61 332.72 602.75 335.6 602.88 338.47C603.01 341.34 603.16 344.22 603.29 347.09" stroke="black" stroke-width="3" stroke-miterlimit="10" stroke-linecap="round"/>
<path d="M893.78 433C889.123 436.804 885.02 441.24 881.59 446.18C878.348 450.819 875.791 455.901 874 461.27C872.305 466.39 871.431 471.747 871.41 477.14C871.384 482.401 872.292 487.625 874.09 492.57C875.46 496.311 877.341 499.845 879.68 503.07C881.713 505.873 884.039 508.451 886.62 510.76C888.719 512.645 890.959 514.367 893.32 515.91C895.32 517.22 897.06 518.15 898.2 518.75L899.47 517.75L900.62 516.88L901.62 516.1L902.48 515.43L903.92 514.3L905.29 513.21L906.29 512.4L906.69 512.08L906.95 512.45L907.54 513.32C907.76 513.65 907.99 514 908.2 514.32L908.65 515.01C909.125 515.778 909.488 516.61 909.73 517.48C909.947 518.268 910.091 519.075 910.16 519.89C910.192 520.51 910.192 521.13 910.16 521.75C910.16 522.23 910.16 522.54 910.1 522.6C909.902 524.169 909.359 525.675 908.51 527.01C907.761 528.183 906.841 529.238 905.78 530.14C904.946 530.86 904.049 531.502 903.1 532.06C902.631 532.336 902.147 532.587 901.65 532.81C900.746 533.205 899.805 533.506 898.84 533.71C897.997 533.885 897.141 533.989 896.28 534.02C895.563 534.047 894.845 534.027 894.13 533.96C893.5 533.9 892.96 533.81 892.55 533.73C892.14 533.65 891.84 533.56 891.42 533.44C890.948 533.298 890.484 533.131 890.03 532.94C889.491 532.714 888.963 532.46 888.45 532.18C887.87 531.853 887.312 531.489 886.78 531.09C886.333 530.755 885.905 530.395 885.5 530.01C885.149 529.667 884.815 529.307 884.5 528.93C884.2 528.58 883.93 528.24 883.7 527.93C883.47 527.62 883.28 527.31 883.12 527.05C882.18 527.38 881.12 527.72 880.04 528.05C878.96 528.38 877.72 528.69 876.43 528.97C875.14 529.25 873.78 529.51 872.33 529.72C870.88 529.93 869.33 530.09 867.78 530.19C865.95 530.31 864.21 530.33 862.55 530.28C860.89 530.23 859.32 530.12 857.85 529.95C856.38 529.78 855 529.57 853.74 529.33C852.48 529.09 851.32 528.84 850.28 528.57C851.307 529.81 852.367 531.143 853.46 532.57C854.54 534 855.64 535.52 856.74 537.14C857.84 538.76 858.96 540.47 860.05 542.28C861.14 544.09 862.23 546.01 863.29 548.02C864.68 550.67 865.9 553.26 866.98 555.79C868.06 558.32 868.98 560.79 869.83 563.11C870.68 565.43 871.34 567.73 871.93 569.86C872.52 571.99 873.02 574.02 873.42 575.86C875.85 575.25 878.69 574.43 881.81 573.33C885.287 572.141 888.69 570.745 892 569.15C895.812 567.284 899.487 565.152 903 562.77C906.98 560.082 910.733 557.072 914.22 553.77C915.66 552.41 918.02 550.18 920.75 547.14C923.994 543.552 926.94 539.706 929.56 535.64C932.792 530.634 935.421 525.264 937.39 519.64C939.645 513.172 940.863 506.388 941 499.54C941 498.82 941 497.54 940.94 495.86C940.88 494.18 940.69 492.03 940.35 489.57C939.486 483.444 937.836 477.454 935.44 471.75C934.88 470.43 933.94 468.32 932.54 465.75C930.853 462.648 928.951 459.668 926.85 456.83C924.174 453.24 921.16 449.915 917.85 446.9C914 443.365 909.732 440.316 905.14 437.82C904 437.2 902.9 436.64 901.83 436.13C900.76 435.62 899.74 435.19 898.83 434.79C897.92 434.39 896.95 434.05 896.11 433.79C895.27 433.53 894.48 433.18 893.78 433Z" fill="#D87D61" stroke="black" stroke-width="3" stroke-miterlimit="10" stroke-linecap="round"/>
<path d="M720.36 209.51C721.08 211.57 721.777 213.74 722.45 216.02C723.11 218.29 723.75 220.66 724.34 223.13C724.93 225.6 725.47 228.13 725.95 230.83C726.43 233.53 726.85 236.24 727.19 239.09C727.31 240.137 727.42 241.177 727.52 242.21C727.62 243.21 727.71 244.21 727.78 245.21C727.85 246.21 727.92 247.21 727.97 248.21C728.02 249.21 728.06 250.15 728.09 251.1" stroke="black" stroke-width="3" stroke-miterlimit="10" stroke-linecap="round"/>
<path d="M730.49 204.1C731.23 206.48 731.94 208.98 732.61 211.57C733.28 214.16 733.92 216.87 734.51 219.66C735.1 222.45 735.63 225.36 736.09 228.35C736.55 231.34 736.96 234.42 737.28 237.6C737.39 238.75 737.5 239.88 737.59 241C737.68 242.12 737.75 243.24 737.82 244.33C737.89 245.42 737.94 246.52 737.99 247.59C738.04 248.66 738.07 249.72 738.09 250.76" stroke="black" stroke-width="3" stroke-miterlimit="10" stroke-linecap="round"/>
<path d="M743.39 214.82C743.777 216.773 744.14 218.773 744.48 220.82C744.83 222.82 745.14 224.94 745.48 227.07C745.82 229.2 746.03 231.38 746.26 233.6C746.49 235.82 746.69 238.09 746.86 240.4C746.92 241.25 746.97 242.1 747.02 242.95C747.07 243.8 747.12 244.63 747.16 245.46C747.2 246.29 747.23 247.12 747.26 247.94C747.29 248.76 747.26 249.57 747.33 250.38" stroke="black" stroke-width="3" stroke-miterlimit="10" stroke-linecap="round"/>
<path d="M688.26 552.48L687 548.43L685.74 544.38L684.48 540.34L683.22 536.29" stroke="black" stroke-width="3" stroke-miterlimit="10" stroke-linecap="round"/>
<path d="M63.35 499.28C62.4802 499.777 61.705 500.423 61.06 501.19C59.7871 502.7 59.0613 504.596 59 506.57C58.9681 507.587 59.1102 508.601 59.42 509.57L72.72 550.97L86 592.33L99.29 633.73L112.59 675.12C112.89 676.063 113.377 676.937 114.02 677.69C114.968 678.793 116.221 679.591 117.621 679.984C119.021 680.377 120.506 680.348 121.89 679.9L123.28 679.46L124.67 679.01L126.06 678.56L127.45 678.11L112.87 632.71L98.31 587.3L83.72 541.89L69.14 496.48C68.59 496.7 68.06 496.92 67.54 497.15C67.02 497.38 66.54 497.61 66.05 497.85C65.56 498.09 65.05 498.32 64.65 498.56L63.35 499.28Z" fill="#F6991A" stroke="black" stroke-width="3" stroke-miterlimit="10" stroke-linecap="round"/>
<path d="M184.86 210.38C182.944 209.811 180.889 209.927 179.05 210.71C178.149 211.094 177.318 211.624 176.59 212.28C175.839 212.95 175.21 213.745 174.73 214.63L154 252.84L133.25 291.05L112.5 329.25L91.73 367.46C91.2564 368.33 90.9606 369.285 90.86 370.27C90.6745 372.187 91.241 374.102 92.44 375.61C93.0606 376.381 93.829 377.02 94.7 377.49L95.99 378.19L97.28 378.89L98.57 379.59L99.86 380.3C107.44 366.3 115.017 352.323 122.59 338.37L145.32 296.44L168 254.51C175.58 240.51 183.157 226.533 190.73 212.58C190.21 212.34 189.73 212.12 189.18 211.91L187.66 211.32L186.21 210.81L184.86 210.38Z" fill="#F6991A" stroke="black" stroke-width="3" stroke-miterlimit="10" stroke-linecap="round"/>
<defs>
<linearGradient id="paint0_linear_630_154" x1="190.83" y1="780.88" x2="341.08" y2="780.88" gradientUnits="userSpaceOnUse">
<stop offset="0.2" stop-color="#FEC2D9"/>
<stop offset="0.54" stop-color="#E3DEDA"/>
<stop offset="0.86" stop-color="#C6FCDB"/>
</linearGradient>
<linearGradient id="paint1_linear_630_154" x1="813.32" y1="391.42" x2="874.96" y2="284.65" gradientUnits="userSpaceOnUse">
<stop offset="0.35" stop-color="#FEC2D9"/>
<stop offset="0.67" stop-color="#E3DEDA"/>
<stop offset="0.97" stop-color="#C6FCDB"/>
</linearGradient>
<linearGradient id="paint2_linear_630_154" x1="485.93" y1="275.42" x2="559.39" y2="201.97" gradientUnits="userSpaceOnUse">
<stop offset="0.22" stop-color="#A4C2FF"/>
<stop offset="0.46" stop-color="#B5DEED"/>
<stop offset="0.68" stop-color="#C6FCDB"/>
</linearGradient>
<linearGradient id="paint3_linear_630_154" x1="316.72" y1="102.98" x2="392.64" y2="234.49" gradientUnits="userSpaceOnUse">
<stop offset="0.15" stop-color="#FEC2D9"/>
<stop offset="0.23" stop-color="#FDBCBD"/>
<stop offset="0.41" stop-color="#FAAC74"/>
<stop offset="0.6" stop-color="#F6991A"/>
<stop offset="1" stop-color="#F6C34C"/>
</linearGradient>
<linearGradient id="paint4_linear_630_154" x1="387.55" y1="667.56" x2="450.72" y2="776.96" gradientUnits="userSpaceOnUse">
<stop offset="0.12" stop-color="#FEC2D9"/>
<stop offset="0.71" stop-color="#A4C2FF"/>
</linearGradient>
<linearGradient id="paint5_linear_630_154" x1="872.87" y1="178.2" x2="915.73" y2="252.42" gradientUnits="userSpaceOnUse">
<stop offset="0.12" stop-color="#FEC2D9"/>
<stop offset="0.71" stop-color="#A4C2FF"/>
</linearGradient>
</defs>
</svg>
