<svg width="1000" height="1000" viewBox="0 0 1000 1000" fill="none" xmlns="http://www.w3.org/2000/svg">
<path d="M495.937 21.1289C526.404 21.1289 555.624 33.2306 577.169 54.7723C598.715 76.3141 610.822 105.532 610.827 135.999V439.999H381.047V135.999C381.052 105.532 393.159 76.3141 414.704 54.7723C436.25 33.2306 465.47 21.1289 495.937 21.1289Z" fill="url(#paint0_linear_447_16294)" stroke="black" stroke-width="3" stroke-miterlimit="10" stroke-linecap="round"/>
<path d="M495.942 54.7891C506.145 54.7864 516.249 56.7942 525.676 60.6975C535.103 64.6009 543.668 70.3234 550.883 77.5381C558.098 84.7528 563.82 93.3183 567.724 102.745C571.627 112.172 573.635 122.276 573.632 132.479V439.999H418.242V132.479C418.242 122.276 420.252 112.173 424.157 102.746C428.062 93.3196 433.785 84.7547 441.001 77.5404C448.216 70.3261 456.782 64.6037 466.208 60.7C475.635 56.7963 485.739 54.7878 495.942 54.7891Z" fill="url(#paint1_linear_447_16294)" stroke="black" stroke-width="3" stroke-miterlimit="10" stroke-linecap="round"/>
<path d="M495.943 94.5195C500.941 94.5182 505.891 95.5018 510.509 97.414C515.128 99.3262 519.324 102.13 522.858 105.664C526.393 109.199 529.196 113.395 531.108 118.013C533.021 122.631 534.004 127.581 534.003 132.58V440H457.883V132.58C457.885 122.486 461.896 112.807 469.033 105.67C476.17 98.5329 485.849 94.5222 495.943 94.5195Z" fill="url(#paint2_linear_447_16294)" stroke="black" stroke-width="3" stroke-miterlimit="10" stroke-linecap="round"/>
<path d="M235.57 978.87C259.824 889.057 284.07 799.25 308.31 709.45C332.55 619.65 356.797 529.833 381.05 440H610.83L687.63 708.87L764.43 977.75L500 978.33L235.57 978.87Z" fill="url(#paint3_linear_447_16294)" stroke="black" stroke-width="3" stroke-miterlimit="10" stroke-linecap="round"/>
<path d="M626.581 376.211L589.821 381.301L553.061 386.401C546.305 387.332 539.455 385.544 534.018 381.428C528.58 377.312 524.999 371.206 524.061 364.451C523.6 361.102 523.803 357.695 524.66 354.425C525.516 351.155 527.008 348.085 529.051 345.392C531.095 342.699 533.648 340.435 536.567 338.729C539.485 337.023 542.711 335.909 546.061 335.451L582.821 330.361L619.571 325.261C626.326 324.329 633.176 326.118 638.613 330.234C644.051 334.35 647.633 340.456 648.571 347.211C649.502 353.967 647.713 360.816 643.598 366.254C639.482 371.691 633.376 375.273 626.621 376.211H626.581Z" fill="#040400" stroke="#040400" stroke-width="3" stroke-miterlimit="10"/>
<path d="M530.78 532.738L503.36 713.408L475.93 894.078H691.58L669.11 798.218L646.64 702.358C646.64 702.358 656.91 682.928 660.64 652.018C664.37 621.108 661.49 578.698 635.25 532.738" fill="#F6C34C"/>
<path d="M530.78 532.738L503.36 713.408L475.93 894.078H691.58L669.11 798.218L646.64 702.358C646.64 702.358 656.91 682.928 660.64 652.018C664.37 621.108 661.49 578.698 635.25 532.738" stroke="#070707" stroke-width="3" stroke-miterlimit="10" stroke-linecap="round"/>
<path d="M624.11 592.999C618.906 598.207 615.837 605.173 615.506 612.528C615.176 619.883 617.608 627.096 622.324 632.749C627.04 638.403 633.7 642.088 640.995 643.082C648.29 644.076 655.693 642.305 661.75 638.119C662.504 620.889 660.859 603.637 656.86 586.859C651.418 584.464 645.379 583.769 639.535 584.865C633.692 585.96 628.315 588.796 624.11 592.999Z" fill="#DBCAF4" stroke="black" stroke-width="3" stroke-miterlimit="10" stroke-linecap="round"/>
<path d="M551.581 565.168C559.405 565.168 566.908 562.06 572.441 556.528C577.973 550.996 581.081 543.492 581.081 535.668C581.082 534.69 581.032 533.712 580.931 532.738H530.781L527.711 552.998C528.615 554.253 529.618 555.434 530.711 556.528C533.448 559.273 536.701 561.45 540.283 562.933C543.865 564.415 547.704 565.175 551.581 565.168Z" fill="#DBCAF4" stroke="black" stroke-width="3" stroke-miterlimit="10" stroke-linecap="round"/>
<path d="M535.707 669.15C539.66 665.196 542.409 660.201 543.632 654.746C544.855 649.291 544.503 643.6 542.617 638.337C540.731 633.074 537.388 628.456 532.977 625.02C528.567 621.584 523.272 619.472 517.707 618.93L508.867 677.18C513.655 678.173 518.615 677.962 523.301 676.565C527.987 675.169 532.253 672.631 535.717 669.18L535.707 669.15Z" fill="#DBCAF4" stroke="black" stroke-width="3" stroke-miterlimit="10" stroke-linecap="round"/>
<path d="M577.218 719C570.393 719 563.779 721.367 558.504 725.697C553.228 730.026 549.617 736.052 548.285 742.746C546.954 749.439 547.985 756.388 551.202 762.407C554.42 768.426 559.625 773.143 565.93 775.755C572.236 778.366 579.252 778.711 585.783 776.73C592.314 774.748 597.956 770.564 601.747 764.889C605.539 759.214 607.246 752.4 606.577 745.608C605.908 738.816 602.904 732.466 598.078 727.64C595.341 724.897 592.09 722.722 588.51 721.239C584.93 719.757 581.093 718.996 577.218 719Z" fill="#DBCAF4" stroke="black" stroke-width="3" stroke-miterlimit="10" stroke-linecap="round"/>
<path d="M655.283 809.001C650.719 813.561 647.775 819.492 646.903 825.885C646.032 832.278 647.28 838.781 650.457 844.397C653.635 850.013 658.565 854.432 664.494 856.978C670.423 859.523 677.023 860.055 683.283 858.491L669.813 801.051C664.309 802.257 659.267 805.016 655.283 809.001Z" fill="#DBCAF4" stroke="black" stroke-width="3" stroke-miterlimit="10" stroke-linecap="round"/>
<path d="M565.212 864.931C560.583 860.277 554.534 857.3 548.023 856.471C541.511 855.642 534.91 857.008 529.262 860.353C523.615 863.699 519.244 868.832 516.842 874.941C514.441 881.049 514.145 887.785 516.002 894.081H572.632C573.417 891.387 573.817 888.596 573.822 885.79C573.831 881.918 573.074 878.082 571.597 874.502C570.119 870.923 567.95 867.67 565.212 864.931Z" fill="#DBCAF4" stroke="black" stroke-width="3" stroke-miterlimit="10" stroke-linecap="round"/>
<path d="M530.784 532.739H635.234L637.954 528.119L640.664 523.499H683.434C685.937 523.494 688.429 523.158 690.844 522.499C694.214 521.585 697.36 519.986 700.083 517.801C702.807 515.615 705.051 512.891 706.674 509.799C709.174 505.179 710.864 498.999 710.864 490.739C710.872 479.033 709.222 467.384 705.964 456.139C702.714 444.891 697.864 434.168 691.564 424.299C680.054 406.299 666.114 389.299 649.564 377.069C633.014 364.839 613.924 357.219 592.064 357.919C578.617 358.355 565.284 360.526 552.394 364.379C541.994 367.499 534.834 370.899 532.054 372.549C518.445 380.64 506.813 391.665 498.004 404.819C492.767 412.53 488.514 420.865 485.344 429.629C492.91 446.816 500.487 464.003 508.074 481.189C515.66 498.376 523.23 515.559 530.784 532.739Z" fill="#ECE7E1" stroke="black" stroke-width="3" stroke-miterlimit="10" stroke-linecap="round"/>
<path d="M600.602 326.071C598.613 317.176 593.536 309.275 586.272 303.771C579.502 298.771 571.272 296.671 563.132 298.581C554.992 300.491 548.572 306.061 544.722 313.581C540.665 321.74 539.641 331.076 541.832 339.921C541.992 340.621 542.172 341.301 542.372 341.981C542.572 342.661 542.792 343.331 543.012 343.981L540.682 346.371L538.352 348.751L542.352 350.051L546.352 351.361C549.745 357.209 554.742 361.963 560.752 365.061C566.445 367.989 572.988 368.818 579.232 367.401C587.352 365.491 593.792 359.911 597.642 352.401C601.719 344.253 602.768 334.921 600.602 326.071Z" fill="#F2B3C1" stroke="black" stroke-width="3" stroke-miterlimit="10" stroke-linecap="round"/>
<path d="M555.167 338.068C555.265 338.537 555.175 339.025 554.917 339.428C554.651 339.831 554.239 340.114 553.767 340.218C553.533 340.267 553.291 340.27 553.056 340.225C552.821 340.181 552.597 340.09 552.397 339.958C552.198 339.83 552.026 339.663 551.892 339.467C551.758 339.271 551.664 339.051 551.617 338.818C551.568 338.585 551.565 338.344 551.609 338.11C551.653 337.876 551.742 337.653 551.872 337.453C552.002 337.253 552.17 337.081 552.367 336.947C552.563 336.812 552.784 336.717 553.017 336.668C553.25 336.619 553.491 336.616 553.725 336.66C553.959 336.703 554.183 336.793 554.382 336.923C554.582 337.053 554.754 337.221 554.889 337.417C555.023 337.614 555.118 337.835 555.167 338.068Z" fill="#040400"/>
<path d="M562.753 347.18C562.683 347.868 562.511 348.542 562.242 349.18C561.737 350.407 560.873 351.453 559.763 352.18C558.885 352.746 557.883 353.089 556.843 353.18C556.252 353.255 555.653 353.255 555.062 353.18" stroke="black" stroke-width="3" stroke-miterlimit="10" stroke-linecap="round"/>
<path d="M547.844 329.692L553.394 329.232L558.954 328.762" stroke="black" stroke-width="3" stroke-miterlimit="10" stroke-linecap="round"/>
<path d="M573.422 337.569C573.574 338.279 573.585 339.012 573.453 339.726C573.321 340.44 573.048 341.121 572.652 341.729C572.255 342.34 571.742 342.866 571.141 343.278C570.541 343.689 569.865 343.979 569.153 344.129C568.44 344.28 567.705 344.288 566.99 344.154C566.274 344.021 565.592 343.747 564.982 343.349C564.065 342.751 563.345 341.894 562.915 340.887C562.484 339.88 562.362 338.768 562.563 337.692C562.764 336.615 563.28 335.622 564.045 334.839C564.81 334.055 565.79 333.516 566.862 333.289C568.3 332.989 569.799 333.27 571.032 334.069C571.643 334.464 572.169 334.978 572.58 335.579C572.99 336.18 573.276 336.856 573.422 337.569Z" fill="#FF6406" stroke="#070707" stroke-width="3" stroke-miterlimit="10" stroke-linecap="round"/>
<path d="M677.799 913.15H489.599C487.696 913.15 485.811 912.775 484.052 912.046C482.293 911.317 480.696 910.249 479.35 908.903C478.004 907.556 476.937 905.958 476.21 904.198C475.482 902.439 475.108 900.554 475.109 898.65C475.108 896.747 475.482 894.862 476.21 893.104C476.937 891.345 478.005 889.747 479.35 888.401C480.696 887.055 482.294 885.988 484.053 885.261C485.811 884.533 487.696 884.159 489.599 884.16H677.799C679.703 884.159 681.587 884.533 683.346 885.261C685.105 885.988 686.702 887.055 688.048 888.401C689.394 889.747 690.461 891.345 691.189 893.104C691.917 894.862 692.291 896.747 692.289 898.65C692.291 900.554 691.917 902.439 691.189 904.198C690.462 905.958 689.395 907.556 688.049 908.903C686.703 910.249 685.105 911.317 683.347 912.046C681.588 912.775 679.703 913.15 677.799 913.15Z" fill="#FC762B" stroke="#070707" stroke-width="3" stroke-miterlimit="10" stroke-linecap="round"/>
<path d="M547.383 309.229C552.773 316.669 557.973 321.499 562.743 324.609C566.599 327.203 570.968 328.935 575.553 329.689C580.333 330.429 586.683 330.219 591.833 329.829C596.983 329.439 600.943 328.829 600.943 328.829C600.943 328.829 600.783 328.039 600.553 326.979C600.323 325.919 600.033 324.609 599.763 323.569C599.563 322.809 599.293 321.909 598.943 320.889C598.593 319.869 598.143 318.749 597.583 317.539C598.149 317.191 598.762 316.925 599.403 316.749C600.599 316.409 601.867 316.409 603.063 316.749C604.111 317.041 605.075 317.579 605.873 318.319C606.329 318.729 606.726 319.2 607.053 319.719C604.053 307.789 594.713 300.099 583.923 297.329C573.133 294.559 560.843 296.699 551.833 304.429C550.899 305.225 550.02 306.084 549.203 306.999C548.463 307.809 547.863 308.579 547.383 309.229Z" fill="#040400" stroke="#040400" stroke-width="3" stroke-miterlimit="10"/>
<path d="M667.167 884.16L670.847 931L674.518 977.82H648.997C648.411 970.927 647.824 964.034 647.237 957.14C646.651 950.247 646.064 943.354 645.477 936.46C621.881 956.345 593.373 969.521 562.938 974.61C551.049 976.625 538.991 977.469 526.938 977.13C535.931 972.133 544.374 966.204 552.128 959.44C563.498 949.537 573.167 937.835 580.747 924.8C584.801 917.808 588.224 910.469 590.977 902.87C593.189 896.775 594.973 890.533 596.318 884.19H667.237L667.167 884.16Z" fill="#84A1E5" stroke="#070707" stroke-width="3" stroke-miterlimit="10" stroke-linecap="round"/>
<path d="M615.912 406.499C615.643 407.196 615.436 407.915 615.292 408.649C615.142 409.386 615.071 410.137 615.082 410.889C615.096 411.53 615.197 412.165 615.382 412.779C615.564 413.384 615.878 413.94 616.302 414.409C616.922 415.062 617.742 415.491 618.632 415.629C619.535 415.78 620.461 415.698 621.322 415.389C623.364 414.558 625.049 413.036 626.082 411.089C627.147 409.151 628.085 407.147 628.892 405.089L632.102 397.769C633.172 395.329 634.252 392.899 635.362 390.479C636.451 387.589 637.74 384.778 639.222 382.069C641.022 379.139 643.362 377.069 646.312 378.599C646.881 378.912 647.349 379.38 647.662 379.949C647.898 380.341 648.076 380.766 648.192 381.209C648.606 380.25 649.133 379.343 649.762 378.509C650.762 377.179 652.242 375.899 654.062 376.099C654.988 376.207 655.848 376.635 656.492 377.309C657.138 377.982 657.539 378.851 657.632 379.779C657.676 380.358 657.639 380.94 657.522 381.509C657.37 382.275 657.129 383.02 656.802 383.729C656.932 383.419 657.452 383.549 657.982 383.729C658.406 383.923 658.816 384.144 659.212 384.389C659.713 384.703 660.14 385.123 660.462 385.619C660.783 386.112 661.007 386.662 661.122 387.239C661.237 387.882 661.257 388.539 661.182 389.189C661.111 389.842 660.983 390.487 660.802 391.119C660.492 392.259 660.152 393.379 659.802 394.509C659.452 395.639 659.132 396.769 658.802 397.919C659.249 398.239 659.667 398.597 660.052 398.989C660.559 399.513 660.999 400.097 661.362 400.729C662.325 402.55 662.693 404.628 662.412 406.669C662.207 408.336 661.807 409.974 661.222 411.549C658.231 420.102 654.553 428.399 650.222 436.359C648.579 439.43 646.773 442.411 644.812 445.289C642.122 449.049 638.952 453.289 635.252 457.949C631.552 462.609 627.332 467.579 622.562 472.809L595.152 450.799L582.742 440.799C582.742 440.799 583.062 439.379 583.442 437.799C583.822 436.219 584.252 434.419 584.442 433.689C585.112 431.369 585.742 429.109 586.442 426.869C587.167 424.602 588.052 422.39 589.092 420.249C591.595 415.344 594.579 410.701 598.002 406.389C601.352 402.039 605.002 397.879 608.482 393.669C610.011 391.606 611.703 389.67 613.542 387.879C615.542 386.149 617.842 385.079 620.542 386.019C621.201 386.243 621.795 386.628 622.269 387.137C622.744 387.647 623.085 388.266 623.262 388.939C623.607 390.308 623.555 391.748 623.112 393.089C622.85 393.897 622.515 394.681 622.112 395.429C621.722 396.189 621.302 396.929 620.882 397.659C620.082 399.069 619.132 400.489 618.232 401.959C617.318 403.396 616.541 404.916 615.912 406.499Z" fill="#F2B3C1" stroke="black" stroke-width="3" stroke-miterlimit="10" stroke-linecap="round"/>
<path d="M622.6 472.88L601.18 455.49L579.75 438.09L560.75 454.28L541.75 470.46C542.45 469.87 537.75 464.51 532.54 459.07C527.33 453.63 521.81 448.07 520.85 447.18C497.22 424.27 467.85 413.11 437.56 411.84C407.27 410.57 376.2 419.21 349.2 435.91L353.48 411.14L357.77 386.37L329.46 384.47L301.16 382.57C294.92 412.44 290.88 431.13 287.99 443.88C285.1 456.63 283.38 463.43 281.79 469.51C281.73 469.73 281.56 470.38 281.33 471.35C281.1 472.32 280.8 473.61 280.49 475.1C278.69 483.77 277.13 491.27 276.81 497.96C276.49 504.65 277.41 510.49 280.57 515.86C282.925 519.799 286.022 523.242 289.69 526C293.332 528.783 297.444 530.89 301.83 532.22C306.837 533.64 312.126 533.733 317.18 532.49C322.18 531.42 327.03 529.49 332.09 527.89C334.09 527.24 335.36 526.84 338.79 525.68C342.22 524.52 347.86 522.62 358.69 518.93L365.5 516.61L370.62 514.88C371.953 524.7 373.267 534.517 374.56 544.33C375.853 554.144 377.167 563.957 378.5 573.77L440.59 573.6L502.69 573.42C503.897 566.654 505.11 559.88 506.33 553.1C507.55 546.32 508.773 539.534 510 532.74C513.555 536.136 517.686 538.872 522.2 540.82C524.875 541.964 527.695 542.734 530.58 543.11C538.58 544.11 546.15 541.77 552.82 538.2C559.49 534.63 565.28 529.88 569.82 526.2C571.71 524.67 573.3 523.2 574.55 522.09C575.8 520.98 576.7 520.02 577.21 519.5C585.49 511.14 594.04 502.4 601.93 494.29C609.82 486.18 617 478.71 622.6 472.88Z" fill="#84A1E5" stroke="#070707" stroke-width="3" stroke-miterlimit="10" stroke-linecap="round"/>
<path d="M648.187 381.238C647.187 384.418 646.187 387.728 644.917 391.138C643.647 394.548 642.297 398.068 640.747 401.678C639.847 403.758 638.937 405.775 638.017 407.728C637.097 409.678 636.157 411.568 635.227 413.398" stroke="black" stroke-width="3" stroke-miterlimit="10" stroke-linecap="round"/>
<path d="M656.8 383.762C655.8 386.762 654.71 389.852 653.48 393.052C652.25 396.252 650.88 399.562 649.37 402.942C648.236 405.475 647.09 407.912 645.93 410.252C644.77 412.582 643.6 414.832 642.43 416.982" stroke="black" stroke-width="3" stroke-miterlimit="10" stroke-linecap="round"/>
<path d="M658.83 398C658.83 398 657.13 402.46 655.04 407.53C652.95 412.6 650.48 418.29 648.93 420.73" stroke="black" stroke-width="3" stroke-miterlimit="10" stroke-linecap="round"/>
<path d="M540.07 467.551L542.72 471.081C543.61 472.251 544.49 473.431 545.38 474.611" stroke="black" stroke-width="3" stroke-miterlimit="10" stroke-linecap="round"/>
<path d="M480.25 504.57C482.59 507.024 485.02 509.5 487.54 512C490.06 514.5 492.663 517.024 495.35 519.57C497.83 521.92 500.29 524.18 502.73 526.38C505.17 528.58 507.58 530.69 509.97 532.74" stroke="black" stroke-width="3" stroke-miterlimit="10" stroke-linecap="round"/>
<path d="M331 446.84C333 445.74 335 444.6 337 443.42C339 442.24 341.04 441.013 343.12 439.74C344.12 439.12 345.12 438.49 346.12 437.87L349 436" stroke="black" stroke-width="3" stroke-miterlimit="10" stroke-linecap="round"/>
<path d="M617.003 884.158L620.403 930.968L623.812 977.788H601.153L598.682 957.318L596.213 936.848C589.74 941.624 582.991 946.015 576.003 949.998C556.291 961.19 534.85 969.014 512.562 973.148C502.986 974.931 493.295 976.03 483.562 976.438C488.244 973.428 492.733 970.128 497.003 966.558C502.116 962.27 506.888 957.589 511.272 952.558C521.308 941.032 529.239 927.831 534.703 913.558C538.468 903.805 541.151 893.667 542.703 883.328L579.893 883.718L617.003 884.158Z" fill="#84A1E5" stroke="#070707" stroke-width="3" stroke-miterlimit="10" stroke-linecap="round"/>
<path d="M418.999 399.559C416.535 391.424 416.608 382.731 419.209 374.639C421.869 366.419 427.209 359.309 435.549 356.349C443.379 353.569 451.779 354.759 459.029 358.939C466.828 363.584 472.722 370.85 475.659 379.439C475.899 380.109 476.119 380.789 476.319 381.439C476.519 382.089 476.699 382.789 476.859 383.439L480.099 384.179L483.339 384.919L480.659 388.179L477.999 391.499C478.289 397.457 476.903 403.378 473.999 408.589C471.25 413.583 467.028 417.609 461.909 420.119C456.11 422.817 449.544 423.38 443.369 421.709C439.674 420.776 436.143 419.282 432.899 417.279C426.394 413.116 421.494 406.868 418.999 399.559Z" fill="#F2B3C1" stroke="black" stroke-width="3" stroke-miterlimit="10" stroke-linecap="round"/>
<path d="M422.498 406.999C422.018 406.209 421.498 405.339 421.068 404.409C420.638 403.479 420.128 402.479 419.688 401.409C418.921 399.555 418.296 397.646 417.818 395.699C417.422 394.088 417.122 392.455 416.918 390.809C415.957 390.944 415.019 391.207 414.128 391.589C412.909 392.098 411.866 392.953 411.128 394.049C409.778 396.169 409.918 399.049 411.038 401.669C411.548 402.961 412.322 404.132 413.31 405.108C414.299 406.084 415.479 406.844 416.778 407.339C417.841 407.667 418.964 407.763 420.068 407.619C420.9 407.511 421.716 407.303 422.498 406.999Z" fill="#F2B3C1" stroke="black" stroke-width="3" stroke-miterlimit="10" stroke-linecap="round"/>
<path d="M463.498 385.121C463.672 385.565 464.013 385.924 464.448 386.121C464.774 386.266 465.136 386.311 465.487 386.251C465.839 386.191 466.165 386.029 466.425 385.784C466.685 385.54 466.866 385.224 466.947 384.876C467.027 384.528 467.004 384.165 466.878 383.831C466.705 383.386 466.364 383.027 465.928 382.831C465.482 382.65 464.984 382.65 464.538 382.831C464.314 382.923 464.109 383.059 463.938 383.23C463.766 383.402 463.63 383.606 463.538 383.831C463.367 384.241 463.353 384.701 463.498 385.121Z" fill="#040400"/>
<path d="M465.159 374.211L460.219 376.761L455.289 379.301" stroke="black" stroke-width="3" stroke-miterlimit="10" stroke-linecap="round"/>
<path d="M576.923 930.708C578.621 928.51 580.18 926.209 581.593 923.818C583.012 921.429 584.188 918.903 585.103 916.278C585.9 913.628 586.258 910.864 586.163 908.098C586.033 904.998 585.163 902.098 582.793 901.418C578.973 900.238 575.793 903.418 573.323 907.418C571.248 911.132 569.469 915.004 568.003 918.998C566.511 922.593 565.321 926.306 564.443 930.098C563.572 933.893 562.954 937.742 562.593 941.618C562.938 937.215 562.553 932.786 561.453 928.508C560.345 924.237 559.01 920.027 557.453 915.898C556.78 913.965 555.982 912.078 555.063 910.248C554.146 908.417 553.015 906.702 551.693 905.138C550.256 903.5 548.527 902.143 546.593 901.138C544.513 900.138 542.303 899.808 540.663 901.398C539.523 902.508 539.273 904.478 539.383 906.508C539.526 908.359 539.834 910.193 540.303 911.988C540.793 913.955 541.462 915.874 542.303 917.718C543.128 919.567 544.077 921.358 545.143 923.078C547.215 926.437 549.61 929.585 552.293 932.478C554.972 935.377 557.907 938.027 561.063 940.398C562.793 941.708 564.063 941.988 565.353 941.618C566.847 940.978 568.204 940.058 569.353 938.908C570.774 937.701 572.11 936.398 573.353 935.008C574.613 933.638 575.793 932.188 576.923 930.708Z" stroke="black" stroke-width="3" stroke-miterlimit="10" stroke-linecap="round"/>
<path d="M443.652 394.749C443.931 395.482 444.387 396.135 444.978 396.65C445.57 397.165 446.28 397.526 447.044 397.701C447.809 397.876 448.605 397.86 449.362 397.654C450.119 397.448 450.813 397.058 451.384 396.52C451.954 395.982 452.383 395.311 452.632 394.567C452.881 393.824 452.943 393.03 452.813 392.256C452.682 391.483 452.363 390.754 451.883 390.133C451.403 389.513 450.778 389.02 450.062 388.699C448.907 388.183 447.596 388.143 446.412 388.589C445.232 389.044 444.28 389.946 443.762 391.1C443.245 392.254 443.206 393.566 443.652 394.749Z" fill="#FF6406" stroke="#070707" stroke-width="3" stroke-miterlimit="10" stroke-linecap="round"/>
<path d="M324.083 924.439C325.784 922.241 327.347 919.94 328.763 917.549C330.183 915.161 331.355 912.635 332.263 910.009C333.064 907.359 333.426 904.596 333.333 901.829C333.203 898.729 332.333 895.829 329.963 895.149C326.143 893.969 322.963 897.149 320.493 901.149C318.42 904.865 316.638 908.737 315.163 912.729C313.68 916.326 312.493 920.039 311.613 923.829C310.738 927.623 310.12 931.472 309.763 935.349C310.105 930.949 309.716 926.522 308.613 922.249C307.507 917.977 306.171 913.767 304.613 909.639C303.937 907.703 303.139 905.813 302.223 903.979C301.304 902.149 300.173 900.434 298.853 898.869C297.412 897.231 295.679 895.875 293.743 894.869C291.673 893.869 289.463 893.539 287.813 895.129C286.673 896.239 286.423 898.209 286.543 900.239C286.686 902.089 286.994 903.923 287.463 905.719C287.948 907.687 288.618 909.606 289.463 911.449C290.288 913.297 291.237 915.088 292.303 916.809C294.372 920.169 296.767 923.318 299.453 926.209C302.132 929.11 305.067 931.764 308.223 934.139C309.953 935.439 311.223 935.719 312.513 935.349C314.01 934.715 315.369 933.794 316.513 932.639C317.933 931.435 319.27 930.135 320.513 928.749C321.773 927.369 323.003 925.919 324.083 924.439Z" stroke="black" stroke-width="3" stroke-miterlimit="10" stroke-linecap="round"/>
<path d="M461.001 397.228C461.48 397.475 461.978 397.682 462.491 397.848C463.005 398.024 463.547 398.108 464.091 398.098C464.737 398.047 465.37 397.885 465.961 397.618C466.552 397.356 467.179 397.181 467.821 397.098C468.543 397.013 469.272 397.193 469.872 397.605C470.472 398.017 470.901 398.633 471.081 399.338C471.28 400.04 471.253 400.787 471.004 401.473C470.754 402.159 470.295 402.748 469.691 403.158C467.467 404.47 464.894 405.066 462.321 404.868C459.611 404.678 457.111 403.598 456.201 401.198C455.941 400.576 455.898 399.884 456.079 399.235C456.261 398.585 456.656 398.016 457.201 397.618C457.736 397.208 458.375 396.955 459.046 396.886C459.716 396.817 460.393 396.936 461.001 397.228Z" fill="#ECE7E1" stroke="black" stroke-width="3" stroke-miterlimit="10" stroke-linecap="round"/>
<path d="M416.919 390.812C421.565 391.469 426.301 391.016 430.739 389.492C437.859 386.952 445.369 380.642 446.979 365.582C451.839 368.247 457.486 369.104 462.919 368.002C467.739 366.932 471.709 364.202 473.729 360.442C475.253 357.47 475.812 354.097 475.329 350.792C474.934 347.339 473.195 344.181 470.489 342.002C468.891 340.852 467.068 340.053 465.139 339.658C463.21 339.263 461.22 339.282 459.299 339.712C454.846 340.636 450.913 343.221 448.299 346.942C439.602 346.249 430.875 347.86 422.999 351.612C415.999 355.122 410.889 360.362 408.569 366.682C407.879 368.587 407.438 370.573 407.259 372.592C407.001 375.768 407.271 378.964 408.059 382.052L409.609 388.052L411.149 394.052C411.586 393.45 412.1 392.909 412.679 392.442C413.868 391.437 415.362 390.862 416.919 390.812Z" fill="#040400" stroke="#040400" stroke-width="3" stroke-miterlimit="10"/>
<path d="M376.997 566.322C367.357 622.028 357.721 677.732 348.087 733.432C338.454 789.132 328.821 844.835 319.188 900.542H424.497C426.057 872.975 427.614 845.402 429.168 817.822C430.721 790.242 432.277 762.665 433.837 735.092L436.837 817.822L439.837 900.542H549.717L526.888 733.152L504.057 565.762L440.547 566.042L376.997 566.322Z" fill="#D87D61" stroke="black" stroke-width="3" stroke-miterlimit="10" stroke-linecap="round"/>
<path d="M396.169 566.239H393.429L371.339 739.709L350.859 900.539H356.319L376.709 740.399L398.899 566.219L396.169 566.239Z" fill="#F2B3C1" stroke="black" stroke-width="3" stroke-miterlimit="10" stroke-linecap="round"/>
<path d="M418.45 566.139L401.81 740.709L386.57 900.539H392L407.2 741.229L423.9 566.109H421.17L418.45 566.139Z" fill="#F2B3C1" stroke="black" stroke-width="3" stroke-miterlimit="10" stroke-linecap="round"/>
<path d="M454 566H451.29H448.57L460.24 742.4L470.69 900.54H476.12L465.65 742L454 566Z" fill="#F2B3C1" stroke="black" stroke-width="3" stroke-miterlimit="10" stroke-linecap="round"/>
<path d="M498.416 741.479L482.096 565.859H476.656L492.996 741.999L507.726 900.559H513.166L498.416 741.479Z" fill="#F2B3C1" stroke="black" stroke-width="3" stroke-miterlimit="10" stroke-linecap="round"/>
<path d="M425.611 904.51C425.611 909.64 419.611 914.28 409.891 917.64C400.171 921 386.751 923.07 371.891 923.07C357.031 923.07 343.691 921 334.001 917.64C324.311 914.28 318.281 909.64 318.281 904.51C318.281 899.38 324.281 894.75 334.001 891.39C343.721 888.03 357.111 886 371.931 886C386.751 886 400.171 888.08 409.931 891.44C419.691 894.8 425.611 899.39 425.611 904.51Z" fill="#F2B3C1" stroke="black" stroke-width="3" stroke-miterlimit="10" stroke-linecap="round"/>
<path d="M551.07 904.509C551.07 909.639 544.81 914.279 534.67 917.639C524.53 920.999 510.54 923.069 495.07 923.069C479.6 923.069 465.61 920.999 455.47 917.639C445.33 914.279 439.07 909.639 439.07 904.509C439.07 899.379 445.34 894.749 455.47 891.389C465.6 888.029 479.61 885.949 495.07 885.949C510.53 885.949 524.54 888.029 534.67 891.389C544.8 894.749 551.07 899.389 551.07 904.509Z" fill="#F2B3C1" stroke="black" stroke-width="3" stroke-miterlimit="10" stroke-linecap="round"/>
<path d="M337.811 890.249L332.351 912.879C330.537 920.419 328.721 927.962 326.901 935.509C326.901 935.509 314.901 934.169 303.381 938.789C291.861 943.409 281.021 953.969 283.381 977.789H409.681C410.406 977.791 411.124 977.645 411.791 977.359C412.438 977.089 413.025 976.695 413.521 976.199C414.112 975.592 414.548 974.851 414.791 974.039C414.952 973.491 415.06 972.928 415.111 972.359C415.291 970.519 415.491 961.749 415.691 948.089C415.891 934.429 416.051 915.899 416.191 894.509C414.441 893.719 412.291 892.809 409.791 891.889C407.291 890.969 404.431 890.039 401.261 889.199C396.161 887.841 390.956 886.918 385.701 886.439C381.001 885.989 376.701 885.919 372.781 885.859C370.231 885.859 367.121 885.779 363.441 885.949C359.178 886.154 354.931 886.605 350.721 887.299C348.081 887.739 345.671 888.239 343.511 888.749C341.351 889.259 339.421 889.779 337.811 890.249Z" fill="#ECE7E1" stroke="black" stroke-width="3" stroke-miterlimit="10" stroke-linecap="round"/>
<path d="M453.256 892.38C453.07 898.6 452.876 904.82 452.676 911.04L452.106 929.69C451.873 937.024 451.646 944.334 451.426 951.62C451.206 958.907 450.98 966.22 450.746 973.56C450.72 973.94 450.72 974.321 450.746 974.7C450.772 975.365 450.95 976.015 451.266 976.6C451.533 976.995 451.924 977.291 452.376 977.44C453.166 977.716 454.001 977.834 454.836 977.79H578.836C579.198 970.959 577.937 964.14 575.156 957.89C570.566 947.89 560.456 937.64 538.416 936.97C537.083 929.21 535.75 921.447 534.416 913.68L530.416 890.4C528.236 889.83 525.776 889.24 523.056 888.68C520.336 888.12 517.366 887.59 514.156 887.15C510.946 886.71 507.416 886.31 503.386 886.06C499.356 885.81 494.906 885.71 490.106 885.87C487.396 885.95 483.726 886.08 479.286 886.55C474.064 887.099 468.886 888.001 463.786 889.25C461.596 889.79 459.596 890.34 457.786 890.88C455.976 891.42 454.546 891.93 453.256 892.38Z" fill="#ECE7E1" stroke="black" stroke-width="3" stroke-miterlimit="10" stroke-linecap="round"/>
<path d="M323.672 948.502L325.282 942.012L326.902 935.512" stroke="black" stroke-width="3" stroke-miterlimit="10" stroke-linecap="round"/>
<path d="M578.24 967.669L514.57 967.489L450.91 967.309C450.91 968.569 450.91 969.829 450.86 971.089V974.869C450.856 975.25 450.927 975.628 451.07 975.981C451.213 976.335 451.424 976.657 451.692 976.928C451.96 977.199 452.278 977.415 452.63 977.563C452.981 977.711 453.358 977.787 453.74 977.789H578.89C578.94 977.029 578.97 976.219 578.97 975.369C578.97 974.519 578.97 973.599 578.89 972.659C578.81 971.719 578.74 970.849 578.63 970.019C578.52 969.189 578.38 968.399 578.24 967.669Z" fill="#DBCAF4" stroke="black" stroke-width="3" stroke-miterlimit="10" stroke-linecap="round"/>
<path d="M283.172 967.73L349.172 967.68H415.172L415.052 970.43L414.942 973.18C414.868 973.64 414.73 974.088 414.532 974.51C414.174 975.249 413.651 975.896 413.002 976.4C412.391 976.91 411.673 977.279 410.902 977.48C410.458 977.593 410.001 977.65 409.542 977.65C389.472 977.71 367.962 977.72 346.452 977.72C324.942 977.72 303.452 977.72 283.372 977.79C283.282 977.07 283.212 976.31 283.152 975.52C283.092 974.73 283.052 973.91 283.032 973.06C283.012 972.21 283.032 971.17 283.032 970.28C283.032 969.39 283.112 968.54 283.172 967.73Z" fill="#DBCAF4" stroke="black" stroke-width="3" stroke-miterlimit="10" stroke-linecap="round"/>
<path d="M538.547 937.48L539.637 943.23L540.717 948.99" stroke="black" stroke-width="3" stroke-miterlimit="10" stroke-linecap="round"/>
<path d="M683.192 83.1314C683.192 82.3714 681.192 81.6714 677.962 81.1314C673.656 80.4978 669.314 80.147 664.962 80.0814C664.896 75.7432 664.444 71.4195 663.612 67.1614C662.892 63.9114 661.962 61.9414 660.932 61.9414C659.902 61.9414 658.932 63.9414 658.262 67.1614C657.425 71.4191 656.97 75.7429 656.902 80.0814C652.55 80.147 648.208 80.4978 643.902 81.1314C640.642 81.6814 638.672 82.3814 638.672 83.1314C638.672 83.8814 640.672 84.5914 643.902 85.1314C648.209 85.7483 652.551 86.0824 656.902 86.1314C656.97 90.4699 657.425 94.7937 658.262 99.0514C658.972 102.301 659.912 104.271 660.932 104.271C661.952 104.271 662.932 102.271 663.612 99.0514C664.454 94.8142 664.919 90.5107 665.002 86.1914C669.352 86.1424 673.695 85.8083 678.002 85.1914C681.222 84.5914 683.192 83.8914 683.192 83.1314Z" fill="url(#paint4_linear_447_16294)" stroke="black" stroke-width="3" stroke-miterlimit="10" stroke-linecap="round"/>
<path d="M341.929 227.881C341.929 227.091 339.929 226.371 336.519 225.811C332.061 225.152 327.565 224.785 323.059 224.711C322.995 220.225 322.527 215.754 321.659 211.351C320.919 207.981 319.949 205.941 318.889 205.941C317.829 205.941 316.889 207.941 316.129 211.351C315.262 215.754 314.793 220.225 314.729 224.711C310.224 224.784 305.727 225.152 301.269 225.811C297.889 226.371 295.859 227.091 295.859 227.881C295.859 228.671 297.859 229.401 301.269 229.961C305.727 230.622 310.224 230.986 314.729 231.051C314.794 235.541 315.262 240.016 316.129 244.421C316.869 247.781 317.829 249.821 318.889 249.821C319.949 249.821 320.889 247.821 321.659 244.421C322.527 240.016 322.995 235.541 323.059 231.051C327.564 230.999 332.061 230.648 336.519 230.001C339.889 229.401 341.929 228.671 341.929 227.881Z" fill="url(#paint5_linear_447_16294)" stroke="black" stroke-width="3" stroke-miterlimit="10" stroke-linecap="round"/>
<path d="M656.489 133.271C652.559 134.081 650.149 134.931 648.489 136.571C646.829 138.211 645.999 140.621 645.189 144.571C645.174 144.66 645.129 144.741 645.06 144.799C644.991 144.857 644.904 144.889 644.814 144.889C644.724 144.889 644.637 144.857 644.568 144.799C644.499 144.741 644.453 144.66 644.439 144.571C643.629 140.641 642.779 138.221 641.139 136.571C639.499 134.921 637.139 134.081 633.139 133.271C633.05 133.256 632.969 133.211 632.911 133.142C632.852 133.073 632.82 132.986 632.82 132.896C632.82 132.806 632.852 132.719 632.911 132.65C632.969 132.581 633.05 132.535 633.139 132.521C637.069 131.711 639.489 130.851 641.139 129.221C642.789 127.591 643.629 125.221 644.439 121.221C644.453 121.132 644.499 121.051 644.568 120.993C644.637 120.934 644.724 120.902 644.814 120.902C644.904 120.902 644.991 120.934 645.06 120.993C645.129 121.051 645.174 121.132 645.189 121.221C645.999 125.151 646.859 127.561 648.489 129.221C650.119 130.881 652.489 131.711 656.489 132.521C656.578 132.535 656.659 132.581 656.717 132.65C656.775 132.719 656.807 132.806 656.807 132.896C656.807 132.986 656.775 133.073 656.717 133.142C656.659 133.211 656.578 133.256 656.489 133.271Z" fill="url(#paint6_linear_447_16294)" stroke="black" stroke-width="3" stroke-miterlimit="10" stroke-linecap="round"/>
<path d="M683.191 128.249C681.247 128.251 679.362 127.579 677.859 126.348C676.355 125.116 675.325 123.401 674.944 121.495C674.563 119.589 674.855 117.609 675.77 115.895C676.686 114.18 678.167 112.835 679.963 112.09C681.758 111.346 683.756 111.246 685.617 111.81C687.477 112.374 689.084 113.565 690.164 115.181C691.245 116.797 691.731 118.737 691.541 120.672C691.351 122.606 690.495 124.415 689.121 125.789C688.343 126.569 687.418 127.188 686.401 127.61C685.383 128.033 684.292 128.25 683.191 128.249ZM683.191 116.059C682.691 116.058 682.197 116.155 681.735 116.346C681.273 116.536 680.854 116.816 680.501 117.169C680.148 117.522 679.868 117.942 679.677 118.403C679.487 118.865 679.389 119.36 679.391 119.859C679.388 120.357 679.485 120.851 679.675 121.311C679.866 121.771 680.146 122.189 680.501 122.539C680.853 122.894 681.272 123.176 681.734 123.368C682.195 123.56 682.691 123.659 683.191 123.659C684.197 123.654 685.16 123.252 685.872 122.54C686.583 121.829 686.985 120.865 686.991 119.859C686.991 119.359 686.892 118.864 686.7 118.402C686.507 117.941 686.226 117.522 685.871 117.169C685.52 116.815 685.103 116.534 684.643 116.344C684.182 116.153 683.689 116.056 683.191 116.059Z" fill="url(#paint7_linear_447_16294)" stroke="black" stroke-width="3" stroke-miterlimit="10" stroke-linecap="round"/>
<path d="M350.611 273.998C348.595 274.002 346.64 273.307 345.079 272.031C343.519 270.755 342.449 268.977 342.053 267C341.656 265.023 341.958 262.971 342.906 261.192C343.854 259.413 345.39 258.017 347.252 257.244C349.114 256.471 351.186 256.368 353.116 256.952C355.045 257.535 356.712 258.771 357.833 260.446C358.954 262.122 359.458 264.135 359.261 266.141C359.064 268.147 358.176 270.023 356.751 271.448C355.946 272.257 354.989 272.899 353.935 273.337C352.882 273.774 351.752 273.999 350.611 273.998ZM350.611 261.378C349.567 261.381 348.568 261.797 347.831 262.536C347.094 263.274 346.681 264.275 346.681 265.318C346.677 265.968 346.834 266.609 347.138 267.183C347.442 267.757 347.883 268.247 348.423 268.61C348.962 268.972 349.583 269.196 350.229 269.26C350.876 269.325 351.528 269.229 352.129 268.98C352.729 268.731 353.258 268.338 353.67 267.835C354.081 267.332 354.362 266.735 354.487 266.097C354.612 265.46 354.577 264.801 354.386 264.18C354.195 263.559 353.853 262.995 353.391 262.538C353.026 262.173 352.593 261.884 352.115 261.688C351.638 261.492 351.127 261.394 350.611 261.398V261.378Z" fill="url(#paint8_linear_447_16294)" stroke="black" stroke-width="3" stroke-miterlimit="10" stroke-linecap="round"/>
<path d="M646.643 702.359L633.053 730.519L619.453 758.689" stroke="black" stroke-width="3" stroke-miterlimit="10" stroke-linecap="round"/>
<path d="M357.788 386.28C358.038 384.41 358.398 382.06 358.948 379.34C359.498 376.62 360.238 373.53 361.248 370.19C362.652 365.253 364.321 360.396 366.248 355.64C368.429 350.365 371.315 345.409 374.828 340.91C377.308 337.75 379.968 335 381.828 332.53C383.688 330.06 384.718 327.85 383.938 325.8C383.695 325.161 383.308 324.587 382.808 324.12C382.378 323.729 381.901 323.393 381.388 323.12C381.047 322.949 380.688 322.815 380.318 322.72C379.599 322.544 378.856 322.487 378.118 322.55C375.614 322.882 373.219 323.785 371.118 325.19C369.975 325.899 368.886 326.691 367.858 327.56C365.253 329.886 362.863 332.443 360.718 335.2C359.058 337.27 358.088 338.61 357.718 338.39C357.628 338.34 357.608 338.23 357.638 337.93C357.668 337.63 357.718 337.17 357.788 336.39C357.788 336.26 357.788 336.39 357.788 335.91C357.788 335.43 357.788 334.45 357.948 332.09C358.042 329.95 358.148 327.813 358.268 325.68C358.378 323.54 358.518 321.4 358.668 319.26C358.788 317.62 358.878 316.37 359.008 315.35C359.103 314.468 359.318 313.603 359.648 312.78C360.079 311.798 360.648 310.882 361.338 310.06C362.07 309.226 362.858 308.444 363.698 307.72C366.397 305.347 369.268 303.177 372.288 301.23C374.288 299.86 375.378 298.91 375.608 297.23C375.727 296.199 375.539 295.155 375.068 294.23C374.637 293.321 373.967 292.547 373.128 291.99C371.748 291.13 370.078 291.19 368.128 291.78C365.935 292.57 363.817 293.554 361.798 294.72C358.876 296.194 356.085 297.917 353.458 299.87C350.576 302.076 348.22 304.893 346.558 308.12C345.681 309.824 344.99 311.618 344.498 313.47C344.143 314.819 343.889 316.193 343.738 317.58C343.185 316.901 342.531 316.311 341.798 315.83C340.386 314.863 338.698 314.382 336.988 314.46C335.56 314.538 334.179 314.997 332.988 315.79C331.782 316.592 330.809 317.7 330.168 319C329.46 318.442 328.671 317.994 327.828 317.67C326.257 317.019 324.516 316.901 322.871 317.332C321.226 317.764 319.768 318.722 318.718 320.06C317.621 321.434 316.95 323.099 316.788 324.85C316.213 324.846 315.637 324.889 315.068 324.98C314.324 325.108 313.601 325.337 312.918 325.66C310.799 326.81 309.155 328.673 308.278 330.92C307.433 332.899 306.883 334.991 306.648 337.13C305.728 344.697 304.812 352.267 303.898 359.84C302.985 367.413 302.068 374.983 301.148 382.55L329.458 384.45L357.788 386.28Z" fill="#F2B3C1" stroke="black" stroke-width="3" stroke-miterlimit="10" stroke-linecap="round"/>
<path d="M343.359 336.919L343.569 327.199L343.769 317.469" fill="#F2B3C1"/>
<path d="M343.359 336.919L343.569 327.199L343.769 317.469" stroke="black" stroke-width="3" stroke-miterlimit="10" stroke-linecap="round"/>
<path d="M601.678 334.252C601.678 333.322 601.588 332.332 601.478 331.252C601.368 330.172 601.218 329.112 601.008 327.972C600.646 325.989 600.135 324.037 599.478 322.132C598.937 320.555 598.302 319.013 597.578 317.512C598.467 317.107 599.405 316.821 600.368 316.662C601.676 316.421 603.027 316.574 604.248 317.102C606.538 318.152 607.998 320.692 608.468 323.482C608.735 324.851 608.716 326.261 608.411 327.622C608.107 328.983 607.523 330.267 606.698 331.392C605.979 332.239 605.085 332.921 604.078 333.392C603.317 333.777 602.511 334.065 601.678 334.252Z" fill="#F2B3C1" stroke="black" stroke-width="3" stroke-miterlimit="10" stroke-linecap="round"/>
<path d="M640.656 523.5C641.536 520.61 642.376 517.59 643.166 514.5C643.956 511.41 644.696 508.1 645.366 504.73C646.835 497.395 647.89 489.984 648.526 482.53C649.136 475.53 649.326 468.99 649.266 462.98" stroke="#070707" stroke-width="3" stroke-miterlimit="10" stroke-linecap="round"/>
<path d="M330.202 318.93L329.782 328.3C329.642 331.42 329.492 334.54 329.352 337.67" fill="#F2B3C1"/>
<path d="M330.202 318.93L329.782 328.3C329.642 331.42 329.492 334.54 329.352 337.67" stroke="black" stroke-width="3" stroke-miterlimit="10" stroke-linecap="round"/>
<path d="M316.82 324.781C316.72 326.991 316.61 329.191 316.5 331.401C316.39 333.611 316.28 335.811 316.18 338.011" fill="#F2B3C1"/>
<path d="M316.82 324.781C316.72 326.991 316.61 329.191 316.5 331.401C316.39 333.611 316.28 335.811 316.18 338.011" stroke="black" stroke-width="3" stroke-miterlimit="10" stroke-linecap="round"/>
<path d="M433.852 735.091V692.981V650.871" fill="#F6991A"/>
<path d="M433.852 735.091V692.981V650.871" stroke="#070707" stroke-width="3" stroke-miterlimit="10" stroke-linecap="round"/>
<path d="M394.399 887.648V926.848C394.209 930.612 394.865 934.371 396.319 937.848C398.689 943.048 403.899 947.598 415.239 945.038" stroke="black" stroke-width="3" stroke-miterlimit="10" stroke-linecap="round"/>
<path d="M473.262 887.648V926.848C473.453 930.612 472.8 934.37 471.352 937.848C468.972 943.048 463.762 947.598 452.422 945.038" stroke="black" stroke-width="3" stroke-miterlimit="10" stroke-linecap="round"/>
<path d="M398.453 967.648V972.668V977.688" stroke="black" stroke-width="3" stroke-miterlimit="10" stroke-linecap="round"/>
<path d="M387.688 967.648V972.668V977.688" stroke="black" stroke-width="3" stroke-miterlimit="10" stroke-linecap="round"/>
<path d="M477.812 967.648V972.668V977.688" stroke="black" stroke-width="3" stroke-miterlimit="10" stroke-linecap="round"/>
<path d="M467.039 967.648V972.668V977.688" stroke="black" stroke-width="3" stroke-miterlimit="10" stroke-linecap="round"/>
<path d="M568.688 447.512L590.287 465.752L611.888 484.002" fill="#FC762B"/>
<path d="M568.688 447.512L590.287 465.752L611.888 484.002" stroke="#070707" stroke-width="3" stroke-miterlimit="10" stroke-linecap="round"/>
<path d="M299.117 394.512L327.317 396.342L355.517 398.172" fill="#FC762B"/>
<path d="M299.117 394.512L327.317 396.342L355.517 398.172" stroke="#070707" stroke-width="3" stroke-miterlimit="10" stroke-linecap="round"/>
<defs>
<linearGradient id="paint0_linear_447_16294" x1="495.937" y1="440.029" x2="495.937" y2="21.1289" gradientUnits="userSpaceOnUse">
<stop offset="0.1" stop-color="#A4C2FF"/>
<stop offset="0.39" stop-color="#B5DEED"/>
<stop offset="0.65" stop-color="#C6FCDB"/>
</linearGradient>
<linearGradient id="paint1_linear_447_16294" x1="495.942" y1="54.7891" x2="495.942" y2="440.029" gradientUnits="userSpaceOnUse">
<stop stop-color="#FEC2D9"/>
<stop offset="0.47" stop-color="#DBCAF4"/>
<stop offset="0.81" stop-color="#C6FCDB"/>
</linearGradient>
<linearGradient id="paint2_linear_447_16294" x1="495.943" y1="94.5195" x2="495.943" y2="440.03" gradientUnits="userSpaceOnUse">
<stop offset="0.13" stop-color="#DBCAF4"/>
<stop offset="0.56" stop-color="#C6FCDB"/>
<stop offset="1" stop-color="#FEC2D9"/>
</linearGradient>
<linearGradient id="paint3_linear_447_16294" x1="500" y1="978.87" x2="500" y2="440.03" gradientUnits="userSpaceOnUse">
<stop offset="0.02" stop-color="#A4C2FF"/>
<stop offset="0.88" stop-color="#FEC2D9"/>
</linearGradient>
<linearGradient id="paint4_linear_447_16294" x1="660.932" y1="61.9314" x2="660.932" y2="104.331" gradientUnits="userSpaceOnUse">
<stop offset="0.16" stop-color="#FEC2D9"/>
<stop offset="0.8" stop-color="#A4C2FF"/>
</linearGradient>
<linearGradient id="paint5_linear_447_16294" x1="318.889" y1="205.941" x2="318.889" y2="249.821" gradientUnits="userSpaceOnUse">
<stop offset="0.16" stop-color="#FEC2D9"/>
<stop offset="0.8" stop-color="#A4C2FF"/>
</linearGradient>
<linearGradient id="paint6_linear_447_16294" x1="644.839" y1="120.941" x2="644.839" y2="144.851" gradientUnits="userSpaceOnUse">
<stop offset="0.26" stop-color="#FEC2D9"/>
<stop offset="0.8" stop-color="#A4C2FF"/>
</linearGradient>
<linearGradient id="paint7_linear_447_16294" x1="683.191" y1="111.469" x2="683.191" y2="128.249" gradientUnits="userSpaceOnUse">
<stop offset="0.16" stop-color="#FEC2D9"/>
<stop offset="0.8" stop-color="#A4C2FF"/>
</linearGradient>
<linearGradient id="paint8_linear_447_16294" x1="350.611" y1="256.648" x2="350.611" y2="274.018" gradientUnits="userSpaceOnUse">
<stop offset="0.16" stop-color="#FEC2D9"/>
<stop offset="0.8" stop-color="#A4C2FF"/>
</linearGradient>
</defs>
</svg>
