<svg width="128" height="128" viewBox="0 0 128 128" fill="none" xmlns="http://www.w3.org/2000/svg">
<g clip-path="url(#clip0_646_2)">
<path d="M56.2099 15.3601C-2.46006 110.64 0.999939 103.92 0.999939 107.65C0.977376 108.868 1.1975 110.079 1.64747 111.211C2.09744 112.343 2.76826 113.374 3.62084 114.244C4.47341 115.115 5.49069 115.806 6.61336 116.28C7.73603 116.753 8.94165 116.998 10.1599 117H117.84C119.486 116.979 121.097 116.521 122.508 115.674C123.919 114.826 125.08 113.619 125.872 112.176C126.664 110.733 127.059 109.106 127.017 107.46C126.974 105.815 126.496 104.21 125.63 102.81L71.7899 15.3601C70.9725 14.028 69.8271 12.9279 68.4633 12.1647C67.0995 11.4015 65.5628 11.0008 63.9999 11.0008C62.4371 11.0008 60.9004 11.4015 59.5366 12.1647C58.1727 12.9279 57.0274 14.028 56.2099 15.3601Z" fill="url(#paint0_linear_646_2)"/>
<path d="M117.84 117H10.1602C8.73559 116.991 7.33229 116.653 6.05996 116.012C4.78763 115.371 3.68075 114.445 2.8258 113.305C1.97086 112.166 1.39101 110.844 1.13156 109.443C0.872118 108.042 0.940107 106.6 1.33022 105.23C1.85488 107.171 3.00373 108.886 4.59952 110.109C6.19532 111.333 8.14937 111.997 10.1602 112H117.84C119.851 111.997 121.805 111.333 123.401 110.109C124.997 108.886 126.146 107.171 126.67 105.23C127.058 106.6 127.125 108.041 126.864 109.441C126.604 110.841 126.024 112.162 125.169 113.301C124.315 114.44 123.209 115.367 121.938 116.008C120.666 116.65 119.264 116.989 117.84 117Z" fill="#FF0000"/>
<path d="M11.96 106.96L64 22.4301L116.04 106.96H11.96Z" fill="url(#paint1_linear_646_2)"/>
<path d="M116.04 106.96H11.96L15.01 102H112.99L116.04 106.96Z" fill="#D8C7C7"/>
<path d="M69 46C67.39 81.56 67.69 74.93 67.33 83H60.67C60.31 75 60.67 82.07 59 46H69Z" fill="url(#paint2_linear_646_2)"/>
<path d="M64 100C66.7614 100 69 97.7614 69 95C69 92.2386 66.7614 90 64 90C61.2386 90 59 92.2386 59 95C59 97.7614 61.2386 100 64 100Z" fill="#FB8888"/>
<path d="M64.0001 100C63.2141 100.002 62.4389 99.818 61.7372 99.4639C61.0356 99.1098 60.4273 98.5953 59.9617 97.9622C59.4961 97.329 59.1863 96.5951 59.0574 95.8198C58.9286 95.0445 58.9843 94.2497 59.2201 93.5C59.5339 94.5228 60.1676 95.418 61.028 96.054C61.8884 96.69 62.9301 97.0332 64.0001 97.0332C65.07 97.0332 66.1117 96.69 66.9721 96.054C67.8325 95.418 68.4662 94.5228 68.7801 93.5C69.0158 94.2497 69.0716 95.0445 68.9427 95.8198C68.8139 96.5951 68.5041 97.329 68.0384 97.9622C67.5728 98.5953 66.9645 99.1098 66.2629 99.4639C65.5612 99.818 64.786 100.002 64.0001 100Z" fill="#F65656"/>
<path d="M67.5999 77L67.3299 83H60.6699L60.3999 77H67.5999Z" fill="#FC8989"/>
<path d="M126.5 102.27L72.6601 14.83C71.7515 13.3491 70.4782 12.1259 68.9621 11.2773C67.4459 10.4288 65.7375 9.98322 64.0001 9.98322C62.2626 9.98322 60.5542 10.4288 59.038 11.2773C57.5219 12.1259 56.2487 13.3491 55.3401 14.83L1.50006 102.27C-2.63994 109 2.00006 118 10.1601 118H117.84C126.06 118 130.58 108.9 126.5 102.27ZM126 107.8C126.003 109.963 125.147 112.039 123.621 113.573C122.095 115.106 120.023 115.972 117.86 115.98H10.1601C9.0744 115.979 7.99986 115.761 6.99922 115.34C5.99857 114.919 5.0919 114.303 4.33218 113.527C3.57246 112.752 2.97493 111.832 2.57451 110.823C2.17408 109.814 1.9788 108.735 2.00006 107.65C2.00006 104.32 -1.77994 111.46 57.0601 15.9C57.7845 14.7146 58.8014 13.7352 60.0131 13.0556C61.2248 12.3761 62.5908 12.0192 63.9801 12.0192C65.3693 12.0192 66.7353 12.3761 67.947 13.0556C69.1588 13.7352 70.1756 14.7146 70.9001 15.9C130 111.8 126 104.29 126 107.8Z" fill="#6A4747"/>
<path d="M64.8699 21.89C64.7709 21.7517 64.6403 21.639 64.489 21.5613C64.3377 21.4835 64.17 21.4429 63.9999 21.4429C63.8298 21.4429 63.6621 21.4835 63.5108 21.5613C63.3595 21.639 63.2289 21.7517 63.1299 21.89L11.1299 106.42C11.0202 106.573 10.9561 106.755 10.9451 106.943C10.934 107.131 10.9764 107.319 11.0674 107.484C11.1583 107.649 11.2942 107.785 11.4592 107.877C11.6242 107.968 11.8116 108.011 11.9999 108C123.3 108 116.53 108.28 117 107.48C117.47 106.68 120.48 112.22 64.8699 21.89ZM13.7799 105.94L63.9999 24.38L114.22 105.94H13.7799Z" fill="#6A4747"/>
<path d="M58.26 45.29C57.79 45.78 57.85 43.23 59.65 83.05C59.65 83.3152 59.7554 83.5696 59.9429 83.7571C60.1304 83.9446 60.3848 84.05 60.65 84.05H67.31C67.5752 84.05 67.8296 83.9446 68.0171 83.7571C68.2046 83.5696 68.31 83.3152 68.31 83.05L69.98 46.05C69.9867 45.9162 69.9665 45.7824 69.9205 45.6566C69.8745 45.5307 69.8037 45.4154 69.7123 45.3175C69.6209 45.2196 69.5108 45.141 69.3884 45.0864C69.266 45.0319 69.134 45.0025 69 45C58.24 45 58.69 44.85 58.26 45.29ZM67.93 47L66.36 82H61.64L60.07 47H67.93Z" fill="#6A4747"/>
<path d="M64 89C62.8133 89 61.6533 89.3519 60.6666 90.0112C59.6799 90.6705 58.9109 91.6075 58.4567 92.7039C58.0026 93.8003 57.8838 95.0067 58.1153 96.1705C58.3468 97.3344 58.9182 98.4035 59.7574 99.2426C60.5965 100.082 61.6656 100.653 62.8295 100.885C63.9933 101.116 65.1997 100.997 66.2961 100.543C67.3925 100.089 68.3295 99.3201 68.9888 98.3334C69.6481 97.3467 70 96.1867 70 95C70 93.4087 69.3679 91.8826 68.2426 90.7574C67.1174 89.6321 65.5913 89 64 89ZM64 99C63.2089 99 62.4355 98.7654 61.7777 98.3259C61.1199 97.8864 60.6072 97.2616 60.3045 96.5307C60.0017 95.7998 59.9225 94.9956 60.0769 94.2196C60.2312 93.4437 60.6122 92.731 61.1716 92.1716C61.731 91.6122 62.4437 91.2312 63.2196 91.0769C63.9956 90.9225 64.7998 91.0017 65.5307 91.3045C66.2616 91.6072 66.8864 92.1199 67.3259 92.7777C67.7654 93.4355 68 94.2089 68 95C68 96.0609 67.5786 97.0783 66.8284 97.8284C66.0783 98.5786 65.0609 99 64 99Z" fill="#483838"/>
</g>
<defs>
<linearGradient id="paint0_linear_646_2" x1="63.9899" y1="117" x2="63.9899" y2="11" gradientUnits="userSpaceOnUse">
<stop stop-color="#FF0000"/>
<stop offset="1" stop-color="#FFE5C3"/>
</linearGradient>
<linearGradient id="paint1_linear_646_2" x1="64" y1="106.96" x2="64" y2="22.4301" gradientUnits="userSpaceOnUse">
<stop stop-color="#DDE1E8"/>
<stop offset="1" stop-color="#F3F4F5"/>
</linearGradient>
<linearGradient id="paint2_linear_646_2" x1="64" y1="83" x2="64" y2="46" gradientUnits="userSpaceOnUse">
<stop offset="0.74" stop-color="#FB8888"/>
<stop offset="1" stop-color="#FFE5C3"/>
</linearGradient>
<clipPath id="clip0_646_2">
<rect width="128" height="128" fill="white"/>
</clipPath>
</defs>
</svg>
