<svg width="60" height="64" viewBox="0 0 60 64" fill="none" xmlns="http://www.w3.org/2000/svg">
<path d="M30.0002 64C25.9821 63.9983 22.0083 63.1617 18.3306 61.5432C14.653 59.9247 11.3518 57.5596 8.63643 54.5979C5.92108 51.6362 3.85082 48.1425 2.55693 44.3385C1.26305 40.5345 0.773785 36.5031 1.12017 32.5C1.77767 39.7051 5.10468 46.4042 10.448 51.2822C15.7914 56.1601 22.7651 58.8645 30.0002 58.8645C37.2352 58.8645 44.209 56.1601 49.5523 51.2822C54.8957 46.4042 58.2227 39.7051 58.8802 32.5C59.2266 36.5031 58.7373 40.5345 57.4434 44.3385C56.1495 48.1425 54.0793 51.6362 51.3639 54.5979C48.6486 57.5596 45.3474 59.9247 41.6697 61.5432C37.9921 63.1617 34.0182 63.9983 30.0002 64Z" fill="#C7CDD8"/>
<path d="M30 59C46.0163 59 59 46.0163 59 30C59 13.9837 46.0163 1 30 1C13.9837 1 1 13.9837 1 30C1 46.0163 13.9837 59 30 59Z" fill="url(#paint0_linear_646_17)"/>
<path d="M30.0002 59C25.9821 58.9983 22.0083 58.1617 18.3306 56.5432C14.653 54.9247 11.3518 52.5596 8.63643 49.5979C5.92108 46.6362 3.85082 43.1425 2.55693 39.3385C1.26305 35.5345 0.773785 31.5031 1.12017 27.5C1.77767 34.7051 5.10468 41.4042 10.448 46.2822C15.7914 51.1601 22.7651 53.8645 30.0002 53.8645C37.2352 53.8645 44.209 51.1601 49.5523 46.2822C54.8957 41.4042 58.2227 34.7051 58.8802 27.5C59.2266 31.5031 58.7373 35.5345 57.4434 39.3385C56.1495 43.1425 54.0793 46.6362 51.3639 49.5979C48.6486 52.5596 45.3474 54.9247 41.6697 56.5432C37.9921 58.1617 34.0182 58.9983 30.0002 59Z" fill="#5B8DC9"/>
<path d="M0 30C0 35.9334 1.75947 41.7336 5.05591 46.6671C8.35235 51.6006 13.0377 55.4458 18.5195 57.7164C24.0013 59.987 30.0333 60.5811 35.8527 59.4236C41.6721 58.266 47.0176 55.4088 51.2132 51.2132C55.4088 47.0176 58.266 41.6721 59.4236 35.8527C60.5811 30.0333 59.987 24.0013 57.7164 18.5195C55.4458 13.0377 51.6006 8.35235 46.6671 5.05591C41.7336 1.75947 35.9334 0 30 0C22.0484 0.0158557 14.427 3.18165 8.80431 8.80431C3.18165 14.427 0.0158557 22.0484 0 30ZM58 30C58 35.5379 56.3578 40.9514 53.2812 45.556C50.2045 50.1605 45.8315 53.7494 40.7151 55.8686C35.5988 57.9879 29.9689 58.5424 24.5375 57.462C19.106 56.3816 14.1169 53.7149 10.201 49.799C6.28514 45.8831 3.6184 40.894 2.53801 35.4625C1.45763 30.0311 2.01212 24.4012 4.13137 19.2849C6.25063 14.1685 9.83946 9.79553 14.444 6.71885C19.0486 3.64217 24.4621 2 30 2C37.4261 2 44.548 4.94999 49.799 10.201C55.05 15.452 58 22.5739 58 30Z" fill="#47566A"/>
<path d="M31 20C31 19.7348 30.8946 19.4804 30.7071 19.2929C30.5196 19.1054 30.2652 19 30 19H28C27.7348 19 27.4804 19.1054 27.2929 19.2929C27.1054 19.4804 27 19.7348 27 20C27 20.2652 27.1054 20.5196 27.2929 20.7071C27.4804 20.8946 27.7348 21 28 21H29V43H27C26.7348 43 26.4804 43.1054 26.2929 43.2929C26.1054 43.4804 26 43.7348 26 44C26 44.2652 26.1054 44.5196 26.2929 44.7071C26.4804 44.8946 26.7348 45 27 45H33C33.2652 45 33.5196 44.8946 33.7071 44.7071C33.8946 44.5196 34 44.2652 34 44C34 43.7348 33.8946 43.4804 33.7071 43.2929C33.5196 43.1054 33.2652 43 33 43H31V20Z" fill="#47566A"/>
<defs>
<linearGradient id="paint0_linear_646_17" x1="30" y1="59" x2="30" y2="1" gradientUnits="userSpaceOnUse">
<stop stop-color="#7AA8D7"/>
<stop offset="1" stop-color="#96C8EA"/>
</linearGradient>
</defs>
</svg>
