<svg width="1000" height="1000" viewBox="0 0 1000 1000" fill="none" xmlns="http://www.w3.org/2000/svg">
<path d="M354.799 336.002C354.799 347.289 350.885 358.228 343.724 366.953C336.563 375.679 326.598 381.652 315.527 383.854C304.456 386.056 292.964 384.351 283.009 379.03C273.054 373.709 265.252 365.1 260.933 354.672C256.613 344.243 256.043 332.639 259.32 321.838C262.597 311.036 269.517 301.704 278.903 295.433C288.288 289.162 299.558 286.34 310.791 287.446C322.025 288.552 332.527 293.52 340.509 301.502C345.047 306.026 348.646 311.404 351.099 317.325C353.551 323.245 354.809 329.593 354.799 336.002Z" fill="#ECE7E1" stroke="black" stroke-width="3" stroke-miterlimit="10" stroke-linecap="round"/>
<path d="M334.672 296.549C327.345 294.241 319.574 293.71 312.001 294.999C304.412 296.177 297.302 299.449 291.471 304.449C285.961 309.455 282.241 316.129 280.881 323.449C279.404 330.762 279.993 338.342 282.581 345.339C283.928 348.96 285.966 352.285 288.581 355.129C291.188 357.981 294.428 360.18 298.041 361.549C303.677 363.454 309.791 363.397 315.39 361.388C320.99 359.378 325.744 355.533 328.881 350.479C330.24 347.943 331.067 345.157 331.313 342.291C331.559 339.425 331.218 336.539 330.311 333.809C328.521 328.369 324.501 323.899 318.311 322.909C315.907 322.452 313.421 322.736 311.181 323.723C308.942 324.711 307.055 326.355 305.771 328.439C304.485 330.524 303.745 332.9 303.621 335.348C303.497 337.795 303.992 340.234 305.061 342.439" stroke="#070707" stroke-width="3" stroke-miterlimit="10" stroke-linecap="round"/>
<path d="M251.656 357.051C255.346 355.371 260.006 353.401 265.536 351.421C271.783 349.192 278.15 347.312 284.606 345.791C294.481 343.525 304.537 342.139 314.656 341.651C334.408 340.598 354.209 342.399 373.446 347.001C380.037 348.575 386.545 350.477 392.946 352.701C401.322 355.614 409.505 359.054 417.446 363.001C411.292 372.016 405.734 381.422 400.806 391.161C386.247 419.928 377.449 451.261 374.906 483.401C373.845 496.915 373.875 510.492 374.996 524.001C374.996 524.001 361.466 527.761 343.916 539.001C320.743 553.808 301.754 574.312 288.766 598.551C288.766 598.551 296.536 566.671 295.766 520.551C294.996 474.431 285.726 414.001 251.656 357.051Z" fill="#F6C34C" stroke="#070707" stroke-width="3" stroke-miterlimit="10" stroke-linecap="round"/>
<path d="M821.232 505.849C820.662 480.87 816.778 456.077 809.682 432.119C799.212 396.749 779.172 355.599 740.782 323.739C728.055 313.176 714.056 304.247 699.112 297.159C687.388 291.601 675.172 287.145 662.622 283.849C614.382 271.619 565.682 274.039 522.372 288.949C479.062 303.859 441.172 331.279 414.562 369.049C387.142 407.949 377.382 449.759 374.882 483.919C373.163 506.99 374.468 530.187 378.762 552.919L600.002 529.389L821.232 505.849Z" fill="#ECE7E1" stroke="black" stroke-width="3" stroke-miterlimit="10" stroke-linecap="round"/>
<path d="M615.65 527.73L718.44 516.79L821.23 505.85C820.659 480.87 816.776 456.077 809.68 432.12C799.21 396.75 779.17 355.6 740.78 323.74C728.053 313.177 714.054 304.247 699.11 297.16C687.386 291.601 675.17 287.145 662.62 283.85C654.573 281.81 646.52 280.173 638.46 278.94C630.4 277.706 622.373 276.87 614.38 276.43C598.001 305.825 587.627 338.181 583.86 371.62C579 415.11 584.46 468.76 615.65 527.73Z" fill="#F6991A" stroke="#070707" stroke-width="3" stroke-miterlimit="10" stroke-linecap="round"/>
<path d="M654.38 281.91C657.667 295.143 658.915 308.801 658.08 322.41C656.77 345.41 649.08 374.05 623.8 396.31C628.187 405.281 630.413 415.155 630.3 425.14C630.2 442.05 623.39 463.91 596.57 483.78" stroke="#070707" stroke-width="3" stroke-miterlimit="10" stroke-linecap="round"/>
<path d="M495.412 300.211C479.421 308.114 464.448 317.929 450.822 329.441C437.104 341.052 424.919 354.362 414.562 369.051C387.142 407.951 377.382 449.761 374.882 483.921C373.163 506.992 374.468 530.188 378.762 552.921L445.552 545.821L512.332 538.711C529.332 490.791 527.902 438.341 520.822 394.271C515.581 362.133 507.066 330.616 495.412 300.211Z" fill="#F6991A" stroke="#070707" stroke-width="3" stroke-miterlimit="10" stroke-linecap="round"/>
<path d="M458.498 323.23C456.826 334.8 456.655 346.537 457.988 358.15C460.048 375.4 466.328 395.05 482.708 407.5C484.967 409.212 487.354 410.746 489.848 412.09C492.804 413.687 495.892 415.025 499.078 416.09C495.732 422.344 493.313 429.051 491.898 436C489.608 447.14 489.408 461.48 497.248 475.17C500.697 481.144 505.283 486.383 510.748 490.59C514.393 493.412 518.353 495.801 522.548 497.71" stroke="#070707" stroke-width="3" stroke-miterlimit="10" stroke-linecap="round"/>
<path d="M369.15 705.259L394.15 746.559L419.15 787.859C405.65 797.899 392.163 807.972 378.69 818.079C365.217 828.186 351.68 838.186 338.08 848.079C326.71 856.359 315.22 864.439 302.85 870.079C290.48 875.719 277.24 878.829 262.36 877.219C255.644 876.428 249.043 874.858 242.69 872.539C236.769 870.477 231.113 867.721 225.84 864.329C225.2 863.899 224.54 863.439 224.05 863.089L223.21 862.499C209.124 853.347 198.766 839.467 194 823.359C189.56 808.709 189.54 793.259 191.34 779.449C192.697 769.103 195.192 758.938 198.78 749.139C202.362 739.333 206.953 729.925 212.48 721.069L252.94 656.069L293.39 591.069C296.59 585.922 300.017 580.922 303.67 576.069C307.327 571.242 311.225 566.603 315.35 562.169C330.141 546.194 348.807 534.311 369.54 527.669C389.37 521.119 410.86 518.669 433.61 517.609C466.36 516.129 503.98 519.669 537.03 532.059C570.08 544.449 598.53 565.699 613 599.619C614.84 603.952 616.727 608.262 618.66 612.549C620.593 616.836 622.55 621.112 624.53 625.379L668 719.109L711.47 812.839C714.835 820.077 716.832 827.875 717.36 835.839C718.213 848.587 715.014 861.278 708.22 872.099C705.846 875.825 703.092 879.293 700 882.449C689.082 893.738 674.424 900.66 658.77 901.919C643.079 903.233 627.425 898.985 614.55 889.919C589.38 872.179 559.29 843.919 535.5 820.059C511.71 796.199 494.2 776.819 494.2 776.819L524.53 739.819L554.86 702.819C554.908 702.763 554.939 702.695 554.948 702.622C554.957 702.548 554.943 702.474 554.91 702.409C554.879 702.345 554.831 702.291 554.771 702.254C554.711 702.217 554.641 702.198 554.57 702.199L461.84 703.749L369.15 705.259Z" fill="#84A1E5" stroke="#070707" stroke-width="3" stroke-miterlimit="10" stroke-linecap="round"/>
<path d="M660.199 759.148C660.2 766.707 657.58 774.031 652.785 779.874C647.99 785.717 641.318 789.717 633.905 791.192C626.492 792.667 618.797 791.526 612.131 787.964C605.465 784.401 600.24 778.638 597.347 771.655C594.454 764.672 594.072 756.902 596.266 749.669C598.459 742.436 603.093 736.187 609.377 731.987C615.662 727.788 623.208 725.897 630.73 726.638C638.252 727.378 645.285 730.704 650.629 736.048C653.668 739.078 656.077 742.679 657.719 746.643C659.362 750.607 660.205 754.857 660.199 759.148Z" fill="#DBCAF4" stroke="black" stroke-width="3" stroke-miterlimit="10" stroke-linecap="round"/>
<path d="M535.809 644.568C535.807 652.126 533.185 659.45 528.389 665.291C523.593 671.133 516.92 675.131 509.507 676.604C502.094 678.077 494.4 676.935 487.735 673.371C481.069 669.807 475.846 664.043 472.954 657.06C470.063 650.077 469.682 642.308 471.876 635.075C474.07 627.843 478.705 621.595 484.989 617.396C491.273 613.197 498.819 611.307 506.34 612.048C513.862 612.789 520.894 616.114 526.239 621.458C529.277 624.49 531.687 628.093 533.329 632.059C534.971 636.025 535.814 640.276 535.809 644.568Z" fill="#DBCAF4" stroke="black" stroke-width="3" stroke-miterlimit="10" stroke-linecap="round"/>
<path d="M283.34 791.82C283.341 799.378 280.72 806.703 275.926 812.546C271.131 818.389 264.459 822.389 257.046 823.864C249.633 825.339 241.937 824.198 235.271 820.636C228.605 817.073 223.381 811.309 220.488 804.327C217.595 797.344 217.213 789.574 219.406 782.341C221.6 775.108 226.234 768.859 232.518 764.659C238.802 760.46 246.348 758.569 253.87 759.31C261.393 760.05 268.425 763.376 273.77 768.72C276.807 771.751 279.215 775.352 280.858 779.316C282.5 783.28 283.344 787.529 283.34 791.82Z" fill="#DBCAF4" stroke="black" stroke-width="3" stroke-miterlimit="10" stroke-linecap="round"/>
<path d="M634.003 870.66C634.009 863.36 631.57 856.27 627.075 850.519C622.579 844.768 616.287 840.689 609.203 838.932C602.118 837.176 594.649 837.843 587.988 840.828C581.327 843.813 575.858 848.943 572.453 855.4C579.603 861.87 586.823 868.17 593.903 874.01C600.983 879.85 607.903 885.23 614.543 889.89C615.923 890.863 617.33 891.773 618.763 892.62C620.196 893.466 621.65 894.263 623.123 895.01C626.554 891.95 629.297 888.198 631.172 884.001C633.048 879.804 634.012 875.257 634.003 870.66Z" fill="#DBCAF4" stroke="black" stroke-width="3" stroke-miterlimit="10" stroke-linecap="round"/>
<path d="M354.797 581.281C361.287 581.283 367.63 579.35 373.017 575.73C378.404 572.11 382.589 566.967 385.04 560.957C387.49 554.947 388.093 548.343 386.773 541.989C385.452 535.634 382.268 529.818 377.627 525.281C367.663 527.937 358.022 531.679 348.877 536.441C339.403 541.442 330.614 547.643 322.727 554.891C324.179 562.331 328.172 569.035 334.022 573.854C339.873 578.674 347.216 581.31 354.797 581.311V581.281Z" fill="#DBCAF4" stroke="black" stroke-width="3" stroke-miterlimit="10" stroke-linecap="round"/>
<path d="M561.839 581.279C567.513 581.287 573.09 579.816 578.022 577.01C582.953 574.204 587.067 570.161 589.959 565.279C582.304 557.521 573.691 550.77 564.329 545.189C554.804 539.512 544.737 534.796 534.279 531.109C532.651 533.674 531.382 536.45 530.509 539.359C529.055 544.237 528.762 549.387 529.651 554.398C530.54 559.41 532.588 564.144 535.632 568.224C538.675 572.303 542.629 575.615 547.179 577.896C551.729 580.177 556.749 581.363 561.839 581.359V581.279Z" fill="#DBCAF4" stroke="black" stroke-width="3" stroke-miterlimit="10" stroke-linecap="round"/>
<path d="M360.002 787.859C353.169 787.855 346.507 789.993 340.954 793.974C335.4 797.955 331.235 803.577 329.044 810.049C326.854 816.521 326.748 823.518 328.743 830.053C330.737 836.588 334.731 842.333 340.162 846.479C348.622 840.306 357.049 834.096 365.442 827.849C373.836 821.603 382.222 815.346 390.602 809.079C388.271 802.846 384.092 797.474 378.623 793.681C373.154 789.889 366.657 787.858 360.002 787.859Z" fill="#DBCAF4" stroke="black" stroke-width="3" stroke-miterlimit="10" stroke-linecap="round"/>
<path d="M286.512 608.54C278.952 640.54 255.312 645.15 233.562 641.8C211.812 638.45 192.002 627.11 192.002 627.11C175.692 648.76 157.272 655.85 142.932 657.53C128.592 659.21 118.332 655.47 118.332 655.47C74.582 543.68 106.612 467.06 149.572 418.39C192.532 369.72 246.382 349 246.382 349C246.382 349 265.592 375.07 280.212 420.55C294.832 466.03 304.862 530.9 286.512 608.54Z" fill="#DBCAF4" stroke="black" stroke-width="3" stroke-miterlimit="10" stroke-linecap="round"/>
<path d="M246.537 567.12C246.727 570.506 245.935 573.874 244.257 576.82C242.668 579.56 240.386 581.834 237.641 583.414C234.896 584.993 231.784 585.823 228.617 585.82C225.227 585.799 221.915 584.803 219.077 582.951H218.997C216.161 584.803 212.853 585.799 209.467 585.82C206.298 585.822 203.185 584.992 200.439 583.412C197.692 581.833 195.409 579.56 193.817 576.82C192.142 573.873 191.353 570.505 191.547 567.12C188.52 565.595 185.998 563.226 184.287 560.3C182.702 557.553 181.867 554.437 181.867 551.266C181.867 548.094 182.702 544.978 184.287 542.23C185.999 539.308 188.52 536.943 191.547 535.42C191.354 532.039 192.142 528.674 193.817 525.73C195.412 522.994 197.696 520.723 200.442 519.144C203.187 517.565 206.299 516.733 209.467 516.73C212.854 516.756 216.162 517.755 218.997 519.61H219.057C221.894 517.755 225.206 516.755 228.597 516.73C231.763 516.732 234.874 517.563 237.618 519.143C240.363 520.722 242.645 522.993 244.237 525.73C245.914 528.674 246.705 532.038 246.517 535.42C249.539 536.949 252.058 539.312 253.777 542.23C255.356 544.98 256.187 548.095 256.187 551.266C256.187 554.436 255.356 557.551 253.777 560.3C252.064 563.219 249.552 565.585 246.537 567.12Z" fill="#FF6406" stroke="#070707" stroke-width="3" stroke-miterlimit="10" stroke-linecap="round"/>
<path d="M229.341 551.271C229.336 553.649 228.507 555.951 226.994 557.787C225.482 559.622 223.38 560.876 221.047 561.335C218.714 561.795 216.293 561.431 214.198 560.306C212.103 559.181 210.463 557.364 209.557 555.166C208.651 552.967 208.535 550.522 209.229 548.248C209.923 545.973 211.385 544.01 213.364 542.692C215.344 541.374 217.719 540.783 220.085 541.02C222.451 541.257 224.662 542.307 226.341 543.991C227.296 544.946 228.053 546.082 228.568 547.331C229.083 548.58 229.346 549.919 229.341 551.271Z" fill="#ECE7E1" stroke="black" stroke-width="3" stroke-miterlimit="10" stroke-linecap="round"/>
<path d="M271.559 415.509C268.938 415.452 266.439 414.395 264.572 412.555C262.704 410.715 261.61 408.232 261.513 405.613C261.416 402.993 262.323 400.435 264.049 398.463C265.775 396.49 268.19 395.251 270.799 394.999C268.799 390.279 266.869 385.889 264.959 381.859C263.049 377.829 261.209 374.129 259.449 370.859C258.305 371.019 257.18 371.29 256.089 371.669C255.021 372.018 253.986 372.463 252.999 372.999C250.249 374.579 247.968 376.86 246.389 379.609C244.712 382.556 243.92 385.924 244.109 389.309C241.088 390.844 238.569 393.21 236.849 396.129C235.264 398.877 234.43 401.993 234.43 405.164C234.43 408.336 235.264 411.452 236.849 414.199C238.569 417.118 241.088 419.485 244.109 421.019C243.92 424.405 244.712 427.773 246.389 430.719C247.978 433.459 250.259 435.733 253.004 437.313C255.75 438.892 258.862 439.722 262.029 439.719C265.419 439.698 268.73 438.702 271.569 436.849H271.629C273.675 438.183 275.977 439.077 278.387 439.473C280.797 439.869 283.264 439.758 285.629 439.149C284.429 434.483 283.172 430.006 281.859 425.719C280.549 421.399 279.189 417.249 277.809 413.259C276.023 414.649 273.822 415.399 271.559 415.389V415.509Z" fill="#FF6406" stroke="#070707" stroke-width="3" stroke-miterlimit="10" stroke-linecap="round"/>
<path d="M261.273 405.23C261.273 406.581 261.54 407.919 262.057 409.167C262.574 410.415 263.332 411.548 264.288 412.503C265.244 413.458 266.378 414.215 267.626 414.731C268.875 415.247 270.213 415.512 271.563 415.51C273.826 415.52 276.027 414.77 277.813 413.38C276.673 410.08 275.503 406.89 274.333 403.83C273.163 400.77 271.983 397.83 270.803 394.98C268.213 395.168 265.79 396.329 264.022 398.231C262.254 400.133 261.272 402.634 261.273 405.23Z" fill="#ECE7E1" stroke="black" stroke-width="3" stroke-miterlimit="10" stroke-linecap="round"/>
<path d="M119 466.209C118.817 469.573 119.605 472.919 121.27 475.849C122.846 478.579 125.112 480.848 127.841 482.428C130.571 484.007 133.667 484.842 136.82 484.849C140.186 484.831 143.476 483.837 146.29 481.989H146.36C149.174 483.837 152.463 484.831 155.83 484.849C158.245 484.873 160.639 484.401 162.865 483.464C165.091 482.526 167.101 481.142 168.771 479.397C170.441 477.652 171.736 475.583 172.575 473.318C173.414 471.053 173.78 468.641 173.65 466.229C176.654 464.707 179.157 462.354 180.86 459.449C182.445 456.714 183.281 453.61 183.281 450.449C183.281 447.288 182.445 444.183 180.86 441.449C179.157 438.544 176.654 436.19 173.65 434.669C173.829 431.306 173.045 427.961 171.39 425.029C170.007 422.64 168.094 420.602 165.799 419.071C163.503 417.54 160.886 416.557 158.15 416.199C155.728 415.878 153.267 416.08 150.93 416.789C144.511 423.913 138.553 431.438 133.09 439.319C127.318 447.642 122.168 456.379 117.68 465.459C117.89 465.599 118.11 465.729 118.33 465.849L119 466.219V466.209ZM146.33 440.209C148.691 440.211 150.978 441.032 152.802 442.531C154.626 444.03 155.874 446.116 156.334 448.432C156.793 450.747 156.436 453.151 155.322 455.233C154.209 457.315 152.408 458.947 150.227 459.851C148.046 460.755 145.619 460.875 143.359 460.19C141.099 459.506 139.147 458.059 137.834 456.097C136.52 454.135 135.928 451.778 136.157 449.428C136.386 447.078 137.422 444.88 139.09 443.209C140.044 442.256 141.178 441.502 142.426 440.991C143.674 440.479 145.011 440.22 146.36 440.229L146.33 440.209Z" fill="#FF6406" stroke="#070707" stroke-width="3" stroke-miterlimit="10" stroke-linecap="round"/>
<path d="M146.358 460.679C148.724 460.678 151.017 459.857 152.846 458.356C154.675 456.854 155.927 454.765 156.389 452.444C156.85 450.123 156.493 447.714 155.377 445.627C154.262 443.54 152.457 441.904 150.271 440.998C148.085 440.092 145.652 439.972 143.388 440.659C141.123 441.345 139.166 442.795 137.851 444.763C136.536 446.73 135.943 449.092 136.174 451.447C136.405 453.802 137.445 456.005 139.118 457.679C140.067 458.631 141.195 459.387 142.438 459.902C143.681 460.417 145.013 460.681 146.358 460.679Z" fill="#ECE7E1" stroke="black" stroke-width="3" stroke-miterlimit="10" stroke-linecap="round"/>
<path d="M730.004 703.32L716.004 761.73L702.004 820.15L765.174 843.4L828.334 866.64C834.995 869.424 841.969 871.389 849.104 872.49C859.241 874.097 869.603 873.549 879.514 870.88C891.834 867.382 903.055 860.794 912.114 851.74C921.81 842.069 929.343 830.45 934.214 817.65C936.867 810.81 938.784 803.707 939.934 796.46C941.075 789.206 941.524 781.86 941.274 774.52C940.394 747.95 938.374 723.74 935.844 702.22C933.314 680.7 930.254 661.89 927.314 646.12C917.894 595.78 907.134 563.73 897.594 543.12C888.054 522.51 879.744 513.27 875.224 508.6C841.124 473.28 795.634 457.79 756.934 451.3C731.303 446.995 705.239 445.873 679.334 447.96C663.507 449.471 647.841 452.356 632.514 456.58C610.534 462.612 589.401 471.388 569.614 482.7C550.081 493.907 532.019 507.502 515.844 523.17C524.944 525.981 533.849 529.385 542.504 533.36C549.012 536.351 555.354 539.689 561.504 543.36C566.898 546.558 572.103 550.064 577.094 553.86C580.934 556.86 583.494 559.1 584.954 560.42C587.054 562.32 589.614 564.77 592.394 567.79C595.523 571.194 598.438 574.787 601.124 578.55C606.164 585.627 610.378 593.256 613.684 601.29C615.549 605.859 617.142 610.533 618.454 615.29C627.994 648.29 642.644 679.44 658.564 710.07C674.484 740.7 691.694 770.84 706.324 801.96C710.27 785.534 714.214 769.1 718.154 752.66C722.094 736.22 726.044 719.774 730.004 703.32Z" fill="#C6FCDB" stroke="black" stroke-width="3" stroke-miterlimit="10" stroke-linecap="round"/>
<path d="M396.289 634.101C396.289 634.101 400.749 631.311 410.939 632.991C421.129 634.671 437.049 640.811 459.939 658.661" stroke="black" stroke-width="3" stroke-miterlimit="10" stroke-linecap="round"/>
<path d="M470.573 647.73C470.573 647.73 461.983 641.62 450.493 635.14C439.003 628.66 424.613 621.81 413.023 620.34" stroke="black" stroke-width="3" stroke-miterlimit="10" stroke-linecap="round"/>
<path d="M478.002 638.212C475.082 636.162 472.002 634.072 468.622 631.972C465.242 629.872 461.732 627.772 457.962 625.702C454.442 623.762 451.009 621.988 447.662 620.382C444.332 618.782 441.092 617.322 437.992 616.012" stroke="black" stroke-width="3" stroke-miterlimit="10" stroke-linecap="round"/>
<path d="M403.997 520.089C397.237 521.089 394.097 526.869 393.307 533.689C392.608 540.456 393.773 547.286 396.677 553.439C399.225 558.234 403.321 562.026 408.297 564.199C411.404 565.611 414.703 566.554 418.087 566.999C424.176 567.749 430.351 566.706 435.857 563.999C441.679 561.115 446.685 556.817 450.417 551.499C452.149 554.701 454.35 557.627 456.947 560.179C461.938 565.272 468.475 568.57 475.537 569.559C479.295 569.977 483.095 569.822 486.807 569.099C493.768 567.933 500.036 564.192 504.367 558.619C508.1 553.606 510.11 547.519 510.097 541.269C510.099 534.72 508.154 528.318 504.507 522.879C504.507 522.879 491.507 520.449 472.507 518.879C453.507 517.309 428.287 516.589 403.997 520.089Z" fill="#ECE7E1" stroke="black" stroke-width="3" stroke-miterlimit="10" stroke-linecap="round"/>
<path d="M312.404 655.639L302.204 650.479L292.004 645.309L266.804 676.109L241.594 706.899L247.454 710.719L253.314 714.549L284.884 713.169L316.444 711.799L318.704 696.429L321.004 681.059L316.734 668.349L312.404 655.639Z" fill="#F2B3C1" stroke="black" stroke-width="3" stroke-miterlimit="10" stroke-linecap="round"/>
<path d="M271.192 634.779C270.492 635.289 269.562 635.939 268.432 636.649C267.137 637.454 265.802 638.192 264.432 638.859C255.432 643.209 245.912 643.769 237.182 642.759C228.452 641.749 220.492 639.159 214.532 637.229C211.762 636.329 208.382 635.119 204.532 633.469C200.205 631.61 195.997 629.486 191.932 627.109C190.282 629.219 188.332 631.539 186.052 633.939C178.411 641.972 169.361 648.534 159.352 653.299L200.462 680.099L241.572 706.899L266.782 676.109L291.982 645.309L281.582 640.049L271.192 634.779Z" fill="#F6C34C" stroke="#070707" stroke-width="3" stroke-miterlimit="10" stroke-linecap="round"/>
<path d="M587.25 473.8C600.09 507.267 612.927 540.71 625.76 574.13C638.593 607.55 651.43 640.997 664.27 674.47C664.854 675.934 665.909 677.162 667.27 677.958C668.63 678.755 670.217 679.074 671.78 678.867C673.343 678.659 674.791 677.935 675.896 676.811C677.001 675.687 677.699 674.226 677.88 672.66L691.04 559.66L704.21 446.66C692.471 446.701 680.746 447.499 669.11 449.05C654.851 450.94 640.769 453.98 627 458.14C619.43 460.44 612.33 462.97 605.71 465.62C599.09 468.27 592.91 471 587.25 473.8Z" fill="#ECE7E1" stroke="black" stroke-width="3" stroke-miterlimit="10" stroke-linecap="round"/>
<path d="M503.867 510.641L532.957 520.231L562.047 529.811L539.207 550.221L516.357 570.621L510.117 540.631L503.867 510.641Z" fill="#040400" stroke="#040400" stroke-width="3" stroke-miterlimit="10"/>
<path d="M555.414 702.16L534.544 680.54L513.674 658.93C508.687 653.763 503.457 648.847 497.984 644.18C492.516 639.541 486.801 635.201 480.864 631.18C473.604 626.25 465.534 621.43 457.944 618.37C450.354 615.31 443.254 613.99 437.944 616.06C436.221 615.419 434.434 614.966 432.614 614.71C427.27 613.938 421.821 614.943 417.104 617.57C415.654 618.373 414.287 619.317 413.024 620.39C409.335 620.468 405.762 621.695 402.804 623.9C400.705 625.496 398.995 627.548 397.804 629.9C397.122 631.248 396.611 632.676 396.284 634.15C392.112 636.517 388.212 639.333 384.654 642.55C383.114 643.94 381.724 645.32 380.474 646.67C379.224 648.02 378.114 649.33 377.134 650.57C375.713 651.935 374.696 653.665 374.194 655.57C373.747 657.129 373.927 658.801 374.694 660.23C375.267 661.175 376.1 661.935 377.094 662.42C377.705 662.688 378.346 662.883 379.004 663C380.223 663.291 381.494 663.291 382.714 663C384.583 662.48 386.331 661.593 387.854 660.39C390.99 658.003 394.303 655.857 397.764 653.97C400.221 652.684 402.932 651.957 405.704 651.84H406.284H406.854C409.852 651.882 412.811 652.528 415.554 653.74C418.344 654.936 421.038 656.343 423.614 657.95C432.725 663.425 441.395 669.604 449.544 676.43C458.644 684.33 465.754 693.04 463.594 699.79C463.355 700.522 463.019 701.218 462.594 701.86C462.082 702.598 461.48 703.27 460.804 703.86C460.804 703.86 459.104 706.12 454.974 706.11C450.844 706.1 444.284 703.81 434.564 694.71C433.844 694.04 433.154 693.36 432.464 692.71C431.774 692.06 431.094 691.32 430.464 690.61C428.327 688.315 425.831 686.383 423.074 684.89C419.774 683.23 415.984 682.63 412.794 685.57C411.737 686.13 410.855 686.971 410.245 687.999C409.634 689.028 409.319 690.204 409.334 691.4C409.224 695.72 412.384 702.88 425.414 714.19C428.334 716.73 431.247 719.28 434.154 721.84C437.054 724.4 439.944 726.98 442.794 729.6L468.534 753.19L494.264 776.77L524.854 739.46L555.414 702.16Z" fill="#D87D61" stroke="black" stroke-width="3" stroke-miterlimit="10" stroke-linecap="round"/>
<path d="M674.997 677.58C674.58 677.909 674.123 678.184 673.638 678.4C672.842 678.766 671.983 678.973 671.107 679.01C669.753 679.066 668.413 678.718 667.258 678.01C663.158 650.01 659.064 621.983 654.977 593.93C650.891 565.876 646.794 537.846 642.688 509.84L646.148 509.31L649.597 508.77C653.864 536.923 658.111 565.06 662.338 593.18C666.564 621.3 670.784 649.433 674.997 677.58Z" fill="#F6991A" stroke="#070707" stroke-width="3" stroke-miterlimit="10" stroke-linecap="round"/>
<path d="M688.904 577.572C688.424 581.099 687.947 584.625 687.474 588.152L686.004 598.732C683.27 582.399 680.537 566.065 677.804 549.732C675.07 533.399 672.334 517.065 669.594 500.732L672.854 498.572L676.124 496.422C678.244 509.942 680.37 523.465 682.504 536.992C684.637 550.519 686.77 564.045 688.904 577.572Z" fill="#F6991A" stroke="#070707" stroke-width="3" stroke-miterlimit="10" stroke-linecap="round"/>
<path d="M641.082 616.509C638.922 610.509 636.765 604.485 634.612 598.439L628.142 580.359C625.642 567.439 623.145 554.515 620.652 541.589C618.159 528.662 615.665 515.735 613.172 502.809C613.772 503.119 614.412 503.439 615.072 503.749C615.732 504.059 616.412 504.359 617.072 504.669C617.632 504.909 618.192 505.129 618.732 505.339L620.342 505.939C623.782 524.372 627.229 542.799 630.682 561.219L641.082 616.509Z" fill="#F6991A" stroke="#070707" stroke-width="3" stroke-miterlimit="10" stroke-linecap="round"/>
<path d="M312.4 739.659C313.827 729.893 315.253 720.126 316.68 710.359C318.107 700.593 319.53 690.826 320.95 681.059C319.53 676.819 318.107 672.583 316.68 668.349L312.4 655.639L252.17 630.739L192 605.829L255.19 590.709L318.39 575.579C326.29 573.689 334.16 571.699 342.03 569.669C349.9 567.639 357.74 565.549 365.6 563.489C373.902 561.267 382.636 561.222 390.96 563.359C401.18 566.049 412.43 572.709 422.55 586.969L446.55 617.349L470.55 647.729L391.47 693.729L312.4 739.659Z" fill="#ECE7E1" stroke="black" stroke-width="3" stroke-miterlimit="10" stroke-linecap="round"/>
<path d="M276.812 640.561C279.691 639.931 282.383 638.636 284.673 636.781C288.823 633.581 293.392 627.781 295.082 617.211" stroke="black" stroke-width="3" stroke-miterlimit="10" stroke-linecap="round"/>
<path d="M422.496 586.999C412.376 572.729 401.116 566.079 390.906 563.379C382.581 561.249 373.848 561.297 365.546 563.519C357.686 565.579 349.836 567.659 341.966 569.699C334.096 571.739 326.236 573.699 318.336 575.609L312.496 576.999L306.656 578.399C307.932 591.136 312.22 603.386 319.166 614.139C325.755 624.348 335.041 632.533 345.996 637.789C353.807 641.446 362.277 643.487 370.896 643.789C376.668 643.997 382.445 643.524 388.106 642.379C390.413 647.399 392.72 652.422 395.026 657.449L401.956 672.529C402.712 674.424 403.564 676.279 404.506 678.089C405.581 680.169 406.797 682.174 408.146 684.089C413.49 692.049 421.72 697.618 431.096 699.619C440.29 701.662 449.918 700.002 457.896 694.999C460.42 693.395 462.728 691.476 464.766 689.289C466.759 687.136 468.481 684.748 469.896 682.179C473.325 675.931 474.779 668.79 474.066 661.699C473.361 654.587 470.625 647.829 466.186 642.229L444.346 614.639L422.496 586.999Z" fill="#040400" stroke="#040400" stroke-width="3" stroke-miterlimit="10"/>
<path d="M295.08 617.211C299.758 616.788 304.468 617.516 308.8 619.331C312.41 620.971 314.89 623.431 315.74 626.331C315.941 627.075 316.051 627.84 316.07 628.611C316.137 630.013 315.789 631.405 315.07 632.611C313.49 635.101 310.02 636.481 305.35 636.611C299.554 636.549 293.828 635.342 288.5 633.061C289.169 632.204 289.794 631.313 290.37 630.391C291.052 629.305 291.67 628.179 292.22 627.021C293.689 623.923 294.658 620.612 295.09 617.211H295.08Z" fill="#FC762B" stroke="#070707" stroke-width="3" stroke-miterlimit="10" stroke-linecap="round"/>
<path d="M337.207 600.168C337.207 601.306 336.812 602.409 336.089 603.289C335.367 604.168 334.362 604.77 333.245 604.992C332.129 605.214 330.97 605.041 329.966 604.504C328.963 603.967 328.176 603.099 327.741 602.047C327.306 600.995 327.249 599.825 327.58 598.736C327.91 597.647 328.608 596.706 329.555 596.074C330.502 595.442 331.638 595.158 332.771 595.27C333.904 595.382 334.963 595.883 335.767 596.688C336.225 597.145 336.588 597.687 336.835 598.284C337.082 598.882 337.209 599.522 337.207 600.168Z" fill="#ECE7E1" stroke="black" stroke-width="3" stroke-miterlimit="10" stroke-linecap="round"/>
<path d="M315.523 664.922C320.633 665.412 326.183 665.762 332.133 665.922C338.083 666.082 344.433 665.922 351.133 665.432C359.183 664.875 367.195 663.874 375.133 662.432C382.493 661.072 389.133 659.432 395.133 657.762L398.533 665.182L401.943 672.592C393.701 675.742 385.217 678.217 376.573 679.992C365.717 682.214 354.654 683.266 343.573 683.132C339.453 683.072 335.493 682.852 331.713 682.512C327.933 682.172 324.343 681.702 320.933 681.152L318.243 673.002L315.523 664.922Z" fill="#DBCAF4" stroke="black" stroke-width="3" stroke-miterlimit="10" stroke-linecap="round"/>
<path d="M504.109 516.049C504.739 514.859 505.359 513.619 505.959 512.309C506.559 510.999 507.149 509.629 507.709 508.189C509.301 504.097 510.535 499.874 511.399 495.569C512.115 491.983 512.577 488.351 512.779 484.699C514.382 484.803 515.965 485.112 517.489 485.619C519.467 486.257 521.245 487.398 522.649 488.929C525.709 492.369 526.449 497.769 525.299 502.929C524.149 508.089 521.109 512.929 516.619 515.279C514.347 516.435 511.817 516.993 509.269 516.899C507.52 516.836 505.786 516.551 504.109 516.049Z" fill="#D87D61" stroke="black" stroke-width="3" stroke-miterlimit="10" stroke-linecap="round"/>
<path d="M402.029 487.809L371.409 488.619L340.789 489.429L356.809 515.539L372.819 541.649L387.419 514.729L402.029 487.809Z" fill="#040400" stroke="#040400" stroke-width="3" stroke-miterlimit="10"/>
<path d="M369.672 706.502L393.142 687.502L416.622 668.502C422.302 664.095 428.179 659.975 434.252 656.142C440.33 652.314 446.609 648.816 453.062 645.662C460.942 641.812 469.622 638.202 477.572 636.252C485.522 634.302 492.742 634.012 497.702 636.822C501.224 636.04 504.874 636.034 508.398 636.805C511.922 637.575 515.237 639.102 518.112 641.282C519.432 642.283 520.651 643.412 521.752 644.652C523.125 644.881 524.467 645.267 525.752 645.802C528.023 646.745 530.066 648.166 531.741 649.967C533.416 651.768 534.685 653.908 535.462 656.242C535.949 657.671 536.251 659.156 536.362 660.662L544.202 669.272L552.042 677.892C553.834 679.493 555.006 681.673 555.352 684.052C555.521 685.006 555.49 685.985 555.261 686.926C555.032 687.868 554.61 688.752 554.022 689.522C553.251 690.312 552.309 690.915 551.27 691.286C550.23 691.657 549.119 691.785 548.022 691.662C546.654 691.558 545.322 691.175 544.108 690.537C542.894 689.899 541.823 689.019 540.962 687.952C539.202 686.09 537.232 684.439 535.092 683.032C531.683 680.769 527.865 679.193 523.852 678.392L523.282 678.282L522.722 678.192C519.892 677.742 517.011 677.711 514.172 678.102C511.329 678.498 508.551 679.272 505.912 680.402C496.115 684.522 486.656 689.404 477.622 695.002C467.462 701.442 459.172 709.002 460.352 716.002C460.483 716.76 460.718 717.498 461.052 718.192C461.446 719.009 461.943 719.772 462.532 720.462C462.532 720.462 463.892 722.942 467.982 723.462C472.072 723.982 478.882 722.712 489.812 715.092C490.612 714.532 491.402 713.962 492.182 713.372C492.962 712.782 493.732 712.192 494.492 711.582C496.939 709.621 499.683 708.065 502.622 706.972C506.132 705.802 509.962 705.752 512.712 709.122C513.677 709.826 514.43 710.783 514.887 711.887C515.344 712.992 515.487 714.201 515.302 715.382C514.782 719.672 510.642 726.312 496.132 735.652C492.872 737.738 489.625 739.845 486.392 741.972C483.152 744.092 479.932 746.232 476.732 748.422L447.902 768.182L419.062 787.862C410.829 774.302 402.595 760.742 394.362 747.182L369.672 706.502Z" fill="#D87D61" stroke="black" stroke-width="3" stroke-miterlimit="10" stroke-linecap="round"/>
<path d="M511.86 492.999C508.86 510.919 499.99 526.109 488.01 536.179C476.03 546.249 461.01 551.179 445.66 548.679C430.31 546.179 417.66 536.579 409.61 523.179C401.56 509.779 398 492.499 401 474.579C404 456.659 412.87 441.469 424.85 431.389C436.83 421.309 451.85 416.389 467.2 418.889C482.55 421.389 495.2 430.999 503.25 444.399C511.3 457.799 514.84 475.059 511.86 492.999Z" fill="#D87D61" stroke="black" stroke-width="3" stroke-miterlimit="10" stroke-linecap="round"/>
<path d="M471.85 479.998C471.698 480.888 471.202 481.681 470.47 482.208C470.014 482.534 469.485 482.742 468.929 482.815C468.373 482.887 467.808 482.822 467.284 482.624C466.76 482.426 466.292 482.102 465.923 481.68C465.554 481.259 465.294 480.753 465.167 480.207C465.04 479.661 465.049 479.092 465.194 478.551C465.339 478.01 465.615 477.513 465.998 477.103C466.381 476.694 466.859 476.386 467.39 476.205C467.92 476.025 468.487 475.978 469.04 476.068C469.483 476.141 469.907 476.301 470.288 476.538C470.669 476.775 471 477.085 471.261 477.45C471.522 477.815 471.708 478.228 471.81 478.665C471.911 479.103 471.924 479.556 471.85 479.998Z" fill="#040400"/>
<path d="M431.124 474.339C431.03 474.891 430.802 475.412 430.46 475.855C430.117 476.298 429.671 476.65 429.16 476.88C428.649 477.109 428.089 477.21 427.531 477.172C426.972 477.134 426.431 476.959 425.956 476.662C425.481 476.365 425.086 475.956 424.806 475.471C424.527 474.986 424.371 474.439 424.353 473.879C424.335 473.319 424.455 472.763 424.703 472.261C424.951 471.759 425.319 471.325 425.774 470.999C426.323 470.605 426.977 470.383 427.652 470.361C428.327 470.339 428.994 470.519 429.567 470.877C430.141 471.235 430.595 471.755 430.872 472.371C431.149 472.988 431.237 473.672 431.124 474.339Z" fill="#040400"/>
<path d="M440.528 490L437.858 486.58L435.198 483.16C435.161 483.118 435.138 483.067 435.129 483.012C435.12 482.957 435.127 482.901 435.148 482.85C435.168 482.797 435.202 482.751 435.246 482.716C435.29 482.681 435.342 482.658 435.398 482.65L439.398 482.35L443.398 482.04L445.048 472.09L446.708 462.09" stroke="black" stroke-width="3" stroke-miterlimit="10" stroke-linecap="round"/>
<path d="M455.002 500.518C453.981 502.292 452.489 503.749 450.692 504.728C448.802 505.76 446.685 506.303 444.532 506.308C442.177 506.322 439.861 505.707 437.822 504.528C435.862 503.411 434.271 501.746 433.242 499.738" stroke="black" stroke-width="3" stroke-miterlimit="10" stroke-linecap="round"/>
<path d="M464.117 459.57L473.717 463.76L483.317 467.96" stroke="black" stroke-width="3" stroke-miterlimit="10" stroke-linecap="round"/>
<path d="M536.338 660.578C536.338 660.578 532.338 657.178 521.998 657.388C511.658 657.598 494.998 661.388 469.828 675.808" stroke="black" stroke-width="3" stroke-miterlimit="10" stroke-linecap="round"/>
<path d="M438.08 457.738L427.75 460.238L417.43 462.728" stroke="black" stroke-width="3" stroke-miterlimit="10" stroke-linecap="round"/>
<path d="M460.867 663.478C460.867 663.478 470.247 658.658 482.537 653.878C494.827 649.098 510.057 644.378 521.747 644.568" stroke="black" stroke-width="3" stroke-miterlimit="10" stroke-linecap="round"/>
<path d="M485.458 498.269C485.119 500.324 484.079 502.197 482.513 503.571C480.947 504.944 478.954 505.732 476.872 505.8C474.791 505.868 472.75 505.212 471.098 503.944C469.446 502.676 468.285 500.874 467.813 498.846C467.34 496.817 467.586 494.688 468.508 492.82C469.43 490.953 470.971 489.463 472.869 488.605C474.766 487.746 476.903 487.573 478.914 488.113C480.925 488.654 482.687 489.875 483.898 491.569C485.285 493.507 485.846 495.917 485.458 498.269Z" fill="#FF6406" stroke="#070707" stroke-width="3" stroke-miterlimit="10" stroke-linecap="round"/>
<path d="M430.808 490.179C430.468 492.233 429.426 494.106 427.859 495.478C426.293 496.849 424.299 497.636 422.218 497.702C420.137 497.769 418.097 497.112 416.446 495.844C414.795 494.575 413.635 492.773 413.163 490.745C412.692 488.717 412.938 486.588 413.86 484.721C414.782 482.854 416.323 481.365 418.22 480.507C420.118 479.649 422.254 479.475 424.264 480.015C426.275 480.555 428.037 481.776 429.248 483.469C429.936 484.43 430.428 485.518 430.696 486.669C430.964 487.82 431.002 489.013 430.808 490.179Z" fill="#FF6406" stroke="#070707" stroke-width="3" stroke-miterlimit="10" stroke-linecap="round"/>
<path d="M408.141 452.671C415.787 454.098 423.607 454.354 431.331 453.431C444.501 451.931 460.821 446.651 473.431 431.571C475.865 439.589 479.07 447.351 483.001 454.751C489.461 466.911 499.301 480.191 512.811 484.701C514.416 484.815 515.998 485.152 517.511 485.701C519.023 486.175 520.423 486.951 521.627 487.983C522.83 489.014 523.811 490.279 524.511 491.701C524.511 491.701 532.121 475.131 530.301 455.701C528.481 436.271 517.231 413.891 479.511 402.331C467.714 399.25 455.331 399.202 443.511 402.191C424.281 407.191 402.621 422.491 392.891 463.391C393.943 462.918 395.052 462.582 396.191 462.391C398.681 461.898 401.261 462.148 403.611 463.111L405.911 457.921L408.141 452.671Z" fill="#040400" stroke="#040400" stroke-width="3" stroke-miterlimit="10"/>
<path d="M426.848 501.669C426.899 501.428 426.936 501.184 426.958 500.939C426.958 500.689 427.008 500.439 427.018 500.199C427.044 499.508 427.021 498.816 426.948 498.129C426.878 497.439 426.778 496.759 426.668 496.079C426.398 494.329 426.078 492.579 425.718 490.849C425.358 489.119 424.958 487.379 424.518 485.669C424.478 485.523 424.398 485.391 424.287 485.289C424.176 485.187 424.038 485.118 423.89 485.091C423.741 485.064 423.588 485.079 423.448 485.136C423.308 485.192 423.186 485.287 423.098 485.409C422.408 486.409 421.728 487.409 421.098 488.409C420.468 489.409 419.798 490.459 419.178 491.489C418.438 492.719 417.648 493.979 416.978 495.299C416.286 496.586 415.788 497.967 415.498 499.399C415.376 500.088 415.339 500.79 415.388 501.489C415.445 502.178 415.614 502.854 415.888 503.489C416.326 504.428 417.019 505.225 417.888 505.789C418.731 506.376 419.719 506.718 420.745 506.778C421.77 506.838 422.792 506.613 423.698 506.129C425.021 505.464 426.04 504.32 426.548 502.929C426.682 502.518 426.783 502.096 426.848 501.669Z" fill="#84A1E5" stroke="#070707" stroke-width="3" stroke-miterlimit="10" stroke-linecap="round"/>
<path d="M454.93 653.001C458.11 651.391 461.5 649.771 465.11 648.171C468.72 646.571 472.53 644.991 476.55 643.481C480.31 642.061 483.97 640.801 487.5 639.691C491.03 638.581 494.44 637.591 497.7 636.691" stroke="black" stroke-width="3" stroke-miterlimit="10" stroke-linecap="round"/>
<path d="M555.406 702.16L594.406 734.94L633.406 767.72" stroke="black" stroke-width="3" stroke-miterlimit="10" stroke-linecap="round"/>
<path d="M705.122 428.492C706.122 449.892 699.892 469.642 688.932 484.262C677.972 498.882 662.322 508.372 644.572 509.262C626.822 510.152 610.332 502.332 598.002 488.902C585.672 475.472 577.562 456.462 576.532 435.062C575.502 413.662 581.772 393.922 592.722 379.302C603.672 364.682 619.332 355.182 637.082 354.302C654.832 353.422 671.322 361.242 683.632 374.672C695.942 388.102 704.092 407.092 705.122 428.492Z" fill="#D87D61" stroke="black" stroke-width="3" stroke-miterlimit="10" stroke-linecap="round"/>
<path d="M645.998 424.78C646.053 425.579 645.868 426.376 645.465 427.068C645.063 427.76 644.462 428.316 643.74 428.663C643.018 429.01 642.209 429.132 641.417 429.014C640.625 428.896 639.887 428.542 639.298 428C638.509 427.279 638.035 426.277 637.978 425.21C637.924 424.409 638.114 423.61 638.521 422.918C638.928 422.225 639.534 421.672 640.26 421.329C640.986 420.986 641.799 420.869 642.592 420.994C643.385 421.119 644.122 421.48 644.708 422.03C645.482 422.741 645.946 423.729 645.998 424.78Z" fill="#040400"/>
<path d="M603.368 433.9C603.428 434.964 603.069 436.009 602.368 436.81C602.012 437.204 601.583 437.525 601.104 437.753C600.625 437.981 600.106 438.112 599.576 438.14C599.046 438.167 598.516 438.09 598.017 437.912C597.517 437.735 597.057 437.461 596.663 437.106C596.269 436.75 595.948 436.321 595.72 435.842C595.492 435.363 595.361 434.844 595.334 434.314C595.306 433.784 595.383 433.254 595.561 432.754C595.738 432.255 596.012 431.794 596.368 431.4C597.089 430.612 598.091 430.138 599.158 430.08C599.686 430.051 600.216 430.127 600.715 430.303C601.214 430.48 601.673 430.753 602.066 431.109C602.458 431.464 602.776 431.894 603.002 432.373C603.227 432.852 603.355 433.371 603.378 433.9H603.368Z" fill="#040400"/>
<path d="M620.178 448L615.688 445.54L611.198 443C611.142 442.968 611.095 442.921 611.061 442.865C611.028 442.809 611.01 442.745 611.008 442.68C611.005 442.614 611.02 442.548 611.052 442.49C611.084 442.432 611.131 442.383 611.188 442.35L615.398 440.14L619.608 437.93L616.748 426.37L613.888 414.82" stroke="black" stroke-width="3" stroke-miterlimit="10" stroke-linecap="round"/>
<path d="M640.148 455.09C639.67 457.456 638.545 459.644 636.898 461.41C635.17 463.271 633.004 464.67 630.598 465.48C627.965 466.372 625.141 466.548 622.418 465.99C619.805 465.475 617.401 464.202 615.508 462.33" stroke="black" stroke-width="3" stroke-miterlimit="10" stroke-linecap="round"/>
<path d="M632.602 403.391L644.792 401.381L656.982 399.371" stroke="black" stroke-width="3" stroke-miterlimit="10" stroke-linecap="round"/>
<path d="M606.002 408.059L594.122 412.059L582.242 416.059" stroke="black" stroke-width="3" stroke-miterlimit="10" stroke-linecap="round"/>
<path d="M704.21 446.6C704.52 444.6 704.78 442.42 704.97 440.12C705.16 437.82 705.26 435.4 705.25 432.85C705.245 428.421 704.91 423.999 704.25 419.62C703.711 416.005 702.96 412.426 702 408.9C704.078 408.372 706.217 408.123 708.36 408.16C711.278 408.157 714.132 409.02 716.56 410.64C721.09 413.83 723.25 419.89 723.15 426.1C723.05 432.31 720.7 438.68 716.15 442.49C714.264 444.056 712.06 445.193 709.69 445.82C707.903 446.305 706.062 446.567 704.21 446.6Z" fill="#D87D61" stroke="black" stroke-width="3" stroke-miterlimit="10" stroke-linecap="round"/>
<path d="M667.578 442.651C667.697 445.101 666.964 447.515 665.502 449.484C664.041 451.453 661.942 452.855 659.563 453.45C657.184 454.045 654.673 453.797 652.456 452.748C650.24 451.699 648.456 449.914 647.408 447.697C646.36 445.48 646.113 442.968 646.709 440.59C647.305 438.211 648.707 436.113 650.676 434.652C652.646 433.192 655.061 432.459 657.51 432.579C659.959 432.699 662.291 433.665 664.108 435.311C665.142 436.245 665.981 437.375 666.577 438.635C667.172 439.894 667.513 441.259 667.578 442.651Z" fill="#FF6406" stroke="#070707" stroke-width="3" stroke-miterlimit="10" stroke-linecap="round"/>
<path d="M607.918 456.829C608.038 459.28 607.305 461.698 605.842 463.67C604.38 465.641 602.279 467.045 599.898 467.641C597.516 468.237 595.002 467.989 592.783 466.939C590.564 465.889 588.778 464.102 587.729 461.883C586.68 459.664 586.433 457.149 587.029 454.768C587.626 452.387 589.03 450.287 591.002 448.825C592.974 447.363 595.392 446.63 597.844 446.751C600.296 446.872 602.63 447.84 604.448 449.489C605.483 450.422 606.322 451.552 606.918 452.811C607.513 454.071 607.853 455.437 607.918 456.829Z" fill="#FF6406" stroke="#070707" stroke-width="3" stroke-miterlimit="10" stroke-linecap="round"/>
<path d="M583.547 467.002C582.847 465.222 582.157 463.342 581.547 461.372C580.937 459.402 580.267 457.372 579.687 455.182C578.435 450.55 577.48 445.844 576.827 441.092C576.279 437.032 575.945 432.946 575.827 428.852C573.994 428.667 572.145 428.725 570.327 429.022C567.968 429.401 565.75 430.394 563.897 431.902C559.797 435.332 558.897 441.472 560.187 447.652C561.477 453.832 564.957 460.072 569.607 463.652C571.943 465.423 574.7 466.554 577.607 466.932C579.575 467.214 581.572 467.237 583.547 467.002Z" fill="#D87D61" stroke="black" stroke-width="3" stroke-miterlimit="10" stroke-linecap="round"/>
<path d="M608.706 376.882C608.691 383.01 606.551 388.944 602.651 393.672C598.751 398.399 593.332 401.628 587.318 402.808C581.304 403.989 575.067 403.047 569.669 400.144C564.272 397.241 560.048 392.557 557.717 386.889C555.386 381.22 555.093 374.919 556.887 369.059C558.681 363.199 562.452 358.142 567.557 354.751C572.661 351.359 578.784 349.842 584.881 350.459C590.979 351.075 596.674 353.787 600.996 358.132C603.452 360.596 605.398 363.521 606.721 366.738C608.044 369.956 608.719 373.403 608.706 376.882Z" fill="#040400" stroke="#040400" stroke-width="3" stroke-miterlimit="10"/>
<path d="M656.671 358.908C656.67 367.559 653.67 375.941 648.182 382.628C642.694 389.314 635.057 393.891 626.573 395.578C618.088 397.265 609.282 395.958 601.653 391.88C594.024 387.801 588.046 381.204 584.736 373.212C581.426 365.22 580.99 356.328 583.501 348.05C586.013 339.772 591.317 332.621 598.51 327.816C605.702 323.01 614.339 320.848 622.947 321.696C631.556 322.544 639.604 326.351 645.721 332.468C649.199 335.936 651.958 340.057 653.837 344.594C655.716 349.132 656.679 353.997 656.671 358.908Z" fill="#040400" stroke="#040400" stroke-width="3" stroke-miterlimit="10"/>
<path d="M716.792 358.911C716.804 367.563 713.816 375.952 708.337 382.648C702.857 389.344 695.226 393.933 686.742 395.633C678.259 397.334 669.448 396.04 661.812 391.973C654.175 387.906 648.185 381.317 644.861 373.329C641.538 365.34 641.087 356.447 643.585 348.163C646.084 339.88 651.377 332.718 658.563 327.9C665.749 323.081 674.383 320.903 682.995 321.737C691.607 322.57 699.664 326.364 705.792 332.471C709.279 335.935 712.047 340.054 713.934 344.592C715.822 349.13 716.794 353.996 716.792 358.911Z" fill="#040400" stroke="#040400" stroke-width="3" stroke-miterlimit="10"/>
<path d="M345.083 312.75C340.883 332.1 343.773 351.08 351.853 366.12C359.933 381.16 373.203 392.26 389.743 395.85C406.283 399.44 422.953 394.85 436.543 384.52C450.133 374.19 460.653 358.13 464.853 338.78C469.053 319.43 466.173 300.44 458.083 285.4C449.993 270.36 436.743 259.26 420.203 255.67C403.663 252.08 386.993 256.67 373.403 267C359.813 277.33 349.293 293.39 345.083 312.75Z" fill="#F2B3C1" stroke="black" stroke-width="3" stroke-miterlimit="10" stroke-linecap="round"/>
<path d="M674.648 391.532C675.297 397.776 676.948 403.874 679.538 409.592C683.658 418.182 691.128 425.932 704.538 422.502C704.538 422.502 704.288 420.332 703.848 417.552C703.412 414.633 702.794 411.744 701.998 408.902C701.998 408.902 702.998 408.672 704.468 408.482C706.348 408.232 708.247 408.169 710.138 408.292C710.826 405.15 711.28 401.961 711.498 398.752C712.095 391.116 711.638 383.433 710.138 375.922L692.398 383.722L674.648 391.532Z" fill="#040400" stroke="#040400" stroke-width="3" stroke-miterlimit="10"/>
<path d="M729.996 702.16L717.156 754.87L704.326 807.58C689.493 803.802 675.085 798.518 661.326 791.81C651.428 786.959 641.925 781.339 632.906 775C626.769 770.711 620.953 765.978 615.506 760.84C607.026 752.847 599.572 743.831 593.316 734C590.678 729.672 588.381 725.145 586.446 720.46C583.346 712.89 580.936 703.71 583.666 697.31C583.967 696.555 584.353 695.837 584.816 695.17C585.494 694.169 586.421 693.362 587.506 692.83C589.327 692.069 591.359 691.984 593.236 692.59C594.748 693 596.174 693.677 597.446 694.59C600.61 697.072 603.42 699.976 605.796 703.22C608.246 706.44 610.446 709.88 612.596 713.16C614.217 715.795 616.14 718.232 618.326 720.42C620.736 722.66 623.546 724.09 626.456 722.84C627.008 722.591 627.491 722.214 627.866 721.74C628.251 721.264 628.552 720.726 628.756 720.15C630.756 714.45 628.756 706.7 626.226 700.37C624.664 696.491 622.802 692.739 620.656 689.15C617.037 683.655 612.96 678.476 608.466 673.67C603.306 667.97 596.796 661.34 588.156 652.57C584.889 649.445 581.857 646.082 579.086 642.51C576.756 639.23 575.486 636.09 576.466 633.25C576.921 631.999 577.718 630.9 578.766 630.08C579.725 629.309 580.785 628.673 581.916 628.19C579.715 626.214 578.296 623.513 577.916 620.58C577.735 619.402 577.813 618.198 578.145 617.053C578.476 615.908 579.054 614.849 579.836 613.95C581.204 612.625 583.014 611.855 584.916 611.79C585.999 611.708 587.088 611.765 588.156 611.96C587.075 609.808 586.605 607.4 586.796 605C586.861 603.246 587.511 601.564 588.641 600.221C589.772 598.878 591.319 597.952 593.036 597.59C593.898 597.38 594.78 597.262 595.666 597.24C596.508 597.224 597.347 597.332 598.156 597.56C599.248 597.887 600.32 598.278 601.366 598.73C602.566 599.23 603.966 599.83 605.526 600.55C607.086 601.27 608.806 602.12 610.666 603.1C611.336 602.41 612.046 601.58 612.796 600.78C613.497 599.998 614.286 599.3 615.146 598.7C618.786 596.34 623.356 597.34 627.706 599.44C631.678 601.561 635.456 604.027 638.996 606.81C644.36 610.705 649.378 615.054 653.996 619.81C656.682 622.559 659.219 625.45 661.596 628.47C675.266 645.84 683.076 656.47 688.986 664.11C693.812 670.651 699.163 676.788 704.986 682.46C707.746 685.13 711.186 688.26 715.356 691.63C720.039 695.407 724.926 698.922 729.996 702.16Z" fill="#D87D61" stroke="black" stroke-width="3" stroke-miterlimit="10" stroke-linecap="round"/>
<path d="M581.922 628.199C585.922 630.799 590.102 633.719 594.442 637.019C598.782 640.319 603.242 644.019 607.772 648.019C613.611 653.273 619.157 658.845 624.382 664.709C629.222 670.159 633.382 675.409 636.962 680.279" stroke="black" stroke-width="3" stroke-miterlimit="10" stroke-linecap="round"/>
<path d="M588.148 612C592.638 614.77 597.448 618 602.458 621.7C607.468 625.4 612.688 629.64 617.958 634.41C624.053 639.922 629.81 645.796 635.198 652C640.198 657.72 644.358 663.21 647.898 668.22" stroke="black" stroke-width="3" stroke-miterlimit="10" stroke-linecap="round"/>
<path d="M610.672 603.129C615.432 606.889 620.462 611.129 625.672 615.979C630.882 620.829 636.152 626.169 641.452 632.129C645.112 636.239 648.452 640.299 651.562 644.259C654.672 648.219 657.462 652.089 660.032 655.819" stroke="black" stroke-width="3" stroke-miterlimit="10" stroke-linecap="round"/>
<path d="M846.458 734.94L788.228 718.55L730.008 702.16" stroke="black" stroke-width="3" stroke-miterlimit="10" stroke-linecap="round"/>
<path d="M343.172 329.401C343.172 327.511 343.282 325.501 343.462 323.401C343.642 321.301 343.912 319.051 344.302 316.731C344.975 312.694 345.948 308.713 347.212 304.821C348.256 301.604 349.491 298.451 350.912 295.381C349.095 294.588 347.182 294.037 345.222 293.741C342.564 293.293 339.833 293.641 337.372 294.741C332.752 296.961 329.872 302.161 329.022 307.841C328.172 313.521 329.352 319.681 332.882 323.841C334.369 325.547 336.208 326.912 338.272 327.841C339.837 328.555 341.482 329.078 343.172 329.401Z" fill="#F2B3C1" stroke="black" stroke-width="3" stroke-miterlimit="10" stroke-linecap="round"/>
<path d="M771.102 645.82L779.992 681.88L788.882 717.93" stroke="black" stroke-width="3" stroke-miterlimit="10" stroke-linecap="round"/>
<path d="M354.212 289.141C359.988 292.491 366.445 294.494 373.102 295.001C384.352 295.931 399.222 292.831 413.682 276.671C414.753 283.367 417.149 289.782 420.729 295.541C424.309 301.3 429.002 306.287 434.532 310.211C444.802 317.411 457.212 320.211 468.272 317.271C476.552 315.071 483.932 309.711 489.412 302.331C495.175 294.419 498.533 285.013 499.082 275.241C498.991 264.493 495.49 254.051 489.082 245.421C483.21 237.412 474.689 231.743 465.032 229.421C456.318 227.595 447.247 228.647 439.182 232.421C434.789 234.368 430.69 236.919 427.002 240.001C421.182 236.755 414.909 234.396 408.392 233.001C397.992 230.741 384.392 230.321 370.502 237.061C359.999 242.198 351.288 250.38 345.502 260.541C339.575 270.92 336.756 282.785 337.382 294.721C338.1 294.422 338.838 294.178 339.592 293.991C342.236 293.313 345.011 293.337 347.642 294.061C348.776 294.372 349.875 294.797 350.922 295.331C351.129 294.871 351.349 294.401 351.582 293.921C351.812 293.451 352.062 292.921 352.322 292.471C352.582 292.021 352.952 291.291 353.262 290.731C353.572 290.171 353.892 289.651 354.212 289.141Z" fill="#ECE7E1" stroke="black" stroke-width="3" stroke-miterlimit="10" stroke-linecap="round"/>
<path d="M453.453 366.8C454.383 365.28 455.313 363.68 456.223 361.98C457.133 360.28 458.033 358.5 458.903 356.63C460.78 352.607 462.391 348.465 463.723 344.23C464.855 340.617 465.789 336.945 466.523 333.23C468.273 333.337 470.001 333.673 471.663 334.23C473.814 334.934 475.746 336.181 477.273 337.85C480.603 341.62 480.513 347.36 478.363 352.8C476.213 358.24 472.003 363.39 467.093 366C464.618 367.253 461.865 367.855 459.093 367.75C457.181 367.671 455.286 367.351 453.453 366.8Z" fill="#F2B3C1" stroke="black" stroke-width="3" stroke-miterlimit="10" stroke-linecap="round"/>
<path d="M784.47 513.839C785.1 511.419 785.47 508.838 785.91 506.358C786.223 504.089 786.718 501.849 787.39 499.659C788.62 496.109 790.05 491.779 792.25 488.279C794.45 484.779 797.41 482.129 801.69 481.939C801.69 481.939 803.5 481.869 805.11 484.409C806.72 486.949 808.11 492.109 807.3 502.589C806.753 509.515 805.442 516.36 803.39 522.999C801.332 529.646 798.573 536.055 795.16 542.119L786.27 557.999L777.37 573.858C776.449 575.504 775.737 577.257 775.25 579.079C774.766 580.901 774.543 582.783 774.59 584.668C774.525 587.278 775.366 589.829 776.97 591.889C778.69 593.889 781.56 595.069 786.19 594.649C784.159 597.451 782.446 600.469 781.08 603.649C779.08 608.529 778.08 614.189 782.36 617.279C784.153 618.7 786.406 619.411 788.69 619.279C792.53 619.039 797.69 616.338 803.02 606.488C803.02 606.488 805.62 611.489 810.08 613.279C814.54 615.069 820.83 613.559 828.23 600.529C829.192 601.894 830.535 602.945 832.092 603.55C833.648 604.155 835.349 604.286 836.98 603.928C842.63 602.638 850.84 595.348 861.07 571.368C862.497 568.035 863.963 564.702 865.47 561.368C866.977 558.035 868.503 554.732 870.05 551.459C875.05 540.859 882.31 522.139 883.39 501.929C884.47 481.719 879.33 460.019 859.39 443.449C855.043 439.808 850.154 436.869 844.9 434.739C839.66 432.616 834.09 431.428 828.44 431.229C819.409 430.905 810.485 433.261 802.79 437.999C793.79 443.499 784.79 452.999 777.02 468.759C774.105 474.797 771.609 481.028 769.55 487.409C766.23 497.759 763.74 510.178 767.06 518.408C767.838 520.359 769.289 521.966 771.15 522.939C772.063 523.424 773.065 523.723 774.095 523.815C775.126 523.908 776.164 523.794 777.15 523.478L777.47 523.369L777.79 523.249C779.595 522.497 781.119 521.2 782.15 519.538C783.215 517.771 783.997 515.848 784.47 513.839Z" fill="#F2B3C1" stroke="black" stroke-width="3" stroke-miterlimit="10" stroke-linecap="round"/>
<path d="M819.688 530.809C816.874 537.549 813.741 544.505 810.287 551.679C806.817 558.839 802.997 566.189 798.797 573.679C796.717 577.392 794.624 580.995 792.518 584.489C790.408 587.979 788.297 591.379 786.188 594.659" stroke="black" stroke-width="3" stroke-miterlimit="10" stroke-linecap="round"/>
<path d="M836.81 539.59C836.81 539.59 830.98 552.5 823.81 567.31C816.64 582.12 808.25 598.86 803 606.49" stroke="black" stroke-width="3" stroke-miterlimit="10" stroke-linecap="round"/>
<path d="M852.887 547.809L840.557 574.169L828.227 600.529" stroke="black" stroke-width="3" stroke-miterlimit="10" stroke-linecap="round"/>
<path d="M611.132 263.859C612.132 283.639 606.132 301.859 595.722 315.399C585.312 328.939 570.382 337.689 553.482 338.529C536.582 339.369 520.872 332.109 509.162 319.689C497.452 307.269 489.702 289.689 488.722 269.929C487.742 250.169 493.722 231.929 504.132 218.379C514.542 204.829 529.472 196.089 546.372 195.249C563.272 194.409 578.972 201.669 590.692 214.089C602.412 226.509 610.152 244.069 611.132 263.859Z" fill="#F2B3C1" stroke="black" stroke-width="3" stroke-miterlimit="10" stroke-linecap="round"/>
<path d="M556.51 266.712C556.55 267.569 556.292 268.413 555.78 269.101C555.268 269.789 554.533 270.278 553.701 270.486C552.869 270.693 551.991 270.606 551.216 270.239C550.44 269.871 549.816 269.247 549.45 268.472C549.083 267.696 548.997 266.818 549.205 265.986C549.413 265.154 549.902 264.42 550.591 263.908C551.279 263.396 552.124 263.139 552.98 263.18C553.837 263.221 554.653 263.557 555.29 264.132C555.653 264.46 555.948 264.857 556.157 265.3C556.366 265.743 556.486 266.223 556.51 266.712Z" fill="#040400"/>
<path d="M516.659 279.109C516.678 279.6 516.599 280.089 516.427 280.549C516.256 281.009 515.995 281.431 515.659 281.789C515.249 282.243 514.733 282.589 514.157 282.796C513.581 283.003 512.963 283.064 512.357 282.975C511.752 282.886 511.177 282.649 510.686 282.284C510.194 281.92 509.799 281.44 509.537 280.887C509.276 280.334 509.154 279.724 509.184 279.113C509.214 278.502 509.394 277.907 509.709 277.382C510.024 276.857 510.463 276.418 510.988 276.103C511.514 275.789 512.108 275.609 512.719 275.579C513.208 275.554 513.696 275.625 514.157 275.789C514.617 275.952 515.041 276.206 515.403 276.534C515.766 276.862 516.06 277.258 516.268 277.7C516.477 278.142 516.596 278.621 516.619 279.109H516.659Z" fill="#040400"/>
<path d="M535.199 289.001L531.049 286.731L526.909 284.461C526.854 284.431 526.809 284.387 526.775 284.335C526.742 284.282 526.723 284.223 526.719 284.161C526.72 284.1 526.736 284.041 526.766 283.989C526.795 283.937 526.838 283.892 526.889 283.861L530.779 281.861L534.679 279.861L531.999 269.071L529.359 258.391" stroke="black" stroke-width="3" stroke-miterlimit="10" stroke-linecap="round"/>
<path d="M555.12 291.781C554.887 294.003 554.039 296.116 552.67 297.881C551.24 299.743 549.366 301.218 547.22 302.171C544.875 303.219 542.293 303.622 539.74 303.341C537.293 303.088 534.973 302.121 533.07 300.561" stroke="black" stroke-width="3" stroke-miterlimit="10" stroke-linecap="round"/>
<path d="M541.453 252.911L552.793 251.561L564.133 250.191" stroke="black" stroke-width="3" stroke-miterlimit="10" stroke-linecap="round"/>
<path d="M519.618 258.57L509.228 263.68L498.828 268.79" stroke="black" stroke-width="3" stroke-miterlimit="10" stroke-linecap="round"/>
<path d="M610.288 280.6C610.578 278.73 610.818 276.73 610.988 274.6C611.158 272.47 611.258 270.23 611.258 267.87C611.257 260.392 610.248 252.948 608.258 245.74C610.178 245.249 612.156 245.017 614.138 245.05C616.837 245.049 619.475 245.849 621.718 247.35C625.908 250.29 627.908 255.89 627.818 261.63C627.728 267.37 625.548 273.26 621.378 276.78C619.626 278.233 617.578 279.287 615.378 279.87C613.717 280.32 612.008 280.565 610.288 280.6Z" fill="#F2B3C1" stroke="black" stroke-width="3" stroke-miterlimit="10" stroke-linecap="round"/>
<path d="M581.506 277.93C581.619 280.198 580.943 282.434 579.592 284.258C578.241 286.082 576.299 287.381 574.098 287.934C571.896 288.487 569.571 288.259 567.518 287.29C565.466 286.32 563.813 284.669 562.842 282.617C561.871 280.566 561.641 278.241 562.192 276.039C562.743 273.837 564.04 271.894 565.863 270.541C567.686 269.189 569.921 268.51 572.189 268.621C574.456 268.732 576.614 269.626 578.296 271.15C579.252 272.013 580.028 273.056 580.579 274.22C581.13 275.383 581.445 276.644 581.506 277.93Z" fill="#FF6406" stroke="#070707" stroke-width="3" stroke-miterlimit="10" stroke-linecap="round"/>
<path d="M522.741 298.641C522.854 300.909 522.177 303.145 520.826 304.969C519.475 306.793 517.534 308.092 515.332 308.645C513.13 309.198 510.805 308.97 508.753 308.001C506.7 307.031 505.048 305.38 504.076 303.328C503.105 301.277 502.875 298.952 503.426 296.75C503.977 294.548 505.274 292.605 507.097 291.252C508.92 289.9 511.156 289.221 513.423 289.332C515.69 289.443 517.849 290.337 519.531 291.861C520.486 292.724 521.262 293.767 521.813 294.931C522.364 296.094 522.679 297.355 522.741 298.641Z" fill="#FF6406" stroke="#070707" stroke-width="3" stroke-miterlimit="10" stroke-linecap="round"/>
<path d="M495.368 299.441C494.702 297.795 494.055 296.061 493.428 294.241C492.808 292.421 492.208 290.511 491.658 288.521C489.472 280.583 488.243 272.411 487.998 264.181C486.256 264.008 484.498 264.062 482.768 264.341C480.529 264.682 478.417 265.598 476.638 267.001C472.728 270.161 471.878 275.841 473.108 281.561C474.338 287.281 477.648 293.041 482.108 296.371C484.353 298.001 486.975 299.033 489.728 299.371C491.598 299.628 493.493 299.652 495.368 299.441Z" fill="#F2B3C1" stroke="black" stroke-width="3" stroke-miterlimit="10" stroke-linecap="round"/>
<path d="M487.999 264.179C487.999 264.179 497.849 263.649 509.789 256.979C521.729 250.309 535.789 237.499 544.109 212.929C548.029 220.77 553.299 227.858 559.679 233.869C570.109 243.579 585.839 251.789 607.029 245.769C607.469 245.649 607.939 245.539 608.439 245.449C608.939 245.359 609.439 245.269 610.029 245.199C610.802 245.108 611.58 245.058 612.359 245.049C613.079 245.049 613.749 245.049 614.359 245.109C614.756 237.84 614.188 230.55 612.669 223.429C610.449 213.109 605.669 201.039 595.499 191.219C582.499 178.609 564.249 172.969 546.129 173.899C528.009 174.829 509.959 182.329 497.249 195.999C484.769 209.429 480.659 225.629 479.779 238.929C479.196 247.47 479.836 256.05 481.679 264.409C482.064 264.305 482.455 264.221 482.849 264.159C483.299 264.079 483.753 264.022 484.209 263.989C484.901 263.94 485.596 263.94 486.289 263.989C486.862 264.02 487.433 264.084 487.999 264.179Z" fill="#040400" stroke="#040400" stroke-width="3" stroke-miterlimit="10"/>
<path d="M608.318 140.632C608.318 150.529 604.886 160.12 598.607 167.771C592.328 175.422 583.591 180.659 573.884 182.59C564.177 184.521 554.1 183.026 545.372 178.36C536.643 173.695 529.802 166.147 526.014 157.003C522.227 147.859 521.727 137.684 524.6 128.213C527.473 118.742 533.541 110.56 541.77 105.061C550 99.5627 559.881 97.0875 569.731 98.0576C579.581 99.0277 588.789 103.383 595.788 110.382C599.767 114.349 602.922 119.065 605.072 124.256C607.222 129.447 608.325 135.012 608.318 140.632Z" fill="#040400" stroke="#040400" stroke-width="3" stroke-miterlimit="10"/>
<path d="M388.191 324.499C387.986 325.464 388.17 326.471 388.704 327.301C389.238 328.13 390.078 328.716 391.041 328.929C391.762 329.086 392.514 329.026 393.201 328.756C393.888 328.487 394.48 328.019 394.901 327.413C395.322 326.806 395.554 326.089 395.567 325.351C395.58 324.613 395.374 323.887 394.974 323.267C394.575 322.646 394 322.157 393.323 321.863C392.646 321.569 391.897 321.483 391.171 321.615C390.445 321.747 389.774 322.091 389.243 322.605C388.713 323.118 388.347 323.777 388.191 324.499Z" fill="#040400"/>
<path d="M433.599 337.38C433.391 338.344 433.575 339.351 434.109 340.18C434.644 341.009 435.485 341.592 436.449 341.8C436.926 341.906 437.419 341.916 437.9 341.83C438.381 341.745 438.84 341.565 439.251 341.301C439.662 341.037 440.016 340.694 440.294 340.292C440.572 339.89 440.767 339.438 440.869 338.96C440.978 338.481 440.99 337.985 440.906 337.501C440.822 337.017 440.643 336.554 440.379 336.14C440.115 335.726 439.772 335.368 439.369 335.087C438.966 334.806 438.511 334.607 438.031 334.503C437.551 334.398 437.055 334.39 436.572 334.479C436.089 334.567 435.628 334.75 435.216 335.018C434.804 335.285 434.449 335.632 434.171 336.037C433.894 336.443 433.699 336.899 433.599 337.38Z" fill="#040400"/>
<path d="M412.289 344.632L416.509 342.502L420.739 340.382C420.793 340.353 420.838 340.312 420.871 340.261C420.904 340.21 420.924 340.152 420.929 340.092C420.935 340.029 420.923 339.965 420.895 339.909C420.866 339.852 420.823 339.805 420.769 339.772L416.999 337.602L413.179 335.432L416.179 324.842L419.179 314.262" stroke="black" stroke-width="3" stroke-miterlimit="10" stroke-linecap="round"/>
<path d="M391.531 356C392.05 358.172 393.166 360.157 394.751 361.73C396.423 363.397 398.486 364.618 400.751 365.28C403.213 366.014 405.825 366.083 408.321 365.48C410.714 364.909 412.889 363.655 414.581 361.87" stroke="black" stroke-width="3" stroke-miterlimit="10" stroke-linecap="round"/>
<path d="M407.002 301.55L395.582 300.99L384.172 300.43" stroke="black" stroke-width="3" stroke-miterlimit="10" stroke-linecap="round"/>
<path d="M436.82 313.09L447.24 318.16L457.65 323.23" stroke="black" stroke-width="3" stroke-miterlimit="10" stroke-linecap="round"/>
<path d="M367.709 339.811C367.226 342.032 367.528 344.351 368.563 346.373C369.599 348.396 371.304 349.997 373.387 350.903C375.471 351.809 377.804 351.965 379.99 351.344C382.176 350.722 384.078 349.362 385.373 347.495C386.668 345.628 387.276 343.37 387.092 341.105C386.909 338.84 385.946 336.709 384.367 335.075C382.788 333.441 380.691 332.405 378.434 332.143C376.177 331.882 373.899 332.411 371.989 333.641C369.801 335.05 368.262 337.269 367.709 339.811Z" fill="#FF6406" stroke="#070707" stroke-width="3" stroke-miterlimit="10" stroke-linecap="round"/>
<path d="M425.878 356.722C425.398 358.937 425.702 361.25 426.736 363.268C427.77 365.285 429.472 366.881 431.551 367.784C433.63 368.688 435.958 368.842 438.138 368.222C440.319 367.602 442.217 366.244 443.509 364.382C444.801 362.519 445.407 360.266 445.224 358.007C445.042 355.747 444.082 353.621 442.507 351.99C440.933 350.359 438.842 349.324 436.59 349.062C434.338 348.8 432.065 349.326 430.158 350.552C429.074 351.248 428.138 352.151 427.403 353.21C426.669 354.269 426.151 355.462 425.878 356.722Z" fill="#FF6406" stroke="#070707" stroke-width="3" stroke-miterlimit="10" stroke-linecap="round"/>
<path d="M449.714 328.921L443.854 327.271L438.004 325.621C436.346 325.156 434.613 325.02 432.904 325.221C431.191 325.423 429.535 325.963 428.034 326.811C426.968 327.404 425.991 328.144 425.134 329.011C424.296 329.874 423.58 330.846 423.004 331.901L417.004 330.051L411.004 328.211C411.324 325.135 410.548 322.045 408.814 319.484C407.08 316.923 404.499 315.056 401.524 314.211L394.004 312.081L386.504 309.961C383.18 309.102 379.651 309.578 376.674 311.289C373.698 312.999 371.509 315.808 370.578 319.112C369.647 322.417 370.047 325.955 371.693 328.968C373.339 331.981 376.1 334.229 379.384 335.231L386.884 337.351L394.374 339.461C394.909 339.611 395.454 339.728 396.004 339.811C397.696 340.064 399.422 339.982 401.084 339.571C402.226 339.288 403.326 338.854 404.354 338.281C405.525 337.625 406.587 336.792 407.504 335.811C408.412 334.841 409.167 333.739 409.744 332.541L415.624 334.351L421.494 336.151C421.249 337.601 421.249 339.082 421.494 340.531C421.753 341.987 422.253 343.39 422.974 344.681C423.818 346.183 424.95 347.505 426.304 348.571C427.653 349.642 429.204 350.431 430.864 350.891L436.724 352.541L442.584 354.191C443.115 354.346 443.656 354.463 444.204 354.541C444.737 354.622 445.274 354.669 445.814 354.681C449.009 354.758 452.123 353.666 454.571 351.61C457.019 349.555 458.633 346.676 459.111 343.516C459.588 340.355 458.896 337.128 457.164 334.441C455.432 331.755 452.779 329.792 449.704 328.921H449.714ZM402.144 334.351C401.151 334.886 400.064 335.226 398.944 335.351C397.817 335.481 396.675 335.389 395.584 335.081L388.094 333.001L380.594 330.891C378.392 330.271 376.528 328.801 375.41 326.806C374.292 324.81 374.013 322.453 374.634 320.251C375.254 318.05 376.724 316.185 378.719 315.068C380.715 313.95 383.072 313.671 385.274 314.291L392.774 316.401L400.264 318.511C401.357 318.815 402.379 319.331 403.273 320.031C404.166 320.73 404.913 321.599 405.47 322.587C406.027 323.575 406.384 324.664 406.52 325.79C406.657 326.917 406.569 328.059 406.264 329.151C405.959 330.243 405.439 331.263 404.734 332.151C404.026 333.05 403.145 333.798 402.144 334.351ZM454.454 343.901C453.838 346.107 452.371 347.979 450.376 349.104C448.38 350.229 446.02 350.516 443.814 349.901L438.004 348.211L432.144 346.561C431.053 346.258 430.033 345.742 429.144 345.041C428.255 344.341 427.514 343.471 426.964 342.481C426.404 341.495 426.047 340.407 425.914 339.281C425.784 338.154 425.875 337.013 426.184 335.921C426.486 334.83 427.002 333.81 427.704 332.921C428.411 332.032 429.283 331.288 430.274 330.731C432.268 329.615 434.623 329.335 436.824 329.951L442.684 331.601L448.544 333.251C449.637 333.556 450.66 334.074 451.553 334.774C452.447 335.474 453.193 336.344 453.751 337.333C454.308 338.322 454.665 339.411 454.801 340.538C454.937 341.665 454.849 342.808 454.544 343.901H454.454Z" fill="#84A1E5" stroke="#070707" stroke-width="3" stroke-miterlimit="10" stroke-linecap="round"/>
<path d="M295.272 694.122C294.309 692.957 293.211 691.909 292.002 691.002C290.217 689.62 288.179 688.6 286.002 688.002C281.971 687.013 277.719 687.484 274.002 689.332C271.637 690.452 269.458 691.93 267.542 693.712L267.032 694.192L266.512 694.672L241.712 717.002L216.882 739.352L216.002 740.102L215.112 740.842C213.24 742.425 211.705 744.367 210.595 746.554C209.486 748.74 208.825 751.126 208.652 753.572C208.43 755.952 208.709 758.353 209.471 760.62C210.234 762.886 211.462 764.967 213.078 766.73C214.693 768.493 216.66 769.897 218.852 770.854C221.044 771.81 223.411 772.296 225.802 772.282C228.256 772.333 230.695 771.892 232.976 770.985C235.257 770.078 237.333 768.724 239.082 767.002L239.902 766.172L240.732 765.362L265.262 742.812L289.782 720.252C291.867 718.29 293.683 716.06 295.182 713.622C297.482 709.852 299.362 704.852 297.992 699.622C297.761 698.756 297.453 697.913 297.072 697.102C296.581 696.047 295.977 695.048 295.272 694.122Z" fill="#ECE7E1" stroke="black" stroke-width="3" stroke-miterlimit="10" stroke-linecap="round"/>
<path d="M400.109 495.381C399.959 494.041 399.839 492.661 399.759 491.221C399.679 489.781 399.639 488.291 399.649 486.751C399.666 482.357 400.068 477.974 400.849 473.651C401.495 470.042 402.394 466.483 403.539 463.001C402.014 462.503 400.431 462.207 398.829 462.121C396.76 461.992 394.693 462.402 392.829 463.311C388.709 465.391 386.039 470.131 385.229 475.311C384.419 480.491 385.469 486.131 388.779 489.981C390.468 491.892 392.615 493.341 395.019 494.191C396.66 494.798 398.37 495.198 400.109 495.381Z" fill="#D87D61" stroke="black" stroke-width="3" stroke-miterlimit="10" stroke-linecap="round"/>
<path d="M343.362 721.338L330.422 709.108L317.482 696.868C313.767 694.059 309.395 692.248 304.782 691.608C297.362 690.678 287.782 693.148 279.272 706.778L262.192 736.138L245.102 765.498C242.916 769.536 242.33 774.248 243.462 778.698C243.989 780.932 244.96 783.036 246.318 784.886C247.676 786.736 249.393 788.293 251.366 789.466C253.339 790.638 255.527 791.4 257.801 791.708C260.075 792.016 262.388 791.863 264.602 791.258C266.978 790.661 269.211 789.592 271.166 788.115C273.121 786.637 274.759 784.781 275.982 782.658L287.072 765.658L298.162 748.658L320.762 734.958L343.362 721.338Z" fill="#ECE7E1" stroke="black" stroke-width="3" stroke-miterlimit="10" stroke-linecap="round"/>
<path d="M206.7 605.881C206.701 608.237 205.884 610.521 204.389 612.343C202.895 614.165 200.815 615.413 198.504 615.874C196.193 616.336 193.794 615.981 191.714 614.872C189.635 613.763 188.005 611.968 187.1 609.791C186.196 607.615 186.074 605.193 186.755 602.937C187.436 600.681 188.878 598.73 190.835 597.418C192.793 596.105 195.144 595.512 197.49 595.739C199.836 595.965 202.03 596.998 203.7 598.661C204.654 599.605 205.41 600.73 205.925 601.97C206.44 603.209 206.704 604.538 206.7 605.881Z" fill="#040400" stroke="#040400" stroke-width="3" stroke-miterlimit="10"/>
<path d="M296.773 750.869L302.043 742.339L307.323 733.809" stroke="black" stroke-width="3" stroke-miterlimit="10" stroke-linecap="round"/>
<path d="M738.182 597.269C738.182 596.269 735.612 595.359 731.352 594.649C725.722 593.816 720.043 593.352 714.352 593.259C714.272 587.59 713.679 581.94 712.582 576.379C711.652 572.129 710.432 569.559 709.092 569.559C707.752 569.559 706.522 572.129 705.592 576.379C704.5 581.941 703.907 587.59 703.822 593.259C698.131 593.352 692.453 593.816 686.822 594.649C682.562 595.359 679.992 596.269 679.992 597.269C679.992 598.269 682.562 599.179 686.822 599.889C692.453 600.721 698.131 601.185 703.822 601.279C703.907 606.947 704.5 612.596 705.592 618.159C706.522 622.409 707.752 624.979 709.092 624.979C710.432 624.979 711.652 622.409 712.582 618.159C713.679 612.597 714.272 606.947 714.352 601.279C720.043 601.186 725.722 600.721 731.352 599.889C735.612 599.179 738.182 598.269 738.182 597.269Z" fill="url(#paint0_linear_447_16155)" stroke="black" stroke-width="3" stroke-miterlimit="10" stroke-linecap="round"/>
<path d="M192.002 317.582C192.002 316.362 188.862 315.242 183.662 314.382C176.794 313.362 169.865 312.797 162.922 312.692C162.815 305.775 162.092 298.881 160.762 292.092C159.622 286.902 158.132 283.762 156.502 283.762C154.872 283.762 153.372 286.902 152.232 292.092C150.902 298.881 150.179 305.775 150.072 312.692C143.129 312.797 136.201 313.362 129.332 314.382C124.132 315.242 120.992 316.382 120.992 317.582C120.992 318.782 124.132 319.912 129.332 320.782C136.178 321.79 143.083 322.351 150.002 322.462C150.108 329.379 150.831 336.273 152.162 343.062C153.302 348.252 154.792 351.392 156.432 351.392C158.072 351.392 159.552 348.252 160.692 343.062C162.023 336.273 162.746 329.379 162.852 322.462C169.795 322.354 176.723 321.793 183.592 320.782C188.812 319.912 192.002 318.792 192.002 317.582Z" fill="url(#paint1_linear_447_16155)" stroke="black" stroke-width="3" stroke-miterlimit="10" stroke-linecap="round"/>
<path d="M761.657 240.442C752.047 242.442 746.137 244.522 742.127 248.522C738.117 252.522 736.037 258.442 734.047 268.052C734.008 268.266 733.895 268.46 733.728 268.6C733.561 268.739 733.35 268.816 733.132 268.816C732.915 268.816 732.704 268.739 732.536 268.6C732.369 268.46 732.256 268.266 732.217 268.052C730.217 258.442 728.137 252.522 724.137 248.522C720.137 244.522 714.227 242.422 704.607 240.442C704.393 240.403 704.199 240.29 704.06 240.123C703.92 239.956 703.844 239.745 703.844 239.527C703.844 239.309 703.92 239.098 704.06 238.931C704.199 238.764 704.393 238.651 704.607 238.612C714.227 236.612 720.137 234.532 724.137 230.532C728.137 226.532 730.237 220.612 732.217 211.002C732.256 210.788 732.369 210.594 732.536 210.454C732.704 210.315 732.915 210.238 733.132 210.238C733.35 210.238 733.561 210.315 733.728 210.454C733.895 210.594 734.008 210.788 734.047 211.002C736.047 220.612 738.127 226.522 742.127 230.532C746.127 234.542 752.047 236.632 761.657 238.612C761.872 238.651 762.065 238.764 762.205 238.931C762.345 239.098 762.421 239.309 762.421 239.527C762.421 239.745 762.345 239.956 762.205 240.123C762.065 240.29 761.872 240.403 761.657 240.442Z" fill="url(#paint2_linear_447_16155)" stroke="black" stroke-width="3" stroke-miterlimit="10" stroke-linecap="round"/>
<path d="M133.368 373.421C127.828 374.611 124.368 375.901 121.988 378.281C119.608 380.661 118.318 384.121 117.128 389.661C117.094 389.825 117.004 389.973 116.874 390.079C116.744 390.186 116.581 390.243 116.413 390.243C116.245 390.243 116.082 390.186 115.952 390.079C115.821 389.973 115.732 389.825 115.698 389.661C114.508 384.121 113.218 380.661 110.838 378.281C108.458 375.901 104.998 374.611 99.4578 373.421C99.2932 373.387 99.1453 373.297 99.0391 373.167C98.933 373.037 98.875 372.874 98.875 372.706C98.875 372.538 98.933 372.375 99.0391 372.245C99.1453 372.114 99.2932 372.025 99.4578 371.991C104.998 370.801 108.458 369.511 110.838 367.131C113.218 364.751 114.508 361.291 115.698 355.751C115.732 355.586 115.821 355.438 115.952 355.332C116.082 355.226 116.245 355.168 116.413 355.168C116.581 355.168 116.744 355.226 116.874 355.332C117.004 355.438 117.094 355.586 117.128 355.751C118.318 361.291 119.608 364.751 121.988 367.131C124.368 369.511 127.828 370.801 133.368 371.991C133.532 372.025 133.68 372.114 133.786 372.245C133.893 372.375 133.951 372.538 133.951 372.706C133.951 372.874 133.893 373.037 133.786 373.167C133.68 373.297 133.532 373.387 133.368 373.421Z" fill="url(#paint3_linear_447_16155)" stroke="black" stroke-width="3" stroke-miterlimit="10" stroke-linecap="round"/>
<path d="M738.18 655.531C735.634 655.535 733.165 654.655 731.195 653.042C729.225 651.429 727.876 649.182 727.377 646.685C726.878 644.188 727.262 641.595 728.461 639.349C729.661 637.103 731.602 635.343 733.955 634.368C736.307 633.394 738.925 633.266 741.361 634.006C743.798 634.746 745.902 636.309 747.315 638.427C748.728 640.545 749.362 643.088 749.11 645.622C748.857 648.156 747.734 650.523 745.93 652.321C743.872 654.373 741.086 655.527 738.18 655.531ZM738.18 639.601C737.022 639.599 735.899 639.998 735.003 640.732C734.107 641.465 733.493 642.487 733.266 643.623C733.039 644.758 733.214 645.938 733.76 646.959C734.306 647.98 735.19 648.78 736.26 649.222C737.331 649.665 738.521 649.721 739.629 649.383C740.737 649.045 741.693 648.333 742.334 647.369C742.975 646.404 743.261 645.247 743.144 644.095C743.026 642.943 742.513 641.867 741.69 641.051C741.23 640.59 740.683 640.224 740.08 639.975C739.478 639.727 738.832 639.599 738.18 639.601Z" fill="url(#paint4_linear_447_16155)" stroke="black" stroke-width="3" stroke-miterlimit="10" stroke-linecap="round"/>
<path d="M293.641 625.172C294.411 625.492 295.221 625.812 296.091 626.112C296.961 626.412 297.861 626.712 298.811 626.992C300.171 627.382 301.481 627.702 302.721 627.992C303.961 628.282 305.151 628.442 306.251 628.582" fill="#ECE7E1"/>
<path d="M293.641 625.172C294.411 625.492 295.221 625.812 296.091 626.112C296.961 626.412 297.861 626.712 298.811 626.992C300.171 627.382 301.481 627.702 302.721 627.992C303.961 628.282 305.151 628.442 306.251 628.582" stroke="black" stroke-width="3" stroke-miterlimit="10" stroke-linecap="round"/>
<path d="M624.999 572.072C631.529 552.902 636.899 537.162 640.629 526.222L646.459 509.112L653.459 517.972C659.459 525.562 670.459 539.482 690.459 564.802L697.349 505.702L704.229 446.602C703.636 453.171 702.132 459.627 699.759 465.782C695.502 477.231 688.11 487.253 678.429 494.702C673.778 498.274 668.682 501.226 663.269 503.482C654.04 507.389 643.95 508.816 633.999 507.622C618.649 505.722 607.289 497.922 599.609 490.272C594.694 485.418 590.519 479.869 587.219 473.802C592.699 488.182 598.192 502.555 603.699 516.922C609.205 531.288 614.742 545.648 620.309 560.002C620.909 561.542 621.779 563.782 622.639 566.002C623.499 568.222 624.369 570.522 624.999 572.072Z" fill="#DBCAF4" stroke="black" stroke-width="3" stroke-miterlimit="10" stroke-linecap="round"/>
<path d="M750.401 707.91L737.181 767.72L723.961 827.53" fill="#DBCAF4"/>
<path d="M750.401 707.91L737.181 767.72L723.961 827.53" stroke="black" stroke-width="3" stroke-miterlimit="10" stroke-linecap="round"/>
<path d="M412.102 278.418C412.362 278.168 412.622 277.898 412.892 277.608C413.162 277.318 413.412 277.028 413.682 276.708C414.303 275.954 414.877 275.163 415.402 274.338C415.848 273.631 416.255 272.9 416.622 272.148" stroke="#070707" stroke-width="3" stroke-miterlimit="10" stroke-linecap="round"/>
<path d="M159.28 574.858C158.42 572.508 157.77 569.958 157.13 567.538C156.595 565.305 155.883 563.118 155 560.998C153.45 557.578 151.61 553.398 149.09 550.128C146.57 546.858 143.37 544.488 139.09 544.708C139.09 544.708 137.28 544.798 135.92 547.488C134.56 550.178 133.66 555.488 135.45 565.788C136.651 572.649 138.606 579.357 141.28 585.788C143.961 592.21 147.313 598.331 151.28 604.048L161.63 619.048L171.98 634.048C173.063 635.595 173.941 637.276 174.59 639.048C175.247 640.815 175.645 642.668 175.77 644.548C176.084 647.141 175.49 649.763 174.09 651.968C172.55 654.078 169.82 655.558 165.17 655.588C167.457 658.187 169.449 661.031 171.11 664.068C173.58 668.738 175.11 674.278 171.11 677.758C169.46 679.34 167.285 680.259 165 680.338C161.16 680.458 155.77 678.258 149.53 668.958C149.53 668.958 147.41 674.198 143.14 676.378C138.87 678.558 132.46 677.668 123.87 665.378C123.041 666.827 121.802 668 120.31 668.748C118.818 669.497 117.138 669.789 115.48 669.588C109.73 668.838 100.87 662.358 88.4203 639.448C86.6936 636.248 84.9203 633.072 83.1003 629.918C81.2903 626.768 79.4503 623.618 77.6103 620.488C71.6703 610.398 62.6103 592.488 59.6603 572.488C56.7103 552.488 59.7503 530.378 78.0103 511.998C81.9949 507.977 86.5836 504.603 91.6103 501.998C96.623 499.387 102.056 497.678 107.66 496.948C116.626 495.759 125.742 497.252 133.86 501.238C143.35 505.858 153.24 514.468 162.42 529.428C165.895 535.162 168.969 541.13 171.62 547.288C175.9 557.288 179.55 569.408 177.02 577.938C176.432 579.952 175.14 581.687 173.38 582.828C172.519 583.395 171.555 583.785 170.542 583.975C169.529 584.166 168.488 584.153 167.48 583.938L167.15 583.858L166.82 583.758C164.956 583.181 163.319 582.034 162.14 580.478C160.887 578.773 159.921 576.875 159.28 574.858Z" fill="#F2B3C1" stroke="black" stroke-width="3" stroke-miterlimit="10" stroke-linecap="round"/>
<path d="M125.812 595.07C129.253 601.51 133.023 608.16 137.143 614.96C141.263 621.76 145.772 628.71 150.652 635.77C153.086 639.264 155.512 642.65 157.932 645.93C160.352 649.21 162.783 652.39 165.193 655.47" stroke="black" stroke-width="3" stroke-miterlimit="10" stroke-linecap="round"/>
<path d="M109.602 605.422C109.602 605.422 116.602 617.722 125.132 631.802C133.662 645.882 143.622 661.732 149.552 668.802" stroke="black" stroke-width="3" stroke-miterlimit="10" stroke-linecap="round"/>
<path d="M94.3672 615.121L109.127 640.201L123.887 665.281" stroke="black" stroke-width="3" stroke-miterlimit="10" stroke-linecap="round"/>
<path d="M231.289 368.621C235.109 375.921 238.859 383.691 242.439 391.931C246.019 400.171 249.439 408.931 252.589 418.071C263.028 448.578 269.321 480.349 271.299 512.531C272.839 537.533 271.978 562.624 268.729 587.461" stroke="black" stroke-width="3" stroke-miterlimit="10" stroke-linecap="round"/>
<path d="M322.733 341.371C322.034 342.827 321.5 344.356 321.143 345.931C320.597 348.311 320.481 350.77 320.803 353.191C321.363 357.2 323.084 360.957 325.753 364.001C327.176 365.67 328.829 367.127 330.663 368.331C330.128 370.139 329.858 372.015 329.863 373.901C329.816 377.299 330.756 380.638 332.568 383.513C334.38 386.388 336.987 388.677 340.073 390.101C343.022 391.48 346.278 392.069 349.523 391.811C349.529 393.788 349.846 395.752 350.463 397.631C351.633 401.5 354.143 404.826 357.543 407.011C360.136 408.652 363.118 409.577 366.185 409.691C369.252 409.805 372.294 409.105 375.003 407.661C375.495 409.465 376.137 411.224 376.923 412.921C377.976 415.189 379.284 417.329 380.823 419.301C381.713 420.444 382.682 421.523 383.723 422.531C384.593 423.382 385.511 424.184 386.473 424.931" fill="#F6C34C"/>
<path d="M322.733 341.371C322.034 342.827 321.5 344.356 321.143 345.931C320.597 348.311 320.481 350.77 320.803 353.191C321.363 357.2 323.084 360.957 325.753 364.001C327.176 365.67 328.829 367.127 330.663 368.331C330.128 370.139 329.858 372.015 329.863 373.901C329.816 377.299 330.756 380.638 332.568 383.513C334.38 386.388 336.987 388.677 340.073 390.101C343.022 391.48 346.278 392.069 349.523 391.811C349.529 393.788 349.846 395.752 350.463 397.631C351.633 401.5 354.143 404.826 357.543 407.011C360.136 408.652 363.118 409.577 366.185 409.691C369.252 409.805 372.294 409.105 375.003 407.661C375.495 409.465 376.137 411.224 376.923 412.921C377.976 415.189 379.284 417.329 380.823 419.301C381.713 420.444 382.682 421.523 383.723 422.531C384.593 423.382 385.511 424.184 386.473 424.931" stroke="#070707" stroke-width="3" stroke-miterlimit="10" stroke-linecap="round"/>
<path d="M217.297 691.07L237.727 666.169L258.147 641.27" fill="#F6C34C"/>
<path d="M217.297 691.07L237.727 666.169L258.147 641.27" stroke="#070707" stroke-width="3" stroke-miterlimit="10" stroke-linecap="round"/>
<path d="M390.133 370.629C390.838 372.03 391.866 373.244 393.133 374.169C395.223 375.699 398.513 376.759 403.303 374.859" stroke="black" stroke-width="3" stroke-miterlimit="10" stroke-linecap="round"/>
<path d="M625.391 496.052C626.578 493.821 628.24 491.879 630.261 490.362C632.337 488.793 634.762 487.75 637.329 487.322C639.895 486.893 642.527 487.092 645.001 487.902C647.542 488.712 649.88 490.055 651.861 491.842" stroke="black" stroke-width="3" stroke-miterlimit="10" stroke-linecap="round"/>
<path d="M262.749 771.121C261.588 772.421 260.582 773.85 259.749 775.381C258.455 777.73 257.601 780.295 257.229 782.951C257.02 784.489 256.977 786.044 257.099 787.591C257.194 788.774 257.381 789.948 257.659 791.101" stroke="black" stroke-width="3" stroke-miterlimit="10" stroke-linecap="round"/>
<path d="M251.381 767.051C250.111 768.52 249.063 770.167 248.271 771.941C246.374 775.993 245.723 780.518 246.401 784.941" stroke="black" stroke-width="3" stroke-miterlimit="10" stroke-linecap="round"/>
<path d="M216.469 769.59C216.629 768.624 216.863 767.671 217.169 766.74C217.531 765.605 217.993 764.504 218.549 763.45C219.85 760.971 221.635 758.777 223.799 757C225.215 755.826 226.762 754.819 228.409 754" stroke="black" stroke-width="3" stroke-miterlimit="10" stroke-linecap="round"/>
<path d="M209.719 761.239C210.023 759.973 210.434 758.735 210.949 757.539C211.659 755.878 212.558 754.304 213.629 752.849C214.839 751.209 216.262 749.736 217.859 748.469C218.97 747.584 220.158 746.801 221.409 746.129" stroke="black" stroke-width="3" stroke-miterlimit="10" stroke-linecap="round"/>
<defs>
<linearGradient id="paint0_linear_447_16155" x1="709.092" y1="569.559" x2="709.092" y2="624.979" gradientUnits="userSpaceOnUse">
<stop offset="0.26" stop-color="#FEC2D9"/>
<stop offset="0.75" stop-color="#A4C2FF"/>
</linearGradient>
<linearGradient id="paint1_linear_447_16155" x1="156.452" y1="283.762" x2="156.452" y2="351.392" gradientUnits="userSpaceOnUse">
<stop offset="0.31" stop-color="#FEC2D9"/>
<stop offset="0.75" stop-color="#A4C2FF"/>
</linearGradient>
<linearGradient id="paint2_linear_447_16155" x1="733.137" y1="210.252" x2="733.137" y2="268.802" gradientUnits="userSpaceOnUse">
<stop offset="0.31" stop-color="#FEC2D9"/>
<stop offset="0.88" stop-color="#A4C2FF"/>
</linearGradient>
<linearGradient id="paint3_linear_447_16155" x1="116.408" y1="355.171" x2="116.408" y2="390.241" gradientUnits="userSpaceOnUse">
<stop offset="0.31" stop-color="#FEC2D9"/>
<stop offset="0.75" stop-color="#A4C2FF"/>
</linearGradient>
<linearGradient id="paint4_linear_447_16155" x1="738.18" y1="633.601" x2="738.18" y2="655.531" gradientUnits="userSpaceOnUse">
<stop offset="0.22" stop-color="#FEC2D9"/>
<stop offset="0.75" stop-color="#A4C2FF"/>
</linearGradient>
</defs>
</svg>
