<svg width="46" height="46" viewBox="0 0 46 46" fill="none" xmlns="http://www.w3.org/2000/svg">
<path d="M23 46C35.7025 46 46 35.7025 46 23C46 10.2975 35.7025 0 23 0C10.2975 0 0 10.2975 0 23C0 35.7025 10.2975 46 23 46Z" fill="url(#paint0_linear_646_33)"/>
<path d="M23.0001 46C19.8113 45.9996 16.6575 45.3361 13.7388 44.0518C10.8202 42.7674 8.20051 40.8901 6.04614 38.5392C3.89176 36.1883 2.24977 33.4151 1.22442 30.3957C0.199074 27.3763 -0.18723 24.1767 0.0900527 21C0.598061 26.7256 3.23158 32.0535 7.4719 35.9342C11.7122 39.815 17.252 41.9673 23.0001 41.9673C28.7481 41.9673 34.2879 39.815 38.5282 35.9342C42.7685 32.0535 45.4021 26.7256 45.9101 21C46.1873 24.1767 45.801 27.3763 44.7757 30.3957C43.7503 33.4151 42.1084 36.1883 39.954 38.5392C37.7996 40.8901 35.1799 42.7674 32.2613 44.0518C29.3426 45.3361 26.1888 45.9996 23.0001 46Z" fill="#7ECE67"/>
<path d="M34.2802 14.2799L19.0002 29.5599L11.7202 22.2799C11.5292 22.089 11.2702 21.9817 11.0002 21.9817C10.7301 21.9817 10.4711 22.089 10.2802 22.2799C10.0892 22.4709 9.98193 22.7299 9.98193 22.9999C9.98193 23.27 10.0892 23.529 10.2802 23.7199C18.9102 32.3499 18.4002 31.9999 19.0002 31.9999C19.6002 31.9999 18.2002 33.2199 35.7202 15.6999C35.9085 15.509 36.0132 15.2511 36.0113 14.9829C36.0095 14.7147 35.9011 14.4582 35.7102 14.2699C35.5192 14.0816 35.2613 13.9769 34.9931 13.9788C34.7249 13.9807 34.4685 14.089 34.2802 14.2799Z" fill="#47566A"/>
<defs>
<linearGradient id="paint0_linear_646_33" x1="23" y1="46" x2="23" y2="0" gradientUnits="userSpaceOnUse">
<stop stop-color="#8CDD79"/>
<stop offset="1" stop-color="#D4E6B6"/>
</linearGradient>
</defs>
</svg>
